SplineFontDB: 3.0
FontName: MiltonianTattoo
FullName: Miltonian Tattoo
FamilyName: Miltonian Tattoo
Weight: Book
Copyright: Copyright (c) 2011 by Pablo Impallari. www.impallari.com Igino Marini. www.ikern.com. All rights reserved.
Version: 1.000
ItalicAngle: 0
UnderlinePosition: 0
UnderlineWidth: 0
Ascent: 800
Descent: 200
sfntRevision: 0x00010000
LayerCount: 2
Layer: 0 1 "Back"  1
Layer: 1 1 "Fore"  0
NeedsXUIDChange: 1
XUID: [1021 288 713564382 12345747]
FSType: 0
OS2Version: 3
OS2_WeightWidthSlopeOnly: 0
OS2_UseTypoMetrics: 1
CreationTime: 1297772514
ModificationTime: 1301165714
PfmFamily: 81
TTFWeight: 400
TTFWidth: 5
LineGap: 0
VLineGap: 0
Panose: 4 6 5 5 6 9 2 4 0 4
OS2TypoAscent: 228
OS2TypoAOffset: 1
OS2TypoDescent: -89
OS2TypoDOffset: 1
OS2TypoLinegap: 0
OS2WinAscent: 110
OS2WinAOffset: 1
OS2WinDescent: 15
OS2WinDOffset: 1
HheadAscent: 110
HheadAOffset: 1
HheadDescent: -15
HheadDOffset: 1
OS2SubXSize: 700
OS2SubYSize: 650
OS2SubXOff: 0
OS2SubYOff: 140
OS2SupXSize: 700
OS2SupYSize: 650
OS2SupXOff: 0
OS2SupYOff: 477
OS2StrikeYSize: 50
OS2StrikeYPos: 250
OS2FamilyClass: 2307
OS2Vendor: 'PYRS'
OS2CodePages: 00000001.00000000
OS2UnicodeRanges: 8000002f.0000000a.00000000.00000000
Lookup: 258 0 0 "'kern' Horizontal Kerning in Latin lookup 0"  {"'kern' Horizontal Kerning in Latin lookup 0 per glyph data 0"  "'kern' Horizontal Kerning in Latin lookup 0 kerning class 1"  } ['kern' ('latn' <'dflt' > ) ]
DEI: 91125
KernClass2: 59+ 64 "'kern' Horizontal Kerning in Latin lookup 0 kerning class 1" 
 20 quotedbl quotesingle
 9 parenleft
 8 asterisk
 5 comma
 20 emdash endash hyphen
 6 period
 5 slash
 2 at
 11 bracketleft
 9 backslash
 9 braceleft
 3 bar
 10 registered
 12 questiondown
 22 quotedblleft quoteleft
 24 quotedblright quoteright
 27 quotedblbase quotesinglbase
 27 guillemotleft guilsinglleft
 29 guillemotright guilsinglright
 9 trademark
 9 ampersand
 101 Acircumflex Adieresis Agrave Aring Atilde a aacute acircumflex adieresis agrave aring atilde Aacute A

StartChar: B
Encoding: 66 66 9
Width: 721
Flags: W
HStem: -35 49<397.856 540.054> 307 37<395.918 520.828> 619 61.5<372 392 392.002 448.99>
VStem: 181 205<46 290.148 366.524 574.69> 586 48<396.057 536.196> 646 44<96.3649 265.217>
LayerCount: 2
Fore
SplineSet
79 -54 m 0,0,1
 56 -54 56 -54 56 -25 c 0,2,3
 56 6 56 6 104 24 c 0,4,5
 125 32 125 32 175 40 c 1,6,-1
 181 46 l 1,7,-1
 181 295 l 2,8,9
 181 305 181 305 174 308 c 128,-1,10
 167 311 167 311 159 313.5 c 128,-1,11
 151 316 151 316 144 320.5 c 128,-1,12
 137 325 137 325 137 337 c 0,13,14
 137 367 137 367 175 369 c 1,15,16
 175 463 175 463 156 600 c 1,17,18
 135 600 135 600 119 581.5 c 128,-1,19
 103 563 103 563 89.5 540.5 c 128,-1,20
 76 518 76 518 63.5 499.5 c 128,-1,21
 51 481 51 481 39 481 c 128,-1,22
 27 481 27 481 19.5 490 c 128,-1,23
 12 499 12 499 12 505 c 2,24,-1
 12 514 l 2,25,26
 12 518 12 518 13 520 c 0,27,28
 42 594 42 594 116 638 c 0,29,30
 186 680 186 680 266 680.5 c 128,-1,31
 346 681 346 681 403.5 669.5 c 128,-1,32
 461 658 461 658 501.5 640 c 128,-1,33
 542 622 542 622 568 599.5 c 0,34,35
 594 578 594 578 608 556 c 0,36,37
 634 518 634 518 634 485 c 0,38,39
 634 478 634 478 633 476 c 1,40,41
 636 473 636 473 636 442 c 128,-1,42
 636 411 636 411 622.5 387 c 128,-1,43
 609 363 609 363 578 337 c 1,44,45
 633 316 633 316 661.5 279.5 c 128,-1,46
 690 243 690 243 690 187 c 128,-1,47
 690 131 690 131 673 94.5 c 128,-1,48
 656 58 656 58 630.5 33.5 c 128,-1,49
 605 9 605 9 574 -4.5 c 128,-1,50
 543 -18 543 -18 515 -25 c 0,51,52
 475 -35 475 -35 434 -35 c 128,-1,53
 393 -35 393 -35 350 -28 c 128,-1,54
 307 -21 307 -21 262 -21 c 2,55,-1
 218 -21 l 1,56,57
 214 -29 214 -29 210.5 -32 c 128,-1,58
 207 -35 207 -35 197.5 -35 c 128,-1,59
 188 -35 188 -35 181.5 -28 c 128,-1,60
 175 -21 175 -21 162.5 -21 c 128,-1,61
 150 -21 150 -21 139.5 -26 c 0,62,63
 129 -32 129 -32 119 -38 c 0,64,65
 94 -54 94 -54 79 -54 c 0,0,1
397 23 m 2,66,67
 397 14 397 14 424.5 14 c 128,-1,68
 452 14 452 14 491 21.5 c 128,-1,69
 530 29 530 29 564 47 c 0,70,71
 646 90 646 90 646 164 c 128,-1,72
 646 238 646 238 626 263 c 0,73,74
 614 278 614 278 594 287 c 128,-1,75
 574 296 574 296 540 307 c 1,76,-1
 521 307 l 1,77,78
 514 306 514 306 495.5 303 c 128,-1,79
 477 300 477 300 456.5 297 c 128,-1,80
 436 294 436 294 417.5 291.5 c 128,-1,81
 399 289 399 289 392.5 288 c 128,-1,82
 386 287 386 287 386 279 c 2,83,-1
 386 275 l 2,84,85
 386 177 386 177 398 28 c 1,86,87
 397 27 397 27 397 26 c 2,88,-1
 397 23 l 2,66,67
387 342 m 1,89,-1
 429 344 l 2,90,91
 438 344 438 344 454 346 c 0,92,93
 488 349 488 349 510 354 c 2,94,-1
 521 356 l 1,95,96
 557 378 557 378 571.5 409 c 128,-1,97
 586 440 586 440 586 462 c 0,98,99
 586 543 586 543 504 589 c 0,100,101
 472 607 472 607 440.5 613.5 c 128,-1,102
 409 620 409 620 400.5 620 c 128,-1,103
 392 620 392 620 392 619 c 1,104,-1
 372 619 l 1,105,106
 372 578 372 578 377 513 c 0,107,108
 387 383 387 383 387 342 c 1,89,-1
EndSplineSet
EndChar

StartChar: C
Encoding: 67 67 10
Width: 647
Flags: W
HStem: -50 56<315.338 503.102> 293 45<18.4238 64.7809>
LayerCount: 2
Fore
SplineSet
327 6 m 2,0,-1
 376 5 l 1,1,2
 466 5 466 5 519 35 c 0,3,4
 566 62 566 62 573 92 c 0,5,6
 581 125 581 125 590 135 c 128,-1,7
 599 145 599 145 608 145 c 128,-1,8
 617 145 617 145 624.5 139.5 c 128,-1,9
 632 134 632 134 632 119.5 c 128,-1,10
 632 105 632 105 623.5 83 c 0,11,12
 616 62 616 62 602 42 c 0,13,14
 573 0 573 0 534 -18 c 0,15,16
 466 -50 466 -50 374 -50 c 0,17,18
 258 -50 258 -50 184 14 c 0,19,20
 87 99 87 99 75 293 c 1,21,-1
 25 293 l 2,22,23
 17 293 17 293 17 305 c 128,-1,24
 17 317 17 317 22 323 c 128,-1,25
 27 329 27 329 34 332.5 c 128,-1,26
 41 336 41 336 49.5 338 c 128,-1,27
 58 340 58 340 65 342 c 1,28,29
 72 436 72 436 102 512 c 0,30,31
 126 573 126 573 149.5 593.5 c 128,-1,32
 173 614 173 614 207 630.5 c 0,33,34
 240 647 240 647 276 658 c 0,35,36
 344 679 344 679 408 679 c 1,37,-1
 521 653 l 1,38,39
 527 664 527 664 539.5 671 c 128,-1,40
 552 678 552 678 569 678 c 0,41,42
 596 678 596 678 596 631 c 1,43,-1
 565 497 l 2,44,45
 565 495 565 495 548 491 c 1,46,47
 528 491 528 491 521 504 c 1,48,49
 482 614 482 614 416 626 c 0,50,51
 399 629 399 629 386 629 c 0,52,53
 324 629 324 629 324 583 c 0,54,55
 324 577 324 577 325 573 c 1,56,-1
 326 576 l 1,57,58
 326 572 326 572 326 558 c 2,59,-1
 326 454 l 2,60,61
 326 234 326 234 320 142.5 c 128,-1,62
 314 51 314 51 314 28.5 c 128,-1,63
 314 6 314 6 327 6 c 2,0,-1
EndSplineSet
EndChar

StartChar: D
Encoding: 68 68 12
Width: 762
Flags: W
HStem: -38 40<357.199 507.604> -17 37<59.0154 160.148> 651 43<362.374 501.969>
VStem: 152 199.5<122.938 305.48 344.379 633.275> 161 186<20.0486 293.047> 672 49<177.582 447.069>
LayerCount: 2
Fore
SplineSet
355 627 m 1,0,-1
 356 617 l 1,1,2
 356 483 356 483 351.5 340.5 c 128,-1,3
 347 198 347 198 347 120.5 c 128,-1,4
 347 43 347 43 350.5 31 c 0,5,6
 354 18 354 18 360 12 c 0,7,8
 370 2 370 2 403 2 c 0,9,10
 530 2 530 2 604 95 c 0,11,12
 672 181 672 181 672 308 c 0,13,14
 672 363 672 363 657 423.5 c 128,-1,15
 642 484 642 484 609 534.5 c 128,-1,16
 576 585 576 585 524 618 c 128,-1,17
 472 651 472 651 399 651 c 0,18,19
 382 651 382 651 368.5 647 c 128,-1,20
 355 643 355 643 355 627 c 1,0,-1
127 689 m 1,21,22
 167 674 167 674 219.5 674 c 128,-1,23
 272 674 272 674 295.5 677 c 128,-1,24
 319 680 319 680 337 684 c 0,25,26
 382 694 382 694 409 694 c 0,27,28
 467 694 467 694 523 667 c 128,-1,29
 579 640 579 640 623 589.5 c 128,-1,30
 667 539 667 539 694 467 c 128,-1,31
 721 395 721 395 721 309 c 128,-1,32
 721 223 721 223 696 158.5 c 0,33,34
 672 94 672 94 626 50 c 0,35,36
 533 -38 533 -38 372 -38 c 1,37,38
 340 -38 340 -38 309 -34.5 c 0,39,40
 278 -32 278 -32 246 -28 c 0,41,42
 150 -18 150 -18 124 -17 c 2,43,-1
 88 -17 l 2,44,45
 78 -17 78 -17 66 -18 c 1,46,47
 59 -11 59 -11 59 2.5 c 128,-1,48
 59 16 59 16 64.5 18 c 128,-1,49
 70 20 70 20 93 20 c 2,50,-1
 154 20 l 2,51,52
 161 20 161 20 161 30 c 0,53,54
 161 80 161 80 155.5 172 c 128,-1,55
 150 264 150 264 149 294 c 1,56,57
 138 302 138 302 125 308 c 128,-1,58
 112 314 112 314 98 321 c 1,59,60
 140 345 140 345 152 373 c 1,61,-1
 152 393 l 1,62,63
 150 411 150 411 147.5 449 c 128,-1,64
 145 487 145 487 142.5 513.5 c 128,-1,65
 140 540 140 540 138 564 c 0,66,67
 135 611 135 611 133 634 c 1,68,69
 131 641 131 641 117 641 c 128,-1,70
 103 641 103 641 90.5 636.5 c 128,-1,71
 78 632 78 632 67.5 624.5 c 128,-1,72
 57 617 57 617 47.5 608 c 128,-1,73
 38 599 38 599 28 590 c 1,74,75
 15 590 15 590 5.5 593.5 c 128,-1,76
 -4 597 -4 597 -4 611 c 2,77,-1
 -4 621 l 1,78,79
 24 656 24 656 54.5 671 c 128,-1,80
 85 686 85 686 127 689 c 1,21,22
EndSplineSet
EndChar

StartChar: E
Encoding: 69 69 13
Width: 633
Flags: W
HStem: -13.5 37.5<38.0308 137> -10 42<306 563.844> 306 85<362.162 438.167> 311 40.5<92.1566 125.842> 600 78<514.106 563.645> 602 51<32.7062 124.338> 602 44<310.736 544.854>
VStem: 126 168.5<35.4473 312.469 362 595.281> 137 161.5<34.1875 295.751>
LayerCount: 2
Fore
SplineSet
527 -9 m 2,0,-1
 496 -10 l 1,1,-1
 470 -10 l 2,2,3
 400 -10 400 -10 190 -15 c 1,4,-1
 160 -16 l 2,5,6
 153 -16 153 -16 121.5 -16 c 128,-1,7
 90 -16 90 -16 64 -13.5 c 128,-1,8
 38 -11 38 -11 38 4 c 128,-1,9
 38 19 38 19 52 24 c 1,10,-1
 137 22 l 1,11,12
 137 94 137 94 131.5 160 c 128,-1,13
 126 226 126 226 126 298 c 1,14,15
 121 307 121 307 108.5 311 c 128,-1,16
 96 315 96 315 91.5 319.5 c 128,-1,17
 87 324 87 324 87 335 c 256,18,19
 87 346 87 346 92 348.5 c 128,-1,20
 97 351 97 351 103.5 351.5 c 128,-1,21
 110 352 110 352 116.5 353 c 128,-1,22
 123 354 123 354 126 361 c 1,23,-1
 126 375 l 1,24,-1
 127 420 l 1,25,-1
 127 435 l 1,26,-1
 128 518 l 2,27,28
 128 549 128 549 122 603 c 1,29,30
 118 602 118 602 104 602 c 0,31,32
 76 602 76 602 57 602 c 128,-1,33
 38 602 38 602 33 602 c 0,34,35
 26 603 26 603 26 611 c 0,36,37
 26 634 26 634 32.5 643.5 c 128,-1,38
 39 653 39 653 58 653 c 2,39,-1
 178 654 l 2,40,41
 230 654 230 654 282 650 c 128,-1,42
 334 646 334 646 379.5 646 c 128,-1,43
 425 646 425 646 463.5 648 c 128,-1,44
 502 650 502 650 538 664 c 0,45,46
 546 668 546 668 551.5 673 c 128,-1,47
 557 678 557 678 564 678 c 256,48,49
 571 678 571 678 577 672.5 c 128,-1,50
 583 667 583 667 583 659 c 1,51,-1
 582 655 l 1,52,-1
 582 653 l 1,53,54
 572 636 572 636 566 625.5 c 0,55,56
 560 616 560 616 556 610 c 0,57,58
 548 600 548 600 538.5 600 c 128,-1,59
 529 600 529 600 474 602 c 0,60,61
 458 603 458 603 438 603 c 0,62,63
 388 603 388 603 311 599 c 1,64,65
 300 480 300 480 300 362 c 1,66,67
 344 362 344 362 368.5 372 c 128,-1,68
 393 382 393 382 404 386.5 c 128,-1,69
 415 391 415 391 426 391 c 256,70,71
 437 391 437 391 443 384 c 128,-1,72
 449 377 449 377 449 354 c 128,-1,73
 449 331 449 331 438.5 318.5 c 128,-1,74
 428 306 428 306 397.5 306 c 128,-1,75
 367 306 367 306 362 325 c 1,76,-1
 300 321 l 1,77,-1
 299 308 l 2,78,79
 294 242 294 242 294 226 c 2,80,-1
 294 198 l 2,81,82
 294 186 294 186 294.5 167.5 c 128,-1,83
 295 149 295 149 295.5 128.5 c 128,-1,84
 296 108 296 108 297 90 c 128,-1,85
 298 72 298 72 298.5 59.5 c 128,-1,86
 299 47 299 47 300 46 c 2,87,-1
 306 34 l 1,88,-1
 356 33 l 1,89,-1
 420 32 l 1,90,91
 546 32 546 32 584 65 c 0,92,93
 591 71 591 71 596 71 c 0,94,95
 632 71 632 71 632 37 c 1,96,-1
 630 23 l 2,97,98
 628 10 628 10 626 10 c 1,99,-1
 613 -3 l 1,100,-1
 603 -4 l 2,101,102
 553 -9 553 -9 527 -9 c 2,0,-1
EndSplineSet
EndChar

StartChar: Eth
Encoding: 208 208 18
Width: 783
Flags: W
HStem: 5 67<56.625 138> 293 76<34.5278 151> 325 60<365.009 459.354> 598 49<383.572 579.457>
VStem: 153 214<385 584.279> 707 30<362.486 478.999>
LayerCount: 2
Fore
SplineSet
183 1 m 1,0,-1
 50 5 l 1,1,-1
 36 21 l 1,2,3
 55 72 55 72 138 72 c 1,4,-1
 153 241 l 1,5,-1
 151 293 l 1,6,-1
 50 293 l 2,7,8
 48 293 48 293 42.5 299 c 128,-1,9
 37 305 37 305 35.5 310.5 c 128,-1,10
 34 316 34 316 33 326 c 0,11,12
 31 351 31 351 29 369 c 1,13,-1
 153 369 l 1,14,-1
 153 614 l 1,15,16
 144 616 144 616 120.5 638 c 128,-1,17
 97 660 97 660 94 664.5 c 128,-1,18
 91 669 91 669 87.5 683 c 128,-1,19
 84 697 84 697 84 702 c 1,20,-1
 109 699 l 2,21,22
 111 698 111 698 119.5 692.5 c 128,-1,23
 128 687 128 687 138 681 c 0,24,25
 155 670 155 670 167 664 c 0,26,27
 168 664 168 664 174 665 c 128,-1,28
 180 666 180 666 182.5 664 c 128,-1,29
 185 662 185 662 196 656 c 128,-1,30
 207 650 207 650 211 647 c 1,31,-1
 517 647 l 2,32,33
 563 647 563 647 634 597 c 0,34,35
 640 592 640 592 654.5 580.5 c 128,-1,36
 669 569 669 569 685.5 555.5 c 128,-1,37
 702 542 702 542 716 529.5 c 128,-1,38
 730 517 730 517 736 512 c 1,39,-1
 737 470 l 1,40,-1
 737 428 l 2,41,42
 738 406 738 406 738 389 c 0,43,44
 738 383 738 383 738 378 c 0,45,46
 738 367 738 367 737 357 c 0,47,48
 735 324 735 324 721 293 c 0,49,50
 721 291 721 291 714.5 284.5 c 128,-1,51
 708 278 708 278 706.5 276 c 128,-1,52
 705 274 705 274 706.5 267 c 128,-1,53
 708 260 708 260 706.5 256.5 c 128,-1,54
 705 253 705 253 701 243 c 128,-1,55
 697 233 697 233 692.5 222 c 128,-1,56
 688 211 688 211 684 202 c 2,57,-1
 678 191 l 1,58,59
 657 158 657 158 639 133 c 128,-1,60
 621 108 621 108 619 106 c 256,61,62
 609 96 609 96 503 38 c 1,63,64
 427 -1 427 -1 296 -1 c 0,65,66
 278 0 278 0 260 0 c 0,67,68
 220 2 220 2 183 1 c 1,0,-1
451.5 333 m 128,-1,70
 446 327 446 327 440 326 c 128,-1,71
 434 325 434 325 400.5 325 c 128,-1,72
 367 325 367 325 357 327 c 1,73,-1
 342 90 l 1,74,-1
 357 54 l 1,75,-1
 372 58 l 2,76,77
 387 62 387 62 408 68 c 0,78,79
 466 83 466 83 488 90 c 1,80,81
 532 102 532 102 570 134 c 0,82,83
 644 196 644 196 681 320 c 0,84,85
 687 340 687 340 690 353.5 c 128,-1,86
 693 367 693 367 696 378 c 128,-1,87
 699 389 699 389 701 399.5 c 128,-1,88
 703 410 703 410 705 418.5 c 128,-1,89
 707 427 707 427 707 429 c 128,-1,90
 707 431 707 431 705 438.5 c 128,-1,91
 703 446 703 446 701 454 c 128,-1,92
 699 462 699 462 696 469 c 128,-1,93
 693 476 693 476 692 479 c 0,94,95
 633 574 633 574 526 592 c 0,96,97
 492 598 492 598 474 598 c 2,98,-1
 448 598 l 1,99,-1
 412 597 l 1,100,-1
 400 597 l 1,101,102
 391 589 391 589 381.5 573 c 128,-1,103
 372 557 372 557 370.5 542.5 c 128,-1,104
 369 528 369 528 368.5 500.5 c 128,-1,105
 368 473 368 473 367 445 c 128,-1,106
 366 417 366 417 365 385 c 1,107,-1
 454 385 l 1,108,109
 456 377 456 377 458 369.5 c 128,-1,110
 460 362 460 362 460 355 c 128,-1,111
 460 348 460 348 458.5 343.5 c 128,-1,69
 457 339 457 339 451.5 333 c 128,-1,70
EndSplineSet
EndChar

StartChar: Euro
Encoding: 8364 8364 19
Width: 721
Flags: W
HStem: 6 36<363.165 524.843> 226 41<29.249 140> 341 44<41.0647 140> 375 40<346.343 477.873> 628 49<428.938 607.109>
VStem: 637 31<141.447 171.42>
LayerCount: 2
Fore
SplineSet
400 5 m 1,0,-1
 368 6 l 1,1,-1
 357 6 l 1,2,3
 355 8 355 8 348 12.5 c 128,-1,4
 341 17 341 17 325 25.5 c 128,-1,5
 309 34 309 34 276 53.5 c 0,6,7
 243 72 243 72 215 98 c 0,8,9
 150 158 150 158 146 226 c 1,10,-1
 41 226 l 2,11,12
 37 226 37 226 29 242 c 1,13,14
 29 267 29 267 47 267 c 2,15,-1
 140 267 l 1,16,-1
 140 341 l 1,17,-1
 54 341 l 2,18,19
 43 341 43 341 41 345.5 c 128,-1,20
 39 350 39 350 39 356 c 0,21,22
 39 385 39 385 117 385 c 2,23,-1
 153 385 l 1,24,25
 182 518 182 518 272 596 c 0,26,27
 366 678 366 678 495 677 c 0,28,29
 600 677 600 677 656 632 c 0,30,31
 678 614 678 614 678.5 588.5 c 128,-1,32
 679 563 679 563 654 563 c 2,33,-1
 649 563 l 2,34,35
 648 563 648 563 640.5 574.5 c 128,-1,36
 633 586 633 586 617.5 599 c 128,-1,37
 602 612 602 612 584 618 c 0,38,39
 558 628 558 628 503 628 c 1,40,-1
 450 626 l 1,41,42
 404 594 404 594 374 530 c 0,43,44
 346 470 346 470 346 411 c 1,45,-1
 460 415 l 2,46,47
 474 415 474 415 478 410.5 c 128,-1,48
 482 406 482 406 482 396 c 0,49,50
 482 380 482 380 458.5 375 c 128,-1,51
 435 370 435 370 407 368.5 c 128,-1,52
 379 367 379 367 355.5 365 c 128,-1,53
 332 363 332 363 332 354 c 2,54,-1
 332 292 l 1,55,-1
 338 291 l 1,56,57
 346 293 346 293 375.5 296.5 c 128,-1,58
 405 300 405 300 419.5 302 c 128,-1,59
 434 304 434 304 442 304 c 128,-1,60
 450 304 450 304 460 302.5 c 128,-1,61
 470 301 470 301 470 289 c 256,62,63
 470 277 470 277 460 269.5 c 128,-1,64
 450 262 450 262 437 261 c 1,65,-1
 320 242 l 1,66,-1
 313 229 l 1,67,-1
 363 56 l 1,68,69
 368 42 368 42 407 42 c 128,-1,70
 446 42 446 42 481.5 48 c 0,71,72
 516 54 516 54 546 69 c 0,73,74
 609 101 609 101 637 173 c 1,75,-1
 648 174 l 2,76,77
 659 174 659 174 663.5 171.5 c 128,-1,78
 668 169 668 169 668 158 c 256,79,80
 668 142 668 142 646.5 114 c 128,-1,81
 625 86 625 86 600.5 62.5 c 0,82,83
 576 38 576 38 549 26 c 0,84,85
 503 4 503 4 410 5 c 2,86,-1
 400 5 l 1,0,-1
EndSplineSet
EndChar

StartChar: F
Encoding: 70 70 20
Width: 673
Flags: W
HStem: -25 56<52.5581 134.387 336.033 390.303> -18 49<119.053 134.387 336.033 447.402> 286 50<91.8309 137> 311 37<336 434.951> 403 20G<466.5 484.5> 621 30<363.895 403.474> 627 50<20.549 88.5385> 669 20G<457.973 664>
VStem: 138 191<41.8302 286> 145 184<349.784 595.158> 451.5 45.5<359.875 422.792>
LayerCount: 2
Fore
SplineSet
398 -18 m 1,0,1
 150 -25 150 -25 118 -25 c 128,-1,2
 86 -25 86 -25 68 -23 c 128,-1,3
 50 -21 50 -21 50 -3 c 0,4,5
 50 31 50 31 112 31 c 0,6,7
 131 31 131 31 134.5 41.5 c 128,-1,8
 138 52 138 52 138 71 c 1,9,-1
 131 174 l 1,10,-1
 137 286 l 1,11,-1
 124 286 l 2,12,13
 102 286 102 286 91.5 293.5 c 128,-1,14
 81 301 81 301 81 311 c 0,15,16
 81 336 81 336 137 336 c 1,17,18
 145 368 145 368 145 419 c 2,19,-1
 145 488 l 1,20,-1
 144 562 l 1,21,-1
 144 589 l 1,22,-1
 137 614 l 1,23,-1
 32 627 l 2,24,25
 22 629 22 629 20.5 637 c 128,-1,26
 19 645 19 645 19 652.5 c 128,-1,27
 19 660 19 660 20.5 666.5 c 128,-1,28
 22 673 22 673 32 677 c 1,29,30
 83 677 83 677 148 668 c 0,31,32
 270 651 270 651 298 651 c 0,33,34
 323 651 323 651 347 651 c 1,35,-1
 367 652 l 1,36,-1
 565 689 l 1,37,-1
 658 689 l 1,38,-1
 664 677 l 1,39,-1
 667 586 l 2,40,41
 667 561 667 561 660 540.5 c 128,-1,42
 653 520 653 520 629 520 c 2,43,-1
 620 520 l 2,44,45
 617 520 617 520 615 521 c 2,46,-1
 521 621 l 1,47,-1
 510 621 l 2,48,49
 437 621 437 621 387 611 c 128,-1,50
 337 601 337 601 336 596 c 0,51,52
 333 569 333 569 332 548.5 c 128,-1,53
 331 528 331 528 330 508.5 c 0,54,55
 329 490 329 490 329 470 c 2,56,-1
 329 361 l 1,57,58
 343 348 343 348 365 348 c 0,59,60
 366 348 366 348 367 348 c 0,61,62
 390 348 390 348 400 352 c 0,63,64
 427 358 427 358 435.5 361.5 c 128,-1,65
 444 365 444 365 446.5 375 c 128,-1,66
 449 385 449 385 451.5 395.5 c 128,-1,67
 454 406 454 406 457.5 414.5 c 128,-1,68
 461 423 461 423 472 423 c 0,69,70
 497 423 497 423 497 379 c 0,71,72
 497 345 497 345 489.5 311 c 128,-1,73
 482 277 482 277 474 260 c 128,-1,74
 466 243 466 243 454 243 c 1,75,-1
 444 247 l 2,76,77
 435 251 435 251 435 254 c 2,78,-1
 435 311 l 1,79,-1
 336 311 l 1,80,-1
 329 298 l 1,81,-1
 329 235 l 2,82,83
 329 108 329 108 336 31 c 0,84,85
 337 25 337 25 347 25 c 2,86,-1
 420 31 l 1,87,88
 448 31 448 31 448 9 c 0,89,90
 448 -18 448 -18 398 -18 c 1,0,1
EndSplineSet
EndChar

StartChar: G
Encoding: 71 71 21
Width: 793
Flags: W
HStem: -63 42<384.226 497.191> 232 53<482.078 550.027> 302 31<2.09485 53.9014> 506 186<610.574 676.734> 643 49<361.195 465.8>
VStem: 595 105<78.6709 178.204>
LayerCount: 2
Fore
SplineSet
562 285 m 1,0,-1
 649 281 l 1,1,2
 681 281 681 281 713.5 292.5 c 128,-1,3
 746 304 746 304 766 328 c 1,4,5
 776 328 776 328 784.5 322.5 c 128,-1,6
 793 317 793 317 793 300.5 c 128,-1,7
 793 284 793 284 782 275 c 128,-1,8
 771 266 771 266 757 261.5 c 128,-1,9
 743 257 743 257 729.5 253.5 c 128,-1,10
 716 250 716 250 710.5 238.5 c 128,-1,11
 705 227 705 227 703.5 213.5 c 128,-1,12
 702 200 702 200 701 186 c 128,-1,13
 700 172 700 172 700 159 c 128,-1,14
 700 146 700 146 697 136 c 0,15,16
 654 -63 654 -63 404 -63 c 1,17,18
 276 -62 276 -62 186 30 c 0,19,20
 92 126 92 126 62 302 c 1,21,-1
 8 302 l 2,22,23
 1 302 1 302 1 319 c 257,24,-1
 2 329 l 1,25,26
 5 330 5 330 12.5 333 c 128,-1,27
 20 336 20 336 28 339 c 0,28,29
 51 347 51 347 54 348.5 c 128,-1,30
 57 350 57 350 61.5 368 c 128,-1,31
 66 386 66 386 71 409 c 0,32,33
 83 462 83 462 90 487 c 1,34,35
 124 580 124 580 201 636 c 128,-1,36
 278 692 278 692 373 692 c 0,37,38
 402 692 402 692 448 681.5 c 128,-1,39
 494 671 494 671 518.5 666 c 128,-1,40
 543 661 543 661 566.5 661 c 128,-1,41
 590 661 590 661 601.5 666 c 128,-1,42
 613 671 613 671 620.5 676.5 c 128,-1,43
 628 682 628 682 635 687 c 128,-1,44
 642 692 642 692 649 692 c 128,-1,45
 656 692 656 692 660 688 c 2,46,-1
 677 671 l 1,47,-1
 677 527 l 2,48,49
 677 516 677 516 667 511 c 128,-1,50
 657 506 657 506 649 506 c 1,51,52
 614 522 614 522 582 545.5 c 128,-1,53
 550 569 550 569 517.5 591 c 128,-1,54
 485 613 485 613 451 628.5 c 128,-1,55
 417 644 417 644 377 644 c 1,56,-1
 363 643 l 1,57,58
 343 473 343 473 343 387 c 0,59,60
 343 233 343 233 363 129 c 0,61,62
 364 124 364 124 367 103 c 128,-1,63
 370 82 370 82 374 58 c 0,64,65
 383 -5 383 -5 384 -6 c 0,66,67
 391 -17 391 -17 401 -19 c 128,-1,68
 411 -21 411 -21 418 -21 c 128,-1,69
 425 -21 425 -21 438.5 -17.5 c 128,-1,70
 452 -14 452 -14 469 -9 c 0,71,72
 510 3 510 3 534 13 c 1,73,74
 559 30 559 30 577 55 c 128,-1,75
 595 80 595 80 595 104 c 128,-1,76
 595 128 595 128 590 143.5 c 128,-1,77
 585 159 585 159 576.5 173 c 128,-1,78
 568 187 568 187 557 201 c 128,-1,79
 546 215 546 215 534 232 c 1,80,81
 522 232 522 232 497 218 c 128,-1,82
 472 204 472 204 465 204 c 128,-1,83
 458 204 458 204 447.5 214 c 128,-1,84
 437 224 437 224 437 237 c 128,-1,85
 437 250 437 250 452 260 c 128,-1,86
 467 270 467 270 487 276 c 0,87,88
 522 286 522 286 562 285 c 1,0,-1
EndSplineSet
EndChar

StartChar: H
Encoding: 72 72 22
Width: 901
Flags: W
HStem: -18 48<363.562 429.595 747.251 821.268> -6 46<41.5797 170.794 616.475 696.686> 335 49<369.383 501.6> 433 20G<867.5 874.5> 577 48<37.2847 116.844> 609 49<367.344 435.749 587.624 701.257 754.126 832.307> 617 41<786.377 833.789>
VStem: 172 190<40.6025 285.974> 704 37.5<44.8459 285 350 606.983>
LayerCount: 2
Fore
SplineSet
167 -7 m 1,0,-1
 100 -8 l 2,1,2
 75 -8 75 -8 53 -6 c 1,3,4
 44 -2 44 -2 41.5 1.5 c 128,-1,5
 39 5 39 5 39 12 c 2,6,-1
 41 26 l 2,7,8
 44 40 44 40 46 40 c 2,9,-1
 172 40 l 1,10,-1
 178 181 l 1,11,12
 178 286 178 286 154 286 c 0,13,14
 135 286 135 286 118.5 276 c 128,-1,15
 102 266 102 266 88 266 c 0,16,17
 64 266 64 266 64 287 c 0,18,19
 64 293 64 293 64.5 297 c 128,-1,20
 65 301 65 301 71 304 c 2,21,-1
 158 341 l 1,22,-1
 158 378 l 1,23,-1
 121 577 l 1,24,-1
 46 577 l 1,25,26
 34 605 34 605 34 610 c 0,27,28
 34 623 34 623 48 625 c 128,-1,29
 62 627 62 627 80 627 c 2,30,-1
 108 626 l 1,31,32
 112 637 112 637 117 641.5 c 128,-1,33
 122 646 122 646 133 646 c 256,34,35
 144 646 144 646 151.5 641.5 c 128,-1,36
 159 637 159 637 194.5 637 c 128,-1,37
 230 637 230 637 290 647.5 c 128,-1,38
 350 658 350 658 411 658 c 0,39,40
 444 658 444 658 444 635 c 0,41,42
 444 618 444 618 436 613.5 c 128,-1,43
 428 609 428 609 417 609 c 2,44,-1
 392 610 l 2,45,46
 378 610 378 610 367 603.5 c 128,-1,47
 356 597 356 597 356 576.5 c 128,-1,48
 356 556 356 556 357 545 c 128,-1,49
 358 534 358 534 360 522 c 0,50,51
 364 494 364 494 363 455 c 2,52,-1
 362 396 l 1,53,-1
 369 384 l 1,54,-1
 474 384 l 1,55,-1
 704 337 l 1,56,-1
 704 577 l 2,57,58
 704 581 704 581 700 590 c 0,59,60
 692 607 692 607 685 607 c 2,61,-1
 586 607 l 2,62,63
 579 607 579 607 579 622 c 0,64,65
 579 657 579 657 736 657 c 0,66,67
 762 657 762 657 780 658 c 0,68,69
 792 659 792 659 801 659 c 0,70,71
 806 658 806 658 810 658 c 0,72,73
 834 657 834 657 834 641 c 0,74,75
 834 622 834 622 816.5 617 c 0,76,77
 798 612 798 612 786 612 c 2,78,-1
 766 612 l 2,79,80
 758 612 758 612 754 613 c 1,81,-1
 747 607 l 1,82,-1
 741 350 l 1,83,84
 751 350 751 350 754.5 348 c 128,-1,85
 758 346 758 346 761 346 c 256,86,87
 764 346 764 346 799 383 c 0,88,89
 864 453 864 453 871 453 c 128,-1,90
 878 453 878 453 884 447 c 128,-1,91
 890 441 890 441 890 426.5 c 128,-1,92
 890 412 890 412 873 389.5 c 0,93,94
 856 368 856 368 832 348 c 0,95,96
 788 312 788 312 741 291 c 1,97,98
 741 258 741 258 741.5 228.5 c 0,99,100
 742 200 742 200 742 170 c 0,101,102
 743 102 743 102 747 43 c 1,103,104
 755 39 755 39 767.5 36.5 c 128,-1,105
 780 34 780 34 792 30 c 0,106,107
 822 21 822 21 822 3 c 0,108,109
 822 -20 822 -20 788 -20 c 128,-1,110
 754 -20 754 -20 717 -12.5 c 128,-1,111
 680 -5 680 -5 642 -5 c 1,112,-1
 623 -6 l 1,113,114
 616 -5 616 -5 616 13 c 0,115,116
 616 45 616 45 670 45 c 0,117,118
 687 45 687 45 697 43 c 1,119,-1
 704 74 l 1,120,-1
 704 285 l 1,121,-1
 474 335 l 1,122,-1
 425 336 l 2,123,124
 381 336 381 336 369 316 c 1,125,-1
 362 114 l 1,126,-1
 362 93 l 2,127,128
 362 37 362 37 369 30 c 1,129,-1
 400 30 l 2,130,131
 470 30 470 30 469 3 c 0,132,133
 469 -12 469 -12 430 -25 c 1,134,135
 417 -25 417 -25 408.5 -21.5 c 128,-1,136
 400 -18 400 -18 389 -18 c 128,-1,137
 378 -18 378 -18 372 -20 c 128,-1,138
 366 -22 366 -22 361 -25 c 0,139,140
 349 -32 349 -32 341 -32 c 2,141,-1
 339 -32 l 2,142,143
 338 -32 338 -32 337 -31 c 0,144,145
 289 -7 289 -7 167 -7 c 1,0,-1
EndSplineSet
EndChar

StartChar: I
Encoding: 73 73 23
Width: 454
Flags: W
HStem: -36 43<330 388.556> -28 43<48.4382 132.841 327.124 376.75> 634 52<26.517 125.782 nan 402 nan 412.683>
VStem: 129.5 198.5<488.641 626.03> 136 187.5<17.2261 287 338.126 626.03>
LayerCount: 2
Fore
SplineSet
324 -34 m 1,0,-1
 274 -36 l 1,1,-1
 255 -36 l 2,2,3
 226 -36 226 -36 210 -34 c 0,4,5
 173 -28 173 -28 152 -28 c 2,6,-1
 68 -28 l 2,7,8
 51 -28 51 -28 43.5 -23 c 128,-1,9
 36 -18 36 -18 35 -2 c 128,-1,10
 34 14 34 14 48 16 c 128,-1,11
 62 18 62 18 79 16.5 c 128,-1,12
 96 15 96 15 112 15 c 128,-1,13
 128 15 128 15 133 24 c 1,14,-1
 135 164 l 1,15,-1
 137 272 l 258,16,17
 137 283 137 283 136 287 c 1,18,19
 130 285 130 285 123 285 c 128,-1,20
 116 285 116 285 107 297.5 c 128,-1,21
 98 310 98 310 98 320 c 128,-1,22
 98 330 98 330 104 333.5 c 128,-1,23
 110 337 110 337 117 339 c 128,-1,24
 124 341 124 341 130 343 c 128,-1,25
 136 345 136 345 136 350 c 0,26,27
 133 380 133 380 132.5 415.5 c 128,-1,28
 132 451 132 451 131 487.5 c 128,-1,29
 130 524 130 524 129.5 560 c 128,-1,30
 129 596 129 596 126 627 c 1,31,32
 119 634 119 634 117 634 c 2,33,-1
 79 634 l 2,34,35
 66 634 66 634 53 634.5 c 128,-1,36
 40 635 40 635 33 643.5 c 128,-1,37
 26 652 26 652 26 660 c 128,-1,38
 26 668 26 668 26.5 672 c 128,-1,39
 27 676 27 676 33 679 c 1,40,-1
 132 684 l 1,41,42
 150 682 150 682 167 682 c 2,43,-1
 345 686 l 1,44,-1
 359 686 l 1,45,-1
 402 685 l 1,46,-1
 416 685 l 1,47,48
 423 682 423 682 423 664.5 c 128,-1,49
 423 647 423 647 413 640.5 c 128,-1,50
 403 634 403 634 376 634 c 1,51,-1
 328 636 l 1,52,53
 328 540 328 540 323.5 440 c 128,-1,54
 319 340 319 340 319 217.5 c 128,-1,55
 319 95 319 95 330 12 c 1,56,-1
 398 7 l 1,57,58
 419 7 419 7 420 -16 c 1,59,60
 416 -25 416 -25 407 -27 c 1,61,-1
 324 -34 l 1,0,-1
EndSplineSet
EndChar

StartChar: J
Encoding: 74 74 28
Width: 636
Flags: W
HStem: -95 50<153.976 281.808> 434 47<139.985 219.715>
VStem: 18 158<24.5811 140.228> 70 54<495.691 585.187> 323 240<226.578 627>
LayerCount: 2
Fore
SplineSet
411 670 m 2,0,-1
 520 676 l 1,1,2
 546 676 546 676 554.5 648 c 128,-1,3
 563 620 563 620 563 586 c 2,4,-1
 563 508 l 2,5,6
 563 324 563 324 540 220 c 128,-1,7
 517 116 517 116 481.5 56 c 128,-1,8
 446 -4 446 -4 402 -38 c 0,9,10
 327 -96 327 -96 209 -95 c 0,11,12
 18 -95 18 -95 18 109 c 0,13,14
 18 170 18 170 34 192 c 0,15,16
 42 204 42 204 55.5 204 c 128,-1,17
 69 204 69 204 77.5 199.5 c 128,-1,18
 86 195 86 195 94 188 c 128,-1,19
 102 181 102 181 111 172 c 128,-1,20
 120 163 120 163 131.5 154.5 c 128,-1,21
 143 146 143 146 152 142 c 128,-1,22
 161 138 161 138 166 135 c 0,23,24
 176 129 176 129 176 115 c 128,-1,25
 176 101 176 101 172.5 84.5 c 128,-1,26
 169 68 169 68 164.5 53 c 128,-1,27
 160 38 160 38 155.5 26.5 c 128,-1,28
 151 15 151 15 150.5 10 c 128,-1,29
 150 5 150 5 150.5 -4.5 c 0,30,31
 150 -14 150 -14 152 -23 c 0,32,33
 156 -45 156 -45 173 -45 c 0,34,35
 258 -45 258 -45 298 -13 c 1,36,37
 311 40 311 40 311 128 c 128,-1,38
 311 216 311 216 313.5 279.5 c 128,-1,39
 316 343 316 343 318 395.5 c 128,-1,40
 320 448 320 448 322 496.5 c 128,-1,41
 324 545 324 545 324 605 c 1,42,-1
 323 619 l 1,43,-1
 323 627 l 1,44,-1
 298 633 l 1,45,-1
 199 621 l 1,46,47
 174 617 174 617 156 597 c 0,48,49
 124 562 124 562 124 534 c 128,-1,50
 124 506 124 506 139.5 497 c 128,-1,51
 155 488 155 488 174 485.5 c 128,-1,52
 193 483 193 483 208.5 481 c 128,-1,53
 224 479 224 479 224 468 c 0,54,55
 224 454 224 454 204.5 444 c 128,-1,56
 185 434 185 434 165.5 434 c 128,-1,57
 146 434 146 434 129 445 c 128,-1,58
 112 456 112 456 98 472 c 0,59,60
 70 505 70 505 70 533 c 0,61,62
 70 565 70 565 104 609 c 0,63,64
 136 650 136 650 202 671 c 0,65,66
 238 682 238 682 273.5 682 c 128,-1,67
 309 682 309 682 324.5 680 c 128,-1,68
 340 678 340 678 353.5 676 c 128,-1,69
 367 674 367 674 380 672 c 128,-1,70
 393 670 393 670 411 670 c 2,0,-1
EndSplineSet
EndChar

StartChar: K
Encoding: 75 75 29
Width: 826
Flags: W
HStem: -17 52.5<607.197 667.998> 2 58<418 461.5> 2 43<66.3141 144.656> 288 46<99.3149 129> 638.5 37.5<387.125 453.731>
VStem: 129 241<334 615.986> 140.5 230<53.1777 226.966>
LayerCount: 2
Fore
SplineSet
635 -17 m 1,0,1
 605 -17 605 -17 605 0 c 128,-1,2
 605 17 605 17 615 24.5 c 128,-1,3
 625 32 625 32 636.5 35.5 c 128,-1,4
 648 39 648 39 658 41.5 c 128,-1,5
 668 44 668 44 668 52.5 c 128,-1,6
 668 61 668 61 664 63.5 c 128,-1,7
 660 66 660 66 646.5 82 c 128,-1,8
 633 98 633 98 611 129.5 c 0,9,10
 590 161 590 161 564 190 c 0,11,12
 502 260 502 260 446 260 c 128,-1,13
 390 260 390 260 371 228 c 1,14,15
 367 195 367 195 367 150.5 c 128,-1,16
 367 106 367 106 370.5 85.5 c 128,-1,17
 374 65 374 65 386 46 c 1,18,-1
 450 60 l 2,19,20
 453 60 453 60 459.5 51 c 128,-1,21
 466 42 466 42 466 34.5 c 128,-1,22
 466 27 466 27 458 20.5 c 128,-1,23
 450 14 450 14 439 10 c 0,24,25
 421 2 421 2 400 2 c 2,26,-1
 59 2 l 1,27,28
 58 26 58 26 66 33 c 0,29,30
 76 42 76 42 92.5 45 c 128,-1,31
 109 48 109 48 121.5 54.5 c 128,-1,32
 134 61 134 61 145 62 c 1,33,-1
 146 93 l 1,34,35
 146 143 146 143 140.5 187 c 128,-1,36
 135 231 135 231 129 288 c 1,37,-1
 89 288 l 1,38,39
 89 305 89 305 99 319.5 c 128,-1,40
 109 334 109 334 129 334 c 1,41,-1
 129 616 l 1,42,43
 121 614 121 614 100 610 c 2,44,-1
 46 600 l 1,45,46
 22 600 22 600 22 631 c 1,47,-1
 23 646 l 1,48,49
 76 666 76 666 168 675 c 0,50,51
 189 677 189 677 199 677 c 2,52,-1
 294 676 l 1,53,-1
 401 675 l 1,54,-1
 415 675 l 2,55,56
 421 676 421 676 429 676 c 0,57,58
 431 676 431 676 432 676 c 0,59,60
 454 676 454 676 454 653 c 0,61,62
 454 644 454 644 431.5 638.5 c 128,-1,63
 409 633 409 633 398 628.5 c 128,-1,64
 387 624 387 624 386 616 c 0,65,66
 370 547 370 547 370 371 c 2,67,-1
 370 360 l 1,68,-1
 371 329 l 1,69,-1
 371 319 l 1,70,71
 392 335 392 335 451 389.5 c 128,-1,72
 510 444 510 444 550.5 481.5 c 0,73,74
 592 518 592 518 628 552 c 0,75,76
 708 625 708 625 727.5 639.5 c 128,-1,77
 747 654 747 654 754.5 656.5 c 128,-1,78
 762 659 762 659 774.5 659 c 128,-1,79
 787 659 787 659 794.5 658 c 128,-1,80
 802 657 802 657 806 643 c 1,81,82
 780 609 780 609 735 567 c 128,-1,83
 690 525 690 525 641.5 481 c 128,-1,84
 593 437 593 437 548 395 c 128,-1,85
 503 353 503 353 477 319 c 1,86,87
 540 292 540 292 612 210 c 0,88,89
 642 176 642 176 670 140.5 c 128,-1,90
 698 105 698 105 724.5 78.5 c 128,-1,91
 751 52 751 52 774 44.5 c 128,-1,92
 797 37 797 37 830 37 c 1,93,94
 830 8 830 8 751 -6 c 0,95,96
 697 -15 697 -15 649 -16 c 1,97,-1
 635 -17 l 1,0,1
EndSplineSet
EndChar

StartChar: L
Encoding: 76 76 30
Width: 753
Flags: W
HStem: -19 58<30.7202 130> -7.5 46.5<27.0991 129.824> -1 46<337.709 518.242> 620 43<45.0156 145> 630 46<376.291 463.823>
VStem: 129 202<64.9557 292.944>
LayerCount: 2
Fore
SplineSet
434 -2 m 1,0,1
 307 -19 307 -19 172 -19 c 0,2,3
 137 -19 137 -19 108.5 -17 c 128,-1,4
 80 -15 80 -15 55 -7.5 c 128,-1,5
 30 0 30 0 27 7 c 128,-1,6
 24 14 24 14 24 39 c 1,7,-1
 130 39 l 1,8,-1
 129 116 l 1,9,-1
 129 146 l 2,10,11
 129 160 129 160 131 171 c 1,12,-1
 127 291 l 1,13,14
 92 297 92 297 85.5 301.5 c 128,-1,15
 79 306 79 306 79 313.5 c 128,-1,16
 79 321 79 321 85 328.5 c 0,17,18
 90 336 90 336 98 344 c 0,19,20
 120 366 120 366 122 374 c 128,-1,21
 124 382 124 382 128 408.5 c 128,-1,22
 132 435 132 435 136 467 c 2,23,-1
 144 527 l 2,24,25
 148 555 148 555 147 562 c 2,26,-1
 145 625 l 1,27,-1
 66 620 l 1,28,29
 45 620 45 620 45 642 c 0,30,31
 44 647 44 647 60 653 c 0,32,33
 86 663 86 663 98 663 c 2,34,-1
 120 662 l 1,35,-1
 421 676 l 1,36,37
 464 676 464 676 464 655 c 128,-1,38
 464 634 464 634 435 630 c 0,39,40
 385 623 385 623 376 619 c 1,41,42
 372 608 372 608 370 602 c 0,43,44
 361 579 361 579 359 559.5 c 128,-1,45
 357 540 357 540 354.5 517.5 c 128,-1,46
 352 495 352 495 349.5 469.5 c 128,-1,47
 347 444 347 444 344.5 421.5 c 128,-1,48
 342 399 342 399 340.5 383 c 128,-1,49
 339 367 339 367 336 351 c 0,50,51
 330 319 330 319 330 224 c 2,52,-1
 331 104 l 258,53,54
 331 79 331 79 337.5 64.5 c 128,-1,55
 344 50 344 50 375 50 c 1,56,-1
 448 45 l 1,57,58
 472 45 472 45 484 50.5 c 128,-1,59
 496 56 496 56 508 61.5 c 128,-1,60
 520 67 520 67 532 74 c 0,61,62
 565 92 565 92 573.5 100 c 128,-1,63
 582 108 582 108 601.5 128.5 c 0,64,65
 620 149 620 149 642 172 c 0,66,67
 695 229 695 229 710 245 c 1,68,69
 740 234 740 234 740 183 c 0,70,71
 740 145 740 145 726.5 96 c 128,-1,72
 713 47 713 47 704 28 c 0,73,74
 683 -16 683 -16 660 -16 c 1,75,76
 613 -16 613 -16 567.5 -8.5 c 128,-1,77
 522 -1 522 -1 496 -1 c 2,78,-1
 464 -1 l 1,79,-1
 440 -2 l 1,80,-1
 434 -2 l 1,0,1
EndSplineSet
EndChar

StartChar: M
Encoding: 77 77 31
Width: 1121
Flags: W
HStem: -5 42<-2.20227 66.3798 146.002 219.622> 2 35<1068.72 1128> 602 52<123.864 229> 625 55<898.829 945.171>
VStem: 690 198<497.047 616.841>
LayerCount: 2
Fore
SplineSet
222.5 469 m 128,-1,1
 234 516 234 516 234 547 c 128,-1,2
 234 578 234 578 229 608 c 1,3,-1
 164 602 l 1,4,5
 135 602 135 602 123.5 611 c 128,-1,6
 112 620 112 620 112 632 c 128,-1,7
 112 644 112 644 131 654 c 1,8,9
 240 669 240 669 320.5 670 c 128,-1,10
 401 671 401 671 462 671 c 1,11,12
 464 610 464 610 522 387 c 0,13,14
 538 327 538 327 552 278 c 1,15,-1
 560 276 l 1,16,17
 588 276 588 276 654 459 c 0,18,19
 666 491 666 491 675.5 518 c 128,-1,20
 685 545 685 545 688 553 c 128,-1,21
 691 561 691 561 691 568 c 2,22,-1
 690 603 l 1,23,-1
 690 620 l 2,24,25
 690 623 690 623 693.5 634.5 c 128,-1,26
 697 646 697 646 708 646 c 1,27,-1
 907 680 l 1,28,29
 956 680 956 680 956 654 c 0,30,31
 956 638 956 638 945.5 633 c 128,-1,32
 935 628 935 628 922 625 c 128,-1,33
 909 622 909 622 898.5 617 c 128,-1,34
 888 612 888 612 888 597 c 128,-1,35
 888 582 888 582 895 548 c 128,-1,36
 902 514 902 514 912 478 c 0,37,38
 937 389 937 389 954 379 c 0,39,40
 960 376 960 376 969.5 373.5 c 0,41,42
 979 370 979 370 988 368 c 0,43,44
 1009 362 1009 362 1009 355 c 0,45,46
 1009 343 1009 343 1003 337 c 128,-1,47
 997 331 997 331 990 325 c 0,48,49
 971 309 971 309 971 287 c 2,50,-1
 971 261 l 1,51,-1
 978 240 l 2,52,53
 984 222 984 222 992.5 200 c 128,-1,54
 1001 178 1001 178 1009 155.5 c 128,-1,55
 1017 133 1017 133 1024 114.5 c 128,-1,56
 1031 96 1031 96 1039.5 81.5 c 128,-1,57
 1048 67 1048 67 1060 59 c 0,58,59
 1076 48 1076 48 1128 37 c 1,60,-1
 1129 26 l 2,61,62
 1129 21 1129 21 1125.5 11.5 c 128,-1,63
 1122 2 1122 2 1112 2 c 2,64,-1
 890 2 l 1,65,-1
 841 54 l 1,66,-1
 726 465 l 1,67,-1
 708 450 l 1,68,69
 650 311 650 311 613.5 239.5 c 128,-1,70
 577 168 577 168 569.5 156 c 128,-1,71
 562 144 562 144 549.5 126.5 c 0,72,73
 536 108 536 108 522 92 c 0,74,75
 487 52 487 52 461.5 52.5 c 129,-1,76
 436 53 436 53 425 68 c 128,-1,77
 414 83 414 83 405 106 c 0,78,79
 368 205 368 205 332 306.5 c 128,-1,80
 296 408 296 408 277 510 c 1,81,82
 270 490 270 490 253.5 425 c 128,-1,83
 237 360 237 360 225.5 316 c 128,-1,84
 214 272 214 272 202 231 c 0,85,86
 175 136 175 136 166 118.5 c 128,-1,87
 157 101 157 101 154.5 93.5 c 128,-1,88
 152 86 152 86 150 78 c 0,89,90
 146 63 146 63 146 54 c 128,-1,91
 146 45 146 45 154 37 c 1,92,-1
 228 37 l 1,93,94
 227 34 227 34 226 27 c 0,95,96
 224 20 224 20 220 13 c 0,97,98
 208 -5 208 -5 182 -5 c 2,99,-1
 -12 -5 l 1,100,101
 -12 16 -12 16 -2.5 24 c 128,-1,102
 7 32 7 32 20 35.5 c 128,-1,103
 33 39 33 39 46.5 43 c 128,-1,104
 60 47 60 47 69 62 c 1,105,106
 75 75 75 75 84.5 93 c 128,-1,107
 94 111 94 111 102 128 c 0,108,109
 122 167 122 167 130.5 196.5 c 128,-1,110
 139 226 139 226 158 275.5 c 128,-1,111
 177 325 177 325 194 373.5 c 128,-1,0
 211 422 211 422 222.5 469 c 128,-1,1
EndSplineSet
EndChar

StartChar: N
Encoding: 78 78 32
Width: 814
Flags: W
HStem: 2 48<166.127 231.171> 2 41<166.127 241.921> 4 53<50 104.613> 433 20G<563 573.5> 654 32<732.345 781.894>
VStem: 139 40<306.974 551.748> 667 29<285.823 580.627>
LayerCount: 2
Fore
SplineSet
231.5 43 m 128,-1,1
 242 38 242 38 242 20 c 128,-1,2
 242 2 242 2 229 2 c 2,3,-1
 68 4 l 2,4,5
 56 4 56 4 53 14 c 0,6,7
 49 26 49 26 49 37 c 0,8,9
 49 46 49 46 56 50 c 128,-1,10
 63 54 63 54 72.5 57 c 128,-1,11
 82 60 82 60 91.5 64 c 128,-1,12
 101 68 101 68 105 80 c 1,13,14
 126 215 126 215 136 453 c 0,15,16
 138 516 138 516 139 545 c 2,17,-1
 139 586 l 2,18,19
 139 598 139 598 137 610 c 1,20,21
 76 610 76 610 67 623 c 0,22,23
 56 639 56 639 56 663 c 1,24,25
 164 673 164 673 261 677.5 c 128,-1,26
 358 682 358 682 376 682 c 0,27,28
 446 682 446 682 447 657 c 0,29,30
 447 645 447 645 426 634.5 c 128,-1,31
 405 624 405 624 405 615.5 c 128,-1,32
 405 607 405 607 418.5 582.5 c 128,-1,33
 432 558 432 558 450 529 c 0,34,35
 491 465 491 465 516 433 c 1,36,37
 518 435 518 435 524 435 c 0,38,39
 554 435 554 435 572 453 c 1,40,41
 575 447 575 447 575 435.5 c 128,-1,42
 575 424 575 424 571 418.5 c 0,43,44
 568 412 568 412 562 406 c 0,45,46
 548 390 548 390 548 376.5 c 128,-1,47
 548 363 548 363 550 363 c 1,48,49
 554 351 554 351 572 315 c 2,50,-1
 602 254 l 2,51,52
 614 229 614 229 626 207 c 128,-1,53
 638 185 638 185 646.5 168 c 128,-1,54
 655 151 655 151 658 146 c 1,55,56
 667 186 667 186 667 268.5 c 128,-1,57
 667 351 667 351 664 410.5 c 0,58,59
 662 470 662 470 658 518 c 0,60,61
 650 628 650 628 643 628 c 2,62,-1
 549 620 l 1,63,64
 549 649 549 649 559 660 c 128,-1,65
 569 671 569 671 577.5 672 c 128,-1,66
 586 673 586 673 598.5 674.5 c 128,-1,67
 611 676 611 676 624.5 677.5 c 0,68,69
 638 678 638 678 649 680 c 0,70,71
 689 686 689 686 725 686 c 0,72,73
 779 686 779 686 782 677 c 1,74,-1
 784 654 l 1,75,76
 774 653 774 653 758.5 648.5 c 128,-1,77
 743 644 743 644 732 642 c 1,78,79
 729 640 729 640 718 633.5 c 128,-1,80
 707 627 707 627 704 625 c 1,81,82
 703 617 703 617 702 598 c 0,83,84
 702 580 702 580 700 558 c 0,85,86
 696 508 696 508 696 493 c 2,87,-1
 696 477 l 1,88,89
 699 233 699 233 704 160 c 128,-1,90
 709 87 709 87 709 76 c 0,91,92
 705 9 705 9 499 0 c 0,93,94
 479 0 479 0 469.5 7.5 c 128,-1,95
 460 15 460 15 460 33.5 c 128,-1,96
 460 52 460 52 462 56 c 1,97,-1
 339 266 l 1,98,-1
 275 261 l 1,99,100
 275 265 275 265 275.5 270.5 c 128,-1,101
 276 276 276 276 280.5 286.5 c 128,-1,102
 285 297 285 297 295 304 c 128,-1,103
 305 311 305 311 305 328.5 c 128,-1,104
 305 346 305 346 291.5 376.5 c 0,105,106
 278 406 278 406 260 440 c 0,107,108
 222 509 222 509 184 552 c 1,109,110
 179 544 179 544 179 527 c 2,111,-1
 179 509 l 2,112,113
 178 461 178 461 172 366 c 0,114,115
 160 182 160 182 160 141 c 0,116,117
 160 62 160 62 166 55 c 256,118,119
 170 50 170 50 182 50 c 128,-1,120
 194 50 194 50 207.5 49 c 128,-1,0
 221 48 221 48 231.5 43 c 128,-1,1
EndSplineSet
EndChar

StartChar: O
Encoding: 79 79 34
Width: 780
Flags: W
HStem: -29 33<332.994 448.301> 653 43<341.507 453.906>
VStem: 40 200<169.594 427.349> 554 185<217.993 485.836>
LayerCount: 2
Fore
SplineSet
512.5 -2 m 0,0,1
 443 -29 443 -29 367.5 -29 c 128,-1,2
 292 -29 292 -29 234 -3 c 128,-1,3
 176 23 176 23 132.5 65.5 c 128,-1,4
 89 108 89 108 64.5 163 c 128,-1,5
 40 218 40 218 40 268.5 c 128,-1,6
 40 319 40 319 47.5 366.5 c 0,7,8
 56 414 56 414 72 460 c 0,9,10
 130 624 130 624 264 676 c 0,11,12
 316 696 316 696 378 696 c 0,13,14
 572 696 572 696 665 586 c 0,15,16
 739 498 739 498 739 363 c 0,17,18
 738 182 738 182 632 76 c 0,19,20
 582 26 582 26 512.5 -2 c 0,0,1
243 356 m 0,21,22
 240 318 240 318 240 286.5 c 128,-1,23
 240 255 240 255 247.5 219.5 c 0,24,25
 256 184 256 184 268 148 c 0,26,27
 293 77 293 77 337 13 c 1,28,29
 340 4 340 4 365 4 c 0,30,31
 381 4 381 4 406 8 c 0,32,33
 480 19 480 19 496 74 c 0,34,35
 507 116 507 116 517.5 145.5 c 128,-1,36
 528 175 528 175 536 201 c 0,37,38
 554 259 554 259 554 301.5 c 128,-1,39
 554 344 554 344 551 377 c 128,-1,40
 548 410 548 410 541 446.5 c 128,-1,41
 534 483 534 483 522.5 520 c 0,42,43
 512 556 512 556 494 586 c 0,44,45
 455 652 455 652 399 653 c 0,46,47
 341 652 341 652 301 584 c 0,48,49
 255 506 255 506 243 356 c 0,21,22
EndSplineSet
EndChar

StartChar: OE
Encoding: 338 338 35
Width: 821
Flags: W
HStem: 7 49<240.681 392.535> 73 32<584.515 722.277> 336 48<627 640.502> 421 20G<688.5 696.13> 573 41<498.609 653.776>
VStem: 46 156<148.87 434.326> 443 140<124.812 320>
LayerCount: 2
Fore
SplineSet
712 73 m 2,0,-1
 682 72 l 1,1,2
 636 66 636 66 590 58 c 0,3,4
 501 43 501 43 491.5 41 c 128,-1,5
 482 39 482 39 473.5 34.5 c 0,6,7
 466 30 466 30 456 25 c 0,8,9
 432 12 432 12 428 7 c 1,10,-1
 229 7 l 1,11,12
 218 14 218 14 208 20 c 0,13,14
 108 74 108 74 74 136 c 0,15,16
 46 187 46 187 46 286 c 0,17,18
 46 472 46 472 159 585 c 0,19,20
 196 622 196 622 244 646 c 0,21,22
 264 657 264 657 274 660 c 128,-1,23
 284 663 284 663 301 663 c 1,24,-1
 315 662 l 1,25,26
 363 650 363 650 393 640 c 128,-1,27
 423 630 423 630 430.5 628.5 c 128,-1,28
 438 627 438 627 461 624.5 c 128,-1,29
 484 622 484 622 508.5 620 c 128,-1,30
 533 618 533 618 554.5 616 c 128,-1,31
 576 614 576 614 582 614 c 128,-1,32
 588 614 588 614 598.5 616 c 0,33,34
 608 618 608 618 620 620 c 0,35,36
 647 625 647 625 654 629 c 256,37,38
 660 633 660 633 676 653 c 0,39,40
 707 693 707 693 710 695 c 0,41,42
 721 703 721 703 727 703 c 1,43,44
 727 682 727 682 714 644 c 0,45,46
 690 573 690 573 682 573 c 2,47,-1
 498 573 l 1,48,-1
 583 385 l 1,49,-1
 597 384 l 1,50,51
 614 384 614 384 625.5 393 c 128,-1,52
 637 402 637 402 647.5 412.5 c 128,-1,53
 658 423 658 423 669 432 c 128,-1,54
 680 441 680 441 697 441 c 1,55,-1
 696 418 l 1,56,57
 693 386 693 386 687.5 353.5 c 128,-1,58
 682 321 682 321 681.5 318 c 128,-1,59
 681 315 681 315 675.5 309.5 c 128,-1,60
 670 304 670 304 668 304 c 1,61,62
 647 332 647 332 640 336 c 1,63,-1
 627 336 l 1,64,-1
 583 320 l 1,65,66
 583 281 583 281 569 155 c 0,67,68
 569 148 569 148 555 106 c 1,69,-1
 590 105 l 1,70,-1
 632 105 l 2,71,72
 709 105 709 105 753 138 c 1,73,74
 763 147 763 147 767.5 157 c 128,-1,75
 772 167 772 167 776 176 c 0,76,77
 785 197 785 197 812 197 c 1,78,79
 812 175 812 175 798 133 c 0,80,81
 772 55 772 55 761 55 c 0,82,83
 752 55 752 55 745 61 c 0,84,85
 731 73 731 73 712 73 c 2,0,-1
329 596 m 1,86,87
 329 601 329 601 306.5 601 c 128,-1,88
 284 601 284 601 267 578 c 0,89,90
 250 554 250 554 240 522 c 0,91,92
 221 464 221 464 212 366 c 0,93,94
 210 342 210 342 208 318 c 0,95,96
 202 266 202 266 202 256 c 128,-1,97
 202 246 202 246 203.5 226.5 c 128,-1,98
 205 207 205 207 207.5 186 c 128,-1,99
 210 165 210 165 212 146.5 c 128,-1,100
 214 128 214 128 215 122 c 1,101,102
 217 122 217 122 229 99.5 c 128,-1,103
 241 77 241 77 244 72 c 1,104,105
 249 67 249 67 252 63 c 256,106,107
 255 59 255 59 258 56 c 1,108,-1
 371 56 l 2,109,110
 374 56 374 56 386 70 c 0,111,112
 406 93 406 93 414.5 108.5 c 128,-1,113
 423 124 423 124 429 150 c 128,-1,114
 435 176 435 176 438 204 c 0,115,116
 443 252 443 252 443 310 c 0,117,118
 443 452 443 452 385 532 c 1,119,120
 367 559 367 559 349 577 c 128,-1,121
 331 595 331 595 329 596 c 1,86,87
EndSplineSet
EndChar

StartChar: Oslash
Encoding: 216 216 40
Width: 836
Flags: W
HStem: 12 36<342.782 497.578> 632 45<412 528.6>
VStem: 678 44<322 484.668> 678 36<322 485>
LayerCount: 2
Fore
SplineSet
840 633 m 1,0,-1
 838 621 l 1,1,-1
 714 521 l 1,2,3
 714 489 714 489 718 459 c 128,-1,4
 722 429 722 429 722 410 c 2,5,-1
 722 382 l 1,6,-1
 721 348 l 1,7,-1
 721 341 l 1,8,-1
 671 179 l 2,9,10
 669 173 669 173 655 153 c 2,11,-1
 634 122 l 2,12,13
 593 64 593 64 534 38 c 128,-1,14
 475 12 475 12 429 12 c 128,-1,15
 383 12 383 12 344 17 c 128,-1,16
 305 22 305 22 268 34 c 0,17,18
 183 61 183 61 145 118 c 1,19,-1
 21 12 l 1,20,-1
 10 12 l 2,21,22
 -4 12 -4 12 -8 15.5 c 128,-1,23
 -12 19 -12 19 -12 33 c 2,24,-1
 -12 40 l 2,25,26
 -12 42 -12 42 -11 44 c 2,27,-1
 113 162 l 2,28,29
 114 162 114 162 114 166 c 2,30,-1
 114 171 l 2,31,32
 114 198 114 198 104 228 c 0,33,34
 86 284 86 284 87 310 c 0,35,36
 87 377 87 377 101 409 c 2,37,-1
 181 589 l 1,38,39
 205 628 205 628 269 664 c 0,40,41
 337 702 337 702 396 701 c 0,42,43
 414 701 414 701 414 692 c 2,44,-1
 412 671 l 1,45,-1
 496 677 l 1,46,-1
 506 677 l 1,47,-1
 530 676 l 1,48,-1
 535 676 l 1,49,50
 574 666 574 666 596.5 656.5 c 128,-1,51
 619 647 619 647 621 645 c 2,52,-1
 690 564 l 1,53,-1
 814 657 l 1,54,-1
 818 657 l 1,55,-1
 822 658 l 1,56,57
 836 658 836 658 838 652 c 128,-1,58
 840 646 840 646 840 633 c 1,0,-1
404 48 m 1,59,-1
 429 49 l 1,60,61
 476 48 476 48 539 88 c 0,62,63
 603 128 603 128 621 174 c 2,64,-1
 678 322 l 1,65,-1
 678 485 l 1,66,67
 666 485 666 485 659 478 c 2,68,-1
 287 174 l 1,69,-1
 337 74 l 2,70,71
 349 48 349 48 404 48 c 1,59,-1
507 632 m 1,72,-1
 502 633 l 1,73,74
 427 633 427 633 398 602 c 0,75,76
 391 594 391 594 379.5 580.5 c 0,77,78
 368 566 368 566 357 554 c 0,79,80
 330 523 330 523 330 521 c 2,81,-1
 268 291 l 1,82,-1
 268 224 l 1,83,-1
 653 533 l 1,84,-1
 653 535 l 1,85,-1
 654 539 l 1,86,87
 654 547 654 547 640 565 c 0,88,89
 613 598 613 598 603 602 c 2,90,-1
 510 632 l 1,91,-1
 507 632 l 1,72,-1
EndSplineSet
EndChar

StartChar: P
Encoding: 80 80 42
Width: 643
Flags: W
HStem: -12 39<60.0117 136 324.189 437> 278 46<312.117 462.178> 353 31.5<84.189 132> 643 39<21.1846 97.2764 285 407.621>
VStem: 132 153<390 594.829> 136 176<38 278> 496 132<389.627 561.036>
LayerCount: 2
Fore
SplineSet
72 -12 m 2,0,1
 60 -12 60 -12 60 7 c 128,-1,2
 60 26 60 26 79 26 c 1,3,4
 136 21 l 1,5,-1
 136 357 l 1,6,-1
 104 353 l 257,7,8
 84 353 84 353 84 372 c 0,9,10
 84 379 84 379 105.5 384.5 c 128,-1,11
 127 390 127 390 132 390 c 1,12,13
 132 572 132 572 95 628 c 0,14,15
 85 643 85 643 71 643 c 2,16,-1
 42 641 l 1,17,18
 21 641 21 641 21 660 c 0,19,20
 21 673 21 673 35 679 c 1,21,22
 80 682 80 682 118 682 c 2,23,-1
 206 682 l 2,24,25
 452 682 452 682 566 602 c 0,26,27
 628 559 628 559 628 479 c 0,28,29
 628 419 628 419 594 369 c 0,30,31
 579 347 579 347 551 327.5 c 128,-1,32
 523 308 523 308 487.5 297.5 c 128,-1,33
 452 287 452 287 418 283 c 0,34,35
 376 278 376 278 312 278 c 1,36,-1
 312 38 l 1,37,-1
 324 26 l 1,38,39
 330 27 330 27 342 27 c 2,40,-1
 368 27 l 2,41,42
 408 27 408 27 419 24 c 0,43,44
 435 19 435 19 450 1 c 1,45,-1
 437 -12 l 1,46,-1
 72 -12 l 2,0,1
371 324 m 2,47,-1
 411 325 l 2,48,49
 464 328 464 328 484 380 c 0,50,51
 496 413 496 413 496 458.5 c 128,-1,52
 496 504 496 504 492.5 527 c 128,-1,53
 489 550 489 550 479 569 c 0,54,55
 452 620 452 620 364 635 c 0,56,57
 317 643 317 643 285 643 c 1,58,59
 284 488 284 488 302 386 c 0,60,61
 308 354 308 354 313.5 342 c 128,-1,62
 319 330 319 330 330 327 c 128,-1,63
 341 324 341 324 371 324 c 2,47,-1
EndSplineSet
EndChar

StartChar: Q
Encoding: 81 81 43
Width: 831
Flags: W
HStem: -81 39.5<678.564 768.284> -60 41<343.711 447.508> 124 49<414.81 492.611> 624 55<426.715 568.349>
VStem: 58 198<160.504 316.905> 539 30<2.5 42> 680 42<232.373 500.631> 789 40<-21.3636 76.7012>
LayerCount: 2
Fore
SplineSet
448 679 m 2,0,-1
 480 680 l 1,1,2
 553 680 553 680 647 610 c 0,3,4
 714 560 714 560 720 431 c 0,5,6
 722 397 722 397 722 365 c 128,-1,7
 722 333 722 333 716 289 c 0,8,9
 710 244 710 244 698 200 c 0,10,11
 672 98 672 98 635 50 c 1,12,13
 627 46 627 46 627 36.5 c 128,-1,14
 627 27 627 27 638 13.5 c 128,-1,15
 649 0 649 0 665 -12 c 0,16,17
 703 -41 703 -41 721.5 -41.5 c 128,-1,18
 740 -42 740 -42 751.5 -35.5 c 0,19,20
 764 -28 764 -28 772 -18 c 0,21,22
 790 4 790 4 789 32 c 0,23,24
 790 47 790 47 778 64 c 0,25,26
 756 95 756 95 756 108 c 0,27,28
 756 109 756 109 760.5 117 c 128,-1,29
 765 125 765 125 775.5 123.5 c 128,-1,30
 786 122 786 122 797 112 c 128,-1,31
 808 102 808 102 815 88 c 0,32,33
 829 59 829 59 829 33 c 128,-1,34
 829 7 829 7 821 -12.5 c 0,35,36
 812 -32 812 -32 798 -48 c 0,37,38
 767 -82 767 -82 716 -81 c 1,39,40
 687 -81 687 -81 664.5 -67 c 128,-1,41
 642 -53 642 -53 622 -37 c 128,-1,42
 602 -21 602 -21 573 2 c 1,43,-1
 572 2 l 2,44,45
 571 2 571 2 570 2.5 c 128,-1,46
 569 3 569 3 569 2.5 c 128,-1,47
 569 2 569 2 568 2 c 2,48,-1
 567 2 l 1,49,50
 402 -60 402 -60 367 -60 c 0,51,52
 365 -60 365 -60 364 -60 c 1,53,54
 310 -60 310 -60 241 -22 c 0,55,56
 118 45 118 45 74 174 c 0,57,58
 58 221 58 221 58 278 c 0,59,60
 58 292 58 292 60 308 c 1,61,62
 58 309 58 309 50 311.5 c 128,-1,63
 42 314 42 314 34 318 c 0,64,65
 12 327 12 327 11.5 337 c 128,-1,66
 11 347 11 347 19 351.5 c 0,67,68
 26 356 26 356 36 358 c 0,69,70
 49 362 49 362 67 362 c 1,71,72
 93 516 93 516 187 632 c 0,73,74
 263 725 263 725 338 725 c 0,75,76
 379 725 379 725 421 704 c 0,77,78
 426 702 426 702 428 697.5 c 128,-1,79
 430 693 430 693 432 689 c 0,80,81
 437 679 437 679 448 679 c 2,0,-1
256 275 m 0,82,83
 256 178 256 178 278 74 c 1,84,85
 293 41 293 41 315 20 c 0,86,87
 365 -15 365 -15 389 -19 c 1,88,89
 419 -19 419 -19 460 -5 c 0,90,91
 539 22 539 22 539 42 c 0,92,93
 538 66 538 66 502 96 c 0,94,95
 463 122 463 122 450 124 c 257,96,97
 438 124 438 124 428 114 c 0,98,99
 408 94 408 94 395.5 94 c 128,-1,100
 383 94 383 94 375.5 103 c 128,-1,101
 368 112 368 112 368 124 c 0,102,103
 368 147 368 147 390 160 c 128,-1,104
 412 173 412 173 436.5 173 c 128,-1,105
 461 173 461 173 481 166 c 128,-1,106
 501 159 501 159 518 146 c 0,107,108
 542 127 542 127 564.5 102 c 128,-1,109
 587 77 587 77 588 76.5 c 128,-1,110
 589 76 589 76 590 76 c 0,111,112
 626 76 626 76 666 260 c 0,113,114
 680 321 680 321 680 341 c 0,115,116
 680 483 680 483 636 550 c 0,117,118
 588 624 588 624 481 624 c 0,119,120
 408 624 408 624 353 562 c 0,121,122
 284 484 284 484 262 346 c 0,123,124
 256 308 256 308 256 275 c 0,82,83
EndSplineSet
EndChar

StartChar: R
Encoding: 82 82 44
Width: 754
Flags: W
HStem: -42 50<666.59 708.305> -24 45<418 497.977> -10 37.5<120.013 211.26> 237 37<431.375 512.5> 616 45<380 458.14>
VStem: 26.5 46<309.049 510.65> 214 176<283.438 412.754> 604 43<365.565 501.894> 614 52<8.6073 181.984>
LayerCount: 2
Fore
SplineSet
614 67 m 1,0,-1
 615 86 l 1,1,2
 616 132 616 132 608 153 c 0,3,4
 588 210 588 210 530 232 c 0,5,6
 516 238 516 238 502 237 c 1,7,8
 475 231 475 231 443 222 c 2,9,-1
 412 213 l 1,10,-1
 406 207 l 1,11,-1
 418 21 l 1,12,-1
 449 21 l 2,13,14
 467 21 467 21 483 19.5 c 128,-1,15
 499 18 499 18 499 4 c 0,16,17
 499 -24 499 -24 433.5 -24 c 128,-1,18
 368 -24 368 -24 300.5 -16.5 c 128,-1,19
 233 -9 233 -9 164 -9 c 1,20,-1
 133 -10 l 1,21,22
 120 -4 120 -4 120 9.5 c 128,-1,23
 120 23 120 23 131 27.5 c 128,-1,24
 142 32 142 32 157.5 33 c 128,-1,25
 173 34 173 34 188.5 34 c 128,-1,26
 204 34 204 34 213 39 c 1,27,-1
 214 77 l 1,28,29
 214 342 214 342 189 579 c 0,30,31
 188 581 188 581 186 588 c 128,-1,32
 184 595 184 595 183 597 c 1,33,-1
 180 598 l 1,34,35
 160 598 160 598 112 536 c 0,36,37
 100 520 100 520 88 502 c 0,38,39
 72 478 72 478 71.5 435.5 c 128,-1,40
 71 393 71 393 72.5 373 c 0,41,42
 74 352 74 352 80 336 c 0,43,44
 90 306 90 306 128 272 c 1,45,46
 128 259 128 259 102 250 c 1,47,48
 64 250 64 250 42 315 c 0,49,50
 26 362 26 362 26.5 418 c 128,-1,51
 27 474 27 474 54 532.5 c 128,-1,52
 81 591 81 591 139 629 c 1,53,54
 203 661 203 661 295 661 c 0,55,56
 438 661 438 661 524 618 c 0,57,58
 576 592 576 592 611.5 543.5 c 128,-1,59
 647 495 647 495 647 414 c 0,60,61
 647 411 647 411 646 404.5 c 128,-1,62
 645 398 645 398 644 392 c 0,63,64
 641 372 641 372 641 374 c 1,65,-1
 573 269 l 1,66,-1
 573 262 l 1,67,68
 667 228 667 228 667 62 c 1,69,-1
 666 27 l 1,70,71
 685 8 685 8 688 8 c 1,72,73
 695 14 695 14 701.5 22 c 128,-1,74
 708 30 708 30 716 36 c 0,75,76
 741 53 741 53 745 53 c 0,77,78
 756 53 756 53 760.5 52.5 c 128,-1,79
 765 52 765 52 765 41.5 c 128,-1,80
 765 31 765 31 760 16 c 128,-1,81
 755 1 755 1 746 -12 c 0,82,83
 725 -42 725 -42 696 -42 c 1,84,85
 679 -42 679 -42 668.5 -36 c 128,-1,86
 658 -30 658 -30 640.5 -16 c 128,-1,87
 623 -2 623 -2 618.5 19.5 c 128,-1,88
 614 41 614 41 614 67 c 1,0,-1
380 616 m 1,89,-1
 381 597 l 1,90,91
 387 519 387 519 390 439 c 128,-1,92
 393 359 393 359 406 281 c 1,93,94
 409 274 409 274 418 274 c 0,95,96
 564 274 564 274 604 405 c 1,97,98
 604 491 604 491 554 543 c 0,99,100
 536 561 536 561 518 569 c 128,-1,101
 500 577 500 577 481.5 584.5 c 0,102,103
 464 592 464 592 446 599 c 0,104,105
 404 616 404 616 400 616 c 2,106,-1
 380 616 l 1,89,-1
EndSplineSet
EndChar

StartChar: S
Encoding: 83 83 45
Width: 620
Flags: W
HStem: -40 33<242.51 386.26> 418 20G<434.5 441.5> 631 44<191.38 342.177>
VStem: 44 49<1 41.6045> 45 34<-37.4205 1> 71 83<435 574.596> 441 122<83.7096 205.5>
LayerCount: 2
Fore
SplineSet
571 478 m 0,0,1
 571 462 571 462 534 462 c 0,2,3
 528 462 528 462 514 474.5 c 128,-1,4
 500 487 500 487 479.5 506 c 128,-1,5
 459 525 459 525 434.5 546.5 c 128,-1,6
 410 568 410 568 384 587 c 0,7,8
 312 628 312 628 286 631 c 1,9,10
 198 631 198 631 166 586 c 0,11,12
 154 569 154 569 154 548.5 c 128,-1,13
 154 528 154 528 165 510.5 c 128,-1,14
 176 493 176 493 203 473 c 0,15,16
 261 430 261 430 392 385 c 1,17,18
 394 387 394 387 400 395.5 c 128,-1,19
 406 404 406 404 413 414 c 0,20,21
 431 438 431 438 438 438 c 128,-1,22
 445 438 445 438 449.5 432.5 c 128,-1,23
 454 427 454 427 454 422 c 128,-1,24
 454 417 454 417 451.5 411 c 128,-1,25
 449 405 449 405 445 398 c 0,26,27
 434 379 434 379 433 374 c 1,28,29
 506 323 506 323 532 285 c 0,30,31
 563 240 563 240 563 171 c 0,32,33
 563 84 563 84 491 23 c 0,34,35
 417 -40 417 -40 304 -40 c 1,36,37
 248 -40 248 -40 193.5 -21.5 c 128,-1,38
 139 -3 139 -3 105 41 c 1,39,-1
 103 42 l 2,40,41
 101 42 101 42 97 39.5 c 128,-1,42
 93 37 93 37 93 35 c 2,43,-1
 79 -33 l 2,44,45
 78 -40 78 -40 67.5 -40 c 129,-1,46
 57 -40 57 -40 53.5 -37.5 c 128,-1,47
 50 -35 50 -35 45 -27 c 1,48,-1
 44 13 l 1,49,50
 44 61 44 61 52 153 c 1,51,52
 57 167 57 167 74 167 c 128,-1,53
 91 167 91 167 103 151.5 c 128,-1,54
 115 136 115 136 126 115 c 128,-1,55
 137 94 137 94 148 73 c 128,-1,56
 159 52 159 52 174 41 c 1,57,58
 183 32 183 32 214 20 c 0,59,60
 280 -7 280 -7 324 -7 c 256,61,62
 377 -7 377 -7 410 28 c 0,63,64
 441 61 441 61 441 113 c 0,65,66
 441 146 441 146 386 188 c 0,67,68
 333 228 333 228 294 228 c 0,69,70
 287 228 287 228 274 220 c 0,71,72
 251 205 251 205 245 205 c 1,73,74
 246 210 246 210 246 214 c 2,75,-1
 246 221 l 2,76,77
 246 235 246 235 242 243 c 1,78,79
 130 300 130 300 99 340 c 0,80,81
 81 364 81 364 76 391 c 128,-1,82
 71 418 71 418 71 452 c 0,83,84
 71 541 71 541 105 599 c 0,85,86
 129 640 129 640 172.5 657.5 c 128,-1,87
 216 675 216 675 254.5 675 c 128,-1,88
 293 675 293 675 317 670 c 128,-1,89
 341 665 341 665 363 656 c 0,90,91
 394 643 394 643 454 605 c 1,92,-1
 462 605 l 1,93,-1
 515 668 l 1,94,-1
 527 669 l 1,95,96
 552 669 552 669 556 655 c 1,97,98
 571 529 571 529 571 478 c 0,0,1
EndSplineSet
EndChar

StartChar: T
Encoding: 84 84 47
Width: 694
Flags: W
HStem: -18 38<150.064 237.611 441.324 538.854> 604 39<212.556 260 459.735 479> 667 24G<62.3864 134.571 604 618>
VStem: 260 174<43.7012 594.25>
LayerCount: 2
Fore
SplineSet
161 -18 m 2,0,1
 148 -18 148 -18 148 4 c 256,2,3
 148 10 148 10 150 15 c 128,-1,4
 152 20 152 20 161 20 c 2,5,-1
 236 20 l 1,6,7
 238 45 238 45 242 81.5 c 128,-1,8
 246 118 246 118 250 162 c 0,9,10
 260 272 260 272 260 361 c 2,11,-1
 260 604 l 1,12,-1
 199 595 l 1,13,-1
 34 489 l 2,14,15
 33 489 33 489 32.5 484.5 c 128,-1,16
 32 480 32 480 30 480 c 0,17,18
 19 480 19 480 11 490 c 128,-1,19
 3 500 3 500 3 511 c 1,20,-1
 70 687 l 1,21,-1
 183 652 l 2,22,23
 211 643 211 643 266 643 c 1,24,-1
 343 645 l 1,25,-1
 440 644 l 2,26,27
 513 644 513 644 560 666 c 0,28,29
 569 670 569 670 575 674.5 c 0,30,31
 580 679 580 679 586 683 c 0,32,33
 597 691 597 691 611 691 c 128,-1,34
 625 691 625 691 629 685 c 2,35,-1
 697 546 l 1,36,37
 697 541 697 541 687.5 531.5 c 128,-1,38
 678 522 678 522 678 523 c 2,39,-1
 562 572 l 1,40,-1
 479 604 l 1,41,42
 467 604 467 604 459.5 598 c 128,-1,43
 452 592 452 592 448 574 c 0,44,45
 440 544 440 544 440 436 c 1,46,-1
 434 168 l 1,47,48
 434 42 434 42 446 26 c 0,49,50
 450 20 450 20 456 21 c 2,51,-1
 510 26 l 257,52,53
 523 26 523 26 531.5 24.5 c 0,54,55
 540 24 540 24 540 14 c 0,56,57
 540 -12 540 -12 527 -14 c 2,58,-1
 465 -18 l 1,59,-1
 161 -18 l 2,0,1
EndSplineSet
EndChar

StartChar: Thorn
Encoding: 222 222 48
Width: 705
Flags: W
HStem: -19 47<77.1875 164 344.633 364.923> -6 40<360.077 400> 148 43<65.1575 149.165> 430 41<32.4375 145> 454 45<351.325 480.52> 613 42<67.282 139> 631 46<350.312 386.367>
VStem: 146 198<496.374 612.412> 164 180.5<34.2812 136.903 207.035 427.958> 555 137<268.707 377.528>
LayerCount: 2
Fore
SplineSet
394 34 m 2,0,1
 400 34 400 34 400 18 c 2,2,-1
 400 7 l 2,3,4
 400 -4 400 -4 394 -6 c 2,5,-1
 331 -19 l 1,6,-1
 96 -19 l 2,7,8
 86 -19 86 -19 81.5 -10.5 c 128,-1,9
 77 -2 77 -2 77 6 c 0,10,11
 77 28 77 28 89 28 c 2,12,-1
 164 28 l 1,13,-1
 164 148 l 1,14,-1
 78 148 l 2,15,16
 71 148 71 148 62 156 c 0,17,18
 46 170 46 170 46 177 c 0,19,20
 46 185 46 185 65 192 c 1,21,22
 70 191 70 191 80 191 c 2,23,-1
 102 191 l 2,24,25
 139 191 139 191 149.5 196.5 c 128,-1,26
 160 202 160 202 160 216 c 2,27,-1
 158 248 l 1,28,29
 158 333 158 333 154 380 c 128,-1,30
 150 427 150 427 146 428 c 0,31,32
 132 430 132 430 116 430 c 0,33,34
 112 430 112 430 108 430 c 0,35,36
 105 430 105 430 101 429 c 0,37,38
 84 429 84 429 68 432 c 0,39,40
 24 439 24 439 24 479 c 1,41,42
 54 479 54 479 84 475 c 128,-1,43
 114 471 114 471 145 471 c 1,44,-1
 146 502 l 1,45,-1
 139 613 l 1,46,-1
 127 613 l 1,47,-1
 83 607 l 1,48,49
 75 607 75 607 66.5 615.5 c 128,-1,50
 58 624 58 624 58 634.5 c 128,-1,51
 58 645 58 645 67 649.5 c 128,-1,52
 76 654 76 654 88 655 c 128,-1,53
 100 656 100 656 112.5 656.5 c 128,-1,54
 125 657 125 657 132 662 c 128,-1,55
 139 667 139 667 140 671 c 128,-1,56
 141 675 141 675 142 677 c 0,57,58
 144 682 144 682 154 682 c 128,-1,59
 164 682 164 682 168 680 c 128,-1,60
 172 678 172 678 175 676 c 0,61,62
 184 670 184 670 190 670 c 2,63,-1
 369 677 l 2,64,65
 387 677 387 677 387 664.5 c 128,-1,66
 387 652 387 652 385 646 c 128,-1,67
 383 640 383 640 378.5 636.5 c 128,-1,68
 374 633 374 633 367 631 c 128,-1,69
 360 629 360 629 350 626 c 1,70,71
 344 576 344 576 344 550 c 128,-1,72
 344 524 344 524 344.5 516 c 128,-1,73
 345 508 345 508 350 496 c 1,74,75
 371 499 371 499 405 499 c 0,76,77
 456 499 456 499 573 459 c 0,78,79
 654 432 654 432 682 364 c 0,80,81
 692 342 692 342 692 311.5 c 128,-1,82
 692 281 692 281 680 246.5 c 128,-1,83
 668 212 668 212 636 192 c 1,84,85
 610 177 610 177 580.5 165.5 c 128,-1,86
 551 154 551 154 548 154 c 2,87,-1
 362 143 l 1,88,-1
 350 137 l 1,89,90
 347 134 347 134 346 119 c 128,-1,91
 345 104 345 104 344.5 97 c 128,-1,92
 344 90 344 90 344 86 c 2,93,-1
 344 71 l 2,94,95
 344 61 344 61 344.5 52 c 128,-1,96
 345 43 345 43 346 34 c 1,97,-1
 394 34 l 2,0,1
351 454 m 1,98,99
 351 391 351 391 347 330 c 128,-1,100
 343 269 343 269 343 207 c 1,101,102
 428 207 428 207 470.5 225.5 c 128,-1,103
 513 244 513 244 534 269.5 c 128,-1,104
 555 295 555 295 555 337 c 0,105,106
 555 365 555 365 548 371 c 2,107,-1
 480 434 l 2,108,109
 457 455 457 455 393 455 c 0,110,111
 387 454 387 454 381 454 c 0,112,113
 363 454 363 454 351 454 c 1,98,99
EndSplineSet
EndChar

StartChar: U
Encoding: 85 85 49
Width: 741
Flags: W
HStem: -32 44<350.003 481.149> 290 45<313 330.851 353 370.13> 626 57<88.8652 129>
VStem: 18 46<530.285 599.059> 130 180<340.224 620.743> 599 50.5<503.537 675.747> 625 37<224.681 587.227>
LayerCount: 2
Fore
SplineSet
599 659 m 128,-1,1
 599 684 599 684 628 684 c 0,2,3
 635 684 635 684 641.5 676 c 128,-1,4
 648 668 648 668 649.5 648 c 128,-1,5
 651 628 651 628 654 604 c 0,6,7
 656 580 656 580 658 558 c 0,8,9
 662 507 662 507 662 440.5 c 128,-1,10
 662 374 662 374 657.5 303 c 0,11,12
 652 232 652 232 636 178 c 0,13,14
 603 70 603 70 506 0 c 0,15,16
 495 -8 495 -8 447.5 -20 c 128,-1,17
 400 -32 400 -32 391 -32 c 128,-1,18
 382 -32 382 -32 358 -29.5 c 128,-1,19
 334 -27 334 -27 309 -22 c 0,20,21
 249 -10 249 -10 230.5 10 c 128,-1,22
 212 30 212 30 199 44 c 128,-1,23
 186 58 186 58 177.5 70.5 c 128,-1,24
 169 83 169 83 163 98 c 128,-1,25
 157 113 157 113 151 138 c 0,26,27
 141 178 141 178 119 296 c 1,28,-1
 90 309 l 1,29,30
 93 323 93 323 98 329.5 c 128,-1,31
 103 336 103 336 115 340 c 1,32,33
 118 347 118 347 124 377.5 c 128,-1,34
 130 408 130 408 130 410 c 2,35,-1
 124 479 l 1,36,-1
 129 626 l 1,37,38
 103 626 103 626 92 609.5 c 128,-1,39
 81 593 81 593 75 573.5 c 128,-1,40
 69 554 69 554 64 537.5 c 128,-1,41
 59 521 59 521 46 521 c 256,42,43
 33 521 33 521 25.5 530 c 128,-1,44
 18 539 18 539 18 563 c 128,-1,45
 18 587 18 587 33 612.5 c 128,-1,46
 48 638 48 638 72 654 c 0,47,48
 119 684 119 684 190 683 c 1,49,-1
 298 676 l 1,50,51
 323 676 323 676 345.5 680 c 128,-1,52
 368 684 368 684 385 684 c 128,-1,53
 402 684 402 684 402 671 c 128,-1,54
 402 658 402 658 392 649.5 c 128,-1,55
 382 641 382 641 368 635 c 0,56,57
 345 625 345 625 320 621 c 1,58,59
 314 613 314 613 310.5 576 c 128,-1,60
 307 539 307 539 307 528 c 2,61,-1
 310 335 l 1,62,-1
 360 340 l 1,63,64
 371 340 371 340 371 320 c 128,-1,65
 371 300 371 300 353 295.5 c 128,-1,66
 335 291 335 291 313 290 c 1,67,-1
 313 271 l 1,68,-1
 351 19 l 2,69,70
 352 12 352 12 396.5 12 c 128,-1,71
 441 12 441 12 480 33 c 128,-1,72
 519 54 519 54 545.5 87.5 c 128,-1,73
 572 121 572 121 587.5 163.5 c 0,74,75
 604 206 604 206 612 250 c 0,76,77
 626 319 626 319 625 405 c 1,78,-1
 624 460 l 2,79,80
 624 491 624 491 615.5 537.5 c 128,-1,81
 607 584 607 584 603 609 c 128,-1,0
 599 634 599 634 599 659 c 128,-1,1
EndSplineSet
EndChar

StartChar: V
Encoding: 86 86 54
Width: 662
Flags: W
HStem: 296 32<94.0352 150.892> 618 45<-3.84473 100> 634 53<606.928 674.073> 634 45<463.157 545.656>
LayerCount: 2
Fore
SplineSet
636 635 m 1,0,-1
 608 637 l 1,1,-1
 437 -4 l 2,2,3
 433 -18 433 -18 425 -20.5 c 128,-1,4
 417 -23 417 -23 393.5 -23 c 128,-1,5
 370 -23 370 -23 335.5 -14.5 c 128,-1,6
 301 -6 301 -6 264 3 c 1,7,8
 248 14 248 14 246 28 c 1,9,-1
 162 296 l 1,10,-1
 101 296 l 2,11,12
 94 296 94 296 94 310.5 c 128,-1,13
 94 325 94 325 103 328 c 128,-1,14
 112 331 112 331 122.5 331.5 c 128,-1,15
 133 332 133 332 142 334 c 128,-1,16
 151 336 151 336 151 346 c 1,17,-1
 100 618 l 1,18,-1
 2 618 l 2,19,20
 -5 618 -5 618 -5 632.5 c 128,-1,21
 -5 647 -5 647 5.5 653.5 c 128,-1,22
 16 660 16 660 30 663 c 128,-1,23
 44 666 44 666 58.5 666.5 c 128,-1,24
 73 667 73 667 85 668 c 128,-1,25
 97 669 97 669 109 670.5 c 128,-1,26
 121 672 121 672 134 673 c 0,27,28
 160 675 160 675 180 675 c 2,29,-1
 208 675 l 1,30,-1
 240 674 l 1,31,32
 250 674 l 1,33,34
 266 667 266 667 268.5 652.5 c 128,-1,35
 271 638 271 638 272 629 c 128,-1,36
 273 620 273 620 280 612 c 1,37,-1
 419 89 l 1,38,-1
 425 89 l 1,39,-1
 533 526 l 1,40,-1
 533 532 l 1,41,42
 535 536 535 536 538.5 561 c 128,-1,43
 542 586 542 586 544 598 c 128,-1,44
 546 610 546 610 546 612 c 2,45,-1
 546 619 l 2,46,47
 546 634 546 634 539 634 c 2,48,-1
 465 634 l 2,49,50
 458 634 458 634 458 651 c 128,-1,51
 458 668 458 668 463 672.5 c 128,-1,52
 468 677 468 677 476 679 c 128,-1,53
 484 681 484 681 501 682 c 128,-1,54
 518 683 518 683 536.5 684 c 128,-1,55
 555 685 555 685 572 686 c 128,-1,56
 589 687 589 687 594.5 687 c 128,-1,57
 600 687 600 687 613 686.5 c 128,-1,58
 626 686 626 686 640 683 c 0,59,60
 677 675 677 675 677 655 c 128,-1,61
 677 635 677 635 636 635 c 1,0,-1
EndSplineSet
EndChar

StartChar: W
Encoding: 87 87 55
Width: 890
Flags: W
HStem: -18.5 45.5<456.344 493.903> -6 44<180.459 237> 414 21G<44 60> 601 50<817.953 890.047> 607 38<454 515.809>
VStem: 19 50<431.89 575.808> 496 50<440.125 571.59>
LayerCount: 2
Fore
SplineSet
875 595 m 1,0,-1
 832 601 l 258,1,2
 830 601 830 601 825 598.5 c 128,-1,3
 820 596 820 596 820 595 c 2,4,-1
 689 0 l 2,5,6
 687 -10 687 -10 679 -18 c 128,-1,7
 671 -26 671 -26 661 -26 c 128,-1,8
 651 -26 651 -26 644 -19.5 c 128,-1,9
 637 -13 637 -13 637 -6.5 c 128,-1,10
 637 0 637 0 639 6 c 1,11,-1
 534 329 l 1,12,-1
 534 333 l 1,13,-1
 527 335 l 257,14,15
 522 335 522 335 504 254 c 2,16,-1
 454 37 l 2,17,18
 454 33 454 33 460.5 31.5 c 0,19,20
 468 30 468 30 476 27 c 0,21,22
 498 19 498 19 497.5 3 c 128,-1,23
 497 -13 497 -13 494 -16 c 128,-1,24
 491 -19 491 -19 473.5 -18.5 c 128,-1,25
 456 -18 456 -18 416.5 -16.5 c 128,-1,26
 377 -15 377 -15 332.5 -12.5 c 128,-1,27
 288 -10 288 -10 248.5 -8.5 c 128,-1,28
 209 -7 209 -7 193 -6 c 1,29,30
 180 -1 180 -1 180 10.5 c 128,-1,31
 180 22 180 22 186.5 28 c 128,-1,32
 193 34 193 34 202 38 c 0,33,34
 216 44 216 44 237 43 c 1,35,-1
 237 68 l 1,36,-1
 94 571 l 1,37,-1
 87 577 l 1,38,39
 69 539 69 539 69 483 c 0,40,41
 69 466 69 466 72.5 455 c 128,-1,42
 76 444 76 444 76 431.5 c 128,-1,43
 76 419 76 419 72 416.5 c 128,-1,44
 68 414 68 414 52 414 c 128,-1,45
 36 414 36 414 27.5 426.5 c 128,-1,46
 19 439 19 439 19 466 c 128,-1,47
 19 493 19 493 19.5 515 c 0,48,49
 20 536 20 536 24 558 c 0,50,51
 34 610 34 610 63 626 c 2,52,-1
 80 634 l 2,53,54
 125 656 125 656 131 657 c 2,55,-1
 268 657 l 2,56,57
 275 657 275 657 287 650.5 c 128,-1,58
 299 644 299 644 299 637 c 128,-1,59
 299 630 299 630 296 627 c 128,-1,60
 293 624 293 624 289 621 c 0,61,62
 279 613 279 613 279 605 c 2,63,-1
 280 595 l 1,64,-1
 416 118 l 1,65,-1
 422 112 l 1,66,-1
 447 173 l 1,67,-1
 497 440 l 1,68,69
 496 444 496 444 496 448 c 2,70,-1
 496 456 l 2,71,72
 496 491 496 491 506 525 c 128,-1,73
 516 559 516 559 516 595 c 1,74,75
 510 599 510 599 489.5 603 c 128,-1,76
 469 607 469 607 454 607 c 1,77,-1
 450 616 l 2,78,79
 448 621 448 621 447.5 625.5 c 128,-1,80
 447 630 447 630 452 637 c 128,-1,81
 457 644 457 644 466 645 c 2,82,-1
 559 651 l 1,83,84
 591 651 591 651 591 625 c 0,85,86
 591 598 591 598 571 583 c 1,87,88
 560 545 560 545 553 515.5 c 128,-1,89
 546 486 546 486 546 451 c 2,90,-1
 546 428 l 1,91,-1
 658 74 l 1,92,-1
 664 68 l 1,93,-1
 763 558 l 1,94,-1
 763 593 l 1,95,-1
 707 588 l 2,96,97
 699 588 699 588 693.5 589.5 c 128,-1,98
 688 591 688 591 688 601 c 0,99,100
 688 651 688 651 791.5 651 c 128,-1,101
 895 651 895 651 895 616 c 0,102,103
 895 595 895 595 875 595 c 1,0,-1
EndSplineSet
EndChar

StartChar: X
Encoding: 88 88 56
Width: 773
Flags: W
HStem: -25 50<701.316 787.016> -20 43.5<-12.9969 -0.5 -0.108398 28.5> -9 51<138 235.586> 612 50<360 408.295> 625 37<27.5502 82.2825 360.314 407.166>
LayerCount: 2
Fore
SplineSet
421 -39 m 1,0,1
 390 -39 390 -39 390 -16 c 0,2,3
 390 10 390 10 440 17 c 1,4,-1
 440 29 l 1,5,-1
 316 240 l 2,6,7
 312 247 312 247 307 247 c 0,8,9
 306 247 306 247 305 246 c 1,10,-1
 304 246 l 1,11,-1
 138 42 l 1,12,-1
 223 42 l 2,13,14
 229 42 229 42 232.5 32 c 128,-1,15
 236 22 236 22 236 15 c 128,-1,16
 236 8 236 8 222.5 1.5 c 128,-1,17
 209 -5 209 -5 188.5 -9 c 128,-1,18
 168 -13 168 -13 143.5 -15.5 c 0,19,20
 118 -18 118 -18 96 -19 c 0,21,22
 51 -21 51 -21 37 -21 c 258,23,-1
 6 -20 l 1,24,25
 1 -16 1 -16 -6 -8 c 128,-1,26
 -13 0 -13 0 -13 2 c 0,27,28
 -13 18 -13 18 -0.5 23.5 c 128,-1,29
 12 29 12 29 28.5 30 c 128,-1,30
 45 31 45 31 60 31 c 128,-1,31
 75 31 75 31 80 36 c 2,32,-1
 283 296 l 1,33,-1
 87 600 l 2,34,35
 71 625 71 625 44 625 c 0,36,37
 29 625 29 625 27.5 631 c 128,-1,38
 26 637 26 637 24 640 c 1,39,40
 24 650 24 650 36.5 656 c 128,-1,41
 49 662 49 662 55 662 c 2,42,-1
 390 662 l 2,43,44
 393 662 393 662 401 652.5 c 128,-1,45
 409 643 409 643 409 637.5 c 128,-1,46
 409 632 409 632 402.5 627.5 c 0,47,48
 396 624 396 624 388 620 c 0,49,50
 370 612 370 612 360 612 c 1,51,-1
 459 439 l 1,52,53
 459 435 459 435 468 432 c 1,54,-1
 470 432 l 1,55,-1
 638 612 l 1,56,-1
 638 624 l 1,57,-1
 629 624 l 1,58,-1
 604 625 l 1,59,-1
 596 625 l 257,60,-1
 546 619 l 1,61,62
 532 619 532 619 529 629.5 c 128,-1,63
 526 640 526 640 526 646 c 2,64,-1
 526 657 l 2,65,66
 526 662 526 662 527 662 c 2,67,-1
 539 669 l 2,68,69
 541 670 541 670 554 671 c 128,-1,70
 567 672 567 672 585.5 673.5 c 128,-1,71
 604 675 604 675 625.5 676.5 c 128,-1,72
 647 678 647 678 666 679 c 128,-1,73
 685 680 685 680 698.5 681 c 128,-1,74
 712 682 712 682 720 682 c 0,75,76
 756 682 756 682 756 658 c 0,77,78
 756 650 756 650 750 644 c 1,79,-1
 707 625 l 1,80,-1
 508 396 l 1,81,-1
 490 383 l 1,82,-1
 695 29 l 1,83,-1
 701 23 l 1,84,85
 711 25 711 25 734 25 c 128,-1,86
 757 25 757 25 772.5 19.5 c 128,-1,87
 788 14 788 14 788 -6 c 0,88,89
 788 -19 788 -19 781 -20 c 0,90,91
 765 -22 765 -22 744 -23 c 128,-1,92
 723 -24 723 -24 703.5 -25 c 128,-1,93
 684 -26 684 -26 670 -26 c 2,94,-1
 651 -26 l 2,95,96
 622 -26 622 -26 590 -26 c 0,97,98
 579 -26 579 -26 568 -25 c 0,99,100
 547 -25 547 -25 526 -26 c 0,101,102
 450 -28 450 -28 421 -39 c 1,0,1
EndSplineSet
EndChar

StartChar: Y
Encoding: 89 89 57
Width: 712
Flags: W
HStem: -24 55<5.15991 139.188> 639 48<644.073 727.993> 646 41<653.781 716.139>
VStem: 100 57<564.233 602.938>
LayerCount: 2
Fore
SplineSet
143 31 m 1,0,-1
 137 65 l 1,1,-1
 137 69 l 1,2,3
 143 91 143 91 154.5 111.5 c 128,-1,4
 166 132 166 132 177 152 c 0,5,6
 204 202 204 202 204 232.5 c 128,-1,7
 204 263 204 263 196.5 269.5 c 128,-1,8
 189 276 189 276 179.5 276.5 c 128,-1,9
 170 277 170 277 162.5 277 c 128,-1,10
 155 277 155 277 155 284.5 c 128,-1,11
 155 292 155 292 160 296 c 0,12,13
 164 300 164 300 172 303 c 0,14,15
 186 309 186 309 201 311 c 1,16,17
 175 356 175 356 143 442 c 1,18,-1
 100 588 l 1,19,-1
 100 603 l 1,20,21
 40 604 40 604 20 622 c 0,22,23
 10 630 10 630 11 646 c 2,24,-1
 12 662 l 1,25,-1
 158 676 l 1,26,27
 218 676 218 676 218 638 c 1,28,-1
 217 634 l 1,29,-1
 217 631 l 1,30,-1
 158 603 l 1,31,32
 157 601 157 601 157 600 c 2,33,-1
 157 597 l 1,34,35
 160 573 160 573 178 506.5 c 128,-1,36
 196 440 196 440 208 404 c 0,37,38
 234 325 234 325 246 325 c 2,39,-1
 260 325 l 1,40,-1
 404 609 l 1,41,42
 402 615 402 615 402 637.5 c 128,-1,43
 402 660 402 660 407.5 671.5 c 128,-1,44
 413 683 413 683 432 683 c 2,45,-1
 514 681 l 1,46,-1
 739 687 l 1,47,48
 739 658 739 658 700 646 c 0,49,50
 678 640 678 640 653 639 c 1,51,52
 645 607 645 607 608 580 c 1,53,-1
 623 566 l 1,54,55
 618 562 618 562 606 549.5 c 128,-1,56
 594 537 594 537 588 531 c 2,57,-1
 579 522 l 1,58,-1
 579 508 l 1,59,-1
 479 340 l 1,60,-1
 478 331 l 2,61,62
 478 324 478 324 482.5 321.5 c 128,-1,63
 487 319 487 319 493 317.5 c 128,-1,64
 499 316 499 316 503.5 313.5 c 128,-1,65
 508 311 508 311 508 300.5 c 128,-1,66
 508 290 508 290 499 284 c 128,-1,67
 490 278 490 278 478 274.5 c 128,-1,68
 466 271 466 271 453.5 267 c 128,-1,69
 441 263 441 263 435 253 c 0,70,71
 381 172 381 172 356 69 c 0,72,73
 355 67 355 67 355 61 c 128,-1,74
 355 55 355 55 358 46 c 1,75,-1
 487 46 l 1,76,-1
 502 24 l 1,77,78
 476 -24 476 -24 2 -24 c 1,79,80
 2 7 2 7 9 19 c 128,-1,81
 16 31 16 31 21 31 c 2,82,-1
 143 31 l 1,0,-1
EndSplineSet
EndChar

StartChar: Z
Encoding: 90 90 60
Width: 770
Flags: W
HStem: -36 51<620 715.531> 276 51<121.13 172.474> 291.5 34<528.562 581.753> 624 44<179.25 366.455>
VStem: 36 49<441.351 554.561> 721 41<25.75 90.1729>
LayerCount: 2
Fore
SplineSet
719 79 m 258,0,1
 719 91 719 91 733 91 c 0,2,3
 762 91 762 91 762 63 c 0,4,5
 762 23 762 23 737 -6 c 0,6,7
 711 -36 711 -36 671 -36 c 1,8,9
 660 -36 660 -36 650 -33 c 2,10,-1
 336 34 l 1,11,-1
 161 -8 l 1,12,13
 141 -22 141 -22 124 -31 c 128,-1,14
 107 -40 107 -40 92 -40 c 0,15,16
 61 -40 61 -40 61 -21 c 1,17,-1
 62 -14 l 1,18,-1
 167 239 l 1,19,20
 192 275 192 275 192 283 c 1,21,22
 172 276 172 276 148.5 276 c 128,-1,23
 125 276 125 276 121 281 c 128,-1,24
 117 286 117 286 117 295.5 c 128,-1,25
 117 305 117 305 119.5 314.5 c 128,-1,26
 122 324 122 324 136 327 c 2,27,-1
 235 346 l 1,28,-1
 415 593 l 1,29,30
 399 624 399 624 322 624 c 0,31,32
 172 624 172 624 110 559 c 0,33,34
 85 533 85 533 85 491 c 0,35,36
 84 466 84 466 104 444 c 0,37,38
 112 436 112 436 118 429.5 c 128,-1,39
 124 423 124 423 124 416 c 256,40,41
 124 409 124 409 118 404.5 c 128,-1,42
 112 400 112 400 101 400 c 128,-1,43
 90 400 90 400 77 409 c 128,-1,44
 64 418 64 418 55 432 c 0,45,46
 36 462 36 462 36 491 c 0,47,48
 36 542 36 542 65.5 576.5 c 128,-1,49
 95 611 95 611 138 631 c 0,50,51
 218 668 218 668 318 668 c 2,52,-1
 334 668 l 1,53,-1
 538 624 l 1,54,55
 580 624 580 624 614.5 630.5 c 128,-1,56
 649 637 649 637 687 637 c 2,57,-1
 712 637 l 1,58,-1
 706 612 l 1,59,-1
 502 346 l 2,60,61
 501 345 501 345 501 344 c 2,62,-1
 501 342 l 2,63,64
 501 333 501 333 513.5 331.5 c 128,-1,65
 526 330 526 330 541.5 329 c 128,-1,66
 557 328 557 328 569.5 325.5 c 128,-1,67
 582 323 582 323 582 312 c 0,68,69
 582 295 582 295 564 291.5 c 128,-1,70
 546 288 546 288 528 288 c 2,71,-1
 493 288 l 2,72,73
 476 288 476 288 471 289 c 1,74,-1
 458 277 l 1,75,-1
 365 85 l 2,76,77
 365 84 365 84 364 83 c 1,78,79
 364 81 364 81 398 73 c 0,80,81
 457 59 457 59 472 59 c 0,82,83
 476 59 476 59 477 60 c 1,84,-1
 620 16 l 1,85,-1
 638 15 l 1,86,87
 721 15 721 15 721 54 c 257,88,-1
 719 79 l 258,0,1
EndSplineSet
EndChar

StartChar: a
Encoding: 97 97 62
Width: 613
Flags: W
HStem: -47 62<230.541 285.679> -32 78<506.264 546.823> 391 61<258.749 352.44>
VStem: 54 166<18.9841 139.258> 340 138<131.083 203.57> 370 122<248.182 370.416>
LayerCount: 2
Fore
SplineSet
370 312 m 0,0,1
 370 391 370 391 300 391 c 0,2,3
 270 391 270 391 258 368 c 0,4,5
 252 355 252 355 251.5 339.5 c 128,-1,6
 251 324 251 324 255.5 320 c 128,-1,7
 260 316 260 316 260 306 c 0,8,9
 260 288 260 288 239 282 c 0,10,11
 226 278 226 278 201 278 c 256,12,13
 183 278 183 278 156 269 c 128,-1,14
 129 260 129 260 125 260 c 0,15,16
 116 260 116 260 111.5 271 c 128,-1,17
 107 282 107 282 107 292 c 0,18,19
 107 310 107 310 130.5 348.5 c 128,-1,20
 154 387 154 387 171 400 c 0,21,22
 202 423 202 423 228 437.5 c 128,-1,23
 254 452 254 452 282 452 c 0,24,25
 426 452 426 452 468 375 c 0,26,27
 492 331 492 331 492 269 c 0,28,29
 492 242 492 242 485 214 c 128,-1,30
 478 186 478 186 478 160 c 0,31,32
 478 118 478 118 495 82 c 0,33,34
 517 51 517 51 533 46 c 1,35,36
 539 46 539 46 544.5 50 c 128,-1,37
 550 54 550 54 555 54 c 0,38,39
 576 54 576 54 576 33.5 c 128,-1,40
 576 13 576 13 558 -2 c 0,41,42
 522 -32 522 -32 489 -32 c 128,-1,43
 456 -32 456 -32 442 -28 c 128,-1,44
 428 -24 428 -24 417 -17 c 128,-1,45
 406 -10 406 -10 398 -2.5 c 128,-1,46
 390 5 390 5 382 13 c 128,-1,47
 374 21 374 21 367.5 28 c 128,-1,48
 361 35 361 35 360 35 c 0,49,50
 292 -47 292 -47 188 -47 c 0,51,52
 129 -47 129 -47 91.5 -6 c 128,-1,53
 54 35 54 35 54 71 c 0,54,55
 54 139 54 139 122.5 181 c 0,56,57
 192 223 192 223 334 243 c 0,58,59
 348 244 348 244 356 250 c 0,60,61
 370 260 370 260 370 312 c 0,0,1
231 153 m 0,62,63
 220 135 220 135 220 119 c 0,64,65
 220 81 220 81 227 49 c 128,-1,66
 234 17 234 17 251 15 c 1,67,68
 276 15 276 15 294 29 c 0,69,70
 326 54 326 54 328 79 c 2,71,-1
 340 204 l 1,72,73
 262 204 262 204 231 153 c 0,62,63
EndSplineSet
EndChar

StartChar: acute
Encoding: 180 180 65
Width: 242
Flags: W
HStem: 682 26<16.1577 33.9333> 745 24<206 231.5>
VStem: 11 220
LayerCount: 2
Fore
SplineSet
202 768 m 1,0,-1
 206 769 l 1,1,2
 216 769 216 769 224 763 c 128,-1,3
 232 757 232 757 232 751 c 128,-1,4
 232 745 232 745 231.5 745 c 128,-1,5
 231 745 231 745 231 744 c 2,6,-1
 231 743 l 1,7,-1
 43 683 l 2,8,9
 41 682 41 682 39 682 c 2,10,-1
 32 682 l 2,11,12
 21 682 21 682 16 685 c 128,-1,13
 11 688 11 688 11 700 c 2,14,-1
 11 705 l 2,15,16
 11 707 11 707 12 708 c 2,17,-1
 200 768 l 1,18,-1
 202 768 l 1,0,-1
EndSplineSet
EndChar

StartChar: ae
Encoding: 230 230 67
Width: 707
Flags: W
HStem: -65 44<491.16 555.201> -48 50<139.5 240.814> 158 38<238.559 303.987> 181.5 36.5<459.736 538.698> 374 67<487.406 526.917> 417 45<155.5 261.768>
VStem: 19 155<246 344.843> 29 155<19.1292 105.424> 304 155<76.8496 157.714> 329 123<221.096 326.079> 546 136<229.934 339.555>
LayerCount: 2
Fore
SplineSet
494 -65 m 1,0,-1
 484 -64 l 2,1,2
 477 -63 477 -63 462.5 -59.5 c 128,-1,3
 448 -56 448 -56 432 -52 c 0,4,5
 393 -43 393 -43 391 -41 c 1,6,7
 352 -22 352 -22 316 46 c 1,8,9
 305 37 305 37 296.5 25.5 c 128,-1,10
 288 14 288 14 280 4 c 0,11,12
 260 -21 260 -21 240 -29 c 128,-1,13
 220 -37 220 -37 208.5 -40.5 c 0,14,15
 198 -44 198 -44 188 -46 c 0,16,17
 172 -48 172 -48 154 -48 c 0,18,19
 125 -48 125 -48 104.5 -38.5 c 128,-1,20
 84 -29 84 -29 67.5 -17 c 0,21,22
 50 -6 50 -6 42 8 c 0,23,24
 28 29 28 29 29 74 c 0,25,26
 30 97 30 97 34 106 c 0,27,28
 40 119 40 119 62 146 c 1,29,30
 67 157 67 157 82.5 160 c 128,-1,31
 98 163 98 163 118.5 170.5 c 128,-1,32
 139 178 139 178 162 187 c 128,-1,33
 185 196 185 196 206 196 c 0,34,35
 241 196 241 196 304 202 c 0,36,37
 321 204 321 204 325 219 c 128,-1,38
 329 234 329 234 329 255 c 2,39,-1
 329 346 l 1,40,41
 303 380 303 380 284 392 c 0,42,43
 254 411 254 411 211 417 c 0,44,45
 209 417 209 417 204 412 c 1,46,47
 186 374 186 374 181 330.5 c 128,-1,48
 176 287 176 287 174 246 c 1,49,-1
 168 240 l 1,50,-1
 152 238 l 2,51,52
 136 236 136 236 116 234 c 0,53,54
 71 228 71 228 45 228.5 c 128,-1,55
 19 229 19 229 19 251 c 0,56,57
 19 262 19 262 31 308.5 c 128,-1,58
 43 355 43 355 48.5 368.5 c 128,-1,59
 54 382 54 382 65.5 401.5 c 0,60,61
 76 420 76 420 92 434 c 0,62,63
 124 462 124 462 187 462 c 0,64,65
 195 462 195 462 199 460.5 c 128,-1,66
 203 459 203 459 219 454 c 128,-1,67
 235 449 235 449 257.5 441.5 c 128,-1,68
 280 434 280 434 300 424 c 0,69,70
 343 403 343 403 366 362 c 1,71,72
 378 394 378 394 416 417.5 c 128,-1,73
 454 441 454 441 490 441 c 0,74,75
 498 441 498 441 526 430.5 c 128,-1,76
 554 420 554 420 570 414.5 c 128,-1,77
 586 409 586 409 600 402.5 c 128,-1,78
 614 396 614 396 624 388 c 0,79,80
 646 372 646 372 668 324 c 0,81,82
 673 314 673 314 677.5 298 c 128,-1,83
 682 282 682 282 682 276.5 c 128,-1,84
 682 271 682 271 676.5 254.5 c 128,-1,85
 671 238 671 238 664 220 c 0,86,87
 647 178 647 178 638 174 c 1,88,-1
 595 174 l 2,89,90
 570 174 570 174 552 180 c 1,91,92
 542 181 542 181 529 181.5 c 128,-1,93
 516 182 516 182 502 183 c 0,94,95
 470 185 470 185 453 196 c 1,96,-1
 452 177 l 2,97,98
 452 161 452 161 455.5 151.5 c 128,-1,99
 459 142 459 142 459 129 c 2,100,-1
 458 102 l 1,101,-1
 459 91 l 1,102,103
 459 65 459 65 471 37.5 c 128,-1,104
 483 10 483 10 496 -5.5 c 128,-1,105
 509 -21 509 -21 527.5 -21 c 128,-1,106
 546 -21 546 -21 555.5 -10 c 128,-1,107
 565 1 565 1 570 18 c 128,-1,108
 575 35 575 35 577 54 c 128,-1,109
 579 73 579 73 581 90 c 0,110,111
 586 129 586 129 598 129 c 1,112,113
 607 128 607 128 622 120 c 2,114,-1
 638 112 l 2,115,116
 657 100 657 100 669 86 c 128,-1,117
 681 72 681 72 682 70 c 1,118,119
 675 35 675 35 675 34 c 2,120,-1
 676 23 l 1,121,122
 676 3 676 3 635 -22 c 0,123,124
 566 -65 566 -65 494 -65 c 1,0,-1
295.5 104.5 m 128,-1,126
 304 125 304 125 304 141.5 c 128,-1,127
 304 158 304 158 293 158 c 0,128,129
 251 158 251 158 216 118 c 0,130,131
 184 82 184 82 184 44 c 0,132,133
 184 23 184 23 186 19 c 256,134,135
 187 17 187 17 197.5 9.5 c 128,-1,136
 208 2 208 2 212 2 c 128,-1,137
 216 2 216 2 236 14 c 1,138,139
 247 14 247 14 267 49 c 128,-1,125
 287 84 287 84 295.5 104.5 c 128,-1,126
533 229 m 0,140,141
 537 259 537 259 546 274 c 1,142,143
 546 322 546 322 522 362 c 0,144,145
 514 374 514 374 507 374 c 128,-1,146
 500 374 500 374 496 368 c 0,147,148
 476 334 476 334 464 304 c 128,-1,149
 452 274 452 274 452 236 c 0,150,151
 452 224 452 224 459.5 221 c 128,-1,152
 467 218 467 218 480 218 c 128,-1,153
 493 218 493 218 508.5 218.5 c 128,-1,154
 524 219 524 219 539 219 c 1,155,156
 537 220 537 220 535 224 c 128,-1,157
 533 228 533 228 533 229 c 0,140,141
EndSplineSet
EndChar

StartChar: ampersand
Encoding: 38 38 69
Width: 721
Flags: W
HStem: -4 41<250.498 371.708> 37 43<542.352 650.833> 78 64<438.979 498.731> 411 26<503 552.71 639.466 703> 637 42<229.536 355.431>
VStem: 36 160<93.5942 234.324> 145 51<437 597.083> 571 39<224.094 384>
LayerCount: 2
Fore
SplineSet
632 80 m 128,-1,1
 651 74 651 74 651 55.5 c 128,-1,2
 651 37 651 37 627.5 37 c 128,-1,3
 604 37 604 37 586 42.5 c 128,-1,4
 568 48 568 48 550 55 c 0,5,6
 500 74 500 74 477 78 c 0,7,8
 473 78 473 78 450 64 c 1,9,-1
 410 37 l 1,10,-1
 383 23 l 1,11,12
 355 5 355 5 329 0.5 c 128,-1,13
 303 -4 303 -4 274 -4 c 2,14,-1
 238 -4 l 2,15,16
 148 -4 148 -4 93 47 c 0,17,18
 36 100 36 100 36 187 c 2,19,-1
 36 208 l 2,20,21
 36 222 36 222 37 225 c 128,-1,22
 38 228 38 228 44.5 242 c 0,23,24
 52 256 52 256 60 273 c 2,25,-1
 76 306 l 2,26,27
 88 329 88 329 98 340.5 c 128,-1,28
 108 352 108 352 118 363 c 0,29,30
 143 392 143 392 144 395.5 c 0,31,32
 145 400 145 400 145 406 c 2,33,-1
 145 420 l 1,34,-1
 144 496 l 1,35,-1
 144 504 l 2,36,37
 144 510 144 510 149.5 537.5 c 128,-1,38
 155 565 155 565 160.5 586 c 128,-1,39
 166 607 166 607 178.5 628.5 c 0,40,41
 190 650 190 650 210 662 c 0,42,43
 240 680 240 680 321 679 c 0,44,45
 349 679 349 679 367 670 c 0,46,47
 387 660 387 660 437 623 c 0,48,49
 463 605 463 605 463 551 c 0,50,51
 463 500 463 500 409 428 c 0,52,53
 389 401 389 401 366 379 c 0,54,55
 327 340 327 340 298.5 311.5 c 128,-1,56
 270 283 270 283 263 277 c 1,57,58
 302 228 302 228 404 170 c 0,59,60
 454 142 454 142 463.5 142 c 128,-1,61
 473 142 473 142 490.5 156.5 c 128,-1,62
 508 171 508 171 526 191 c 0,63,64
 569 240 569 240 570 263 c 2,65,-1
 571 288 l 1,66,-1
 571 354 l 1,67,-1
 570 384 l 1,68,69
 559 403 559 403 503 411 c 1,70,-1
 503 437 l 1,71,-1
 703 437 l 1,72,-1
 703 411 l 1,73,74
 686 411 686 411 663 405 c 128,-1,75
 640 399 640 399 636 396.5 c 128,-1,76
 632 394 632 394 627 376 c 128,-1,77
 622 358 622 358 618 334 c 0,78,79
 610 276 610 276 610 237 c 1,80,81
 608 235 608 235 603 230.5 c 128,-1,82
 598 226 598 226 596 224 c 2,83,-1
 529 130 l 1,84,-1
 529 123 l 2,85,86
 529 105 529 105 548 99 c 128,-1,87
 567 93 567 93 590 89.5 c 128,-1,0
 613 86 613 86 632 80 c 128,-1,1
197.5 173.5 m 128,-1,89
 196 159 196 159 196 143.5 c 128,-1,90
 196 128 196 128 200 110 c 128,-1,91
 204 92 204 92 217 82.5 c 128,-1,92
 230 73 230 73 239.5 66 c 0,93,94
 248 58 248 58 260 52 c 0,95,96
 287 37 287 37 304 37 c 0,97,98
 307 37 307 37 329 42.5 c 128,-1,99
 351 48 351 48 356.5 50 c 128,-1,100
 362 52 362 52 374 57.5 c 128,-1,101
 386 63 386 63 397 70 c 0,102,103
 425 88 425 88 425 97 c 0,104,105
 425 103 425 103 368 140 c 128,-1,106
 311 177 311 177 304.5 182 c 128,-1,107
 298 187 298 187 286.5 196.5 c 128,-1,108
 275 206 275 206 263 215 c 0,109,110
 232 238 232 238 225.5 238 c 128,-1,111
 219 238 219 238 212.5 227.5 c 128,-1,112
 206 217 206 217 202.5 202.5 c 128,-1,88
 199 188 199 188 197.5 173.5 c 128,-1,89
331.5 636 m 128,-1,114
 319 637 319 637 293 637 c 128,-1,115
 267 637 267 637 245.5 627 c 0,116,117
 224 616 224 616 213 598 c 0,118,119
 196 569 196 569 196 496 c 2,120,-1
 196 437 l 1,121,122
 222 454 222 454 249 472 c 128,-1,123
 276 490 276 490 299 512 c 0,124,125
 351 561 351 561 356 623 c 1,126,113
 344 635 344 635 331.5 636 c 128,-1,114
EndSplineSet
EndChar

StartChar: asciicircum
Encoding: 94 94 71
Width: 409
Flags: W
HStem: 427 236
LayerCount: 2
Fore
SplineSet
201 663 m 1,0,-1
 206 664 l 1,1,2
 240 657 240 657 248 651 c 2,3,-1
 379 533 l 2,4,5
 381 531 381 531 386 522.5 c 128,-1,6
 391 514 391 514 391 508 c 0,7,8
 391 496 391 496 366 496 c 1,9,-1
 236 601 l 2,10,11
 232 605 232 605 227.5 606 c 128,-1,12
 223 607 223 607 221 607.5 c 128,-1,13
 219 608 219 608 219 607.5 c 128,-1,14
 219 607 219 607 218 607 c 2,15,-1
 217 607 l 1,16,-1
 69 446 l 2,17,18
 58 435 58 435 52 431 c 128,-1,19
 46 427 46 427 36 427 c 128,-1,20
 26 427 26 427 21.5 429.5 c 128,-1,21
 17 432 17 432 12 440 c 1,22,23
 18 469 18 469 30.5 482 c 128,-1,24
 43 495 43 495 69 508 c 1,25,-1
 198 663 l 1,26,-1
 201 663 l 1,0,-1
EndSplineSet
EndChar

StartChar: asciitilde
Encoding: 126 126 72
Width: 677
Flags: W
HStem: 304 42<455 548.381> 354 45<162.275 270> 396 20G<585.5 604>
LayerCount: 2
Fore
SplineSet
74 260 m 0,0,1
 52 260 52 260 52 285 c 128,-1,2
 52 310 52 310 70.5 326.5 c 128,-1,3
 89 343 89 343 111 363 c 0,4,5
 151 399 151 399 234 399 c 1,6,7
 270 397 l 1,8,-1
 455 347 l 1,9,-1
 464 346 l 1,10,11
 511 346 511 346 542 362 c 128,-1,12
 573 378 573 378 598 416 c 1,13,14
 610 416 610 416 614.5 411.5 c 128,-1,15
 619 407 619 407 623 397 c 1,16,17
 610 327 610 327 523 309 c 0,18,19
 499 304 499 304 476 304 c 2,20,-1
 462 304 l 1,21,-1
 245 354 l 1,22,-1
 233 354 l 2,23,24
 176 354 176 354 132 307 c 0,25,26
 116 289 116 289 102.5 274.5 c 128,-1,27
 89 260 89 260 74 260 c 0,0,1
EndSplineSet
EndChar

StartChar: asterisk
Encoding: 42 42 73
Width: 361
Flags: W
HStem: 440 21G<176 201> 515 33<48.6729 93.418> 672 20G<176 207>
VStem: 176 25<440 529 630.063 692>
LayerCount: 2
Fore
SplineSet
176 529 m 1,0,1
 171 524 171 524 120 490 c 1,2,-1
 113 490 l 2,3,4
 105 490 105 490 99.5 496 c 128,-1,5
 94 502 94 502 94 511.5 c 128,-1,6
 94 521 94 521 107 529 c 1,7,-1
 100 529 l 2,8,9
 89 529 89 529 81 522 c 128,-1,10
 73 515 73 515 63.5 515 c 128,-1,11
 54 515 54 515 48.5 521 c 128,-1,12
 43 527 43 527 43 535 c 1,13,-1
 44 541 l 1,14,15
 48 543 48 543 59 548 c 128,-1,16
 70 553 70 553 82 559 c 2,17,-1
 105 570 l 2,18,19
 126 580 126 580 129 585 c 128,-1,20
 132 590 132 590 132 600 c 128,-1,21
 132 610 132 610 127.5 617.5 c 0,22,23
 124 626 124 626 118 632 c 0,24,25
 104 649 104 649 103 671 c 1,26,27
 118 671 118 671 127.5 660 c 0,28,29
 136 649 136 649 142 642 c 0,30,31
 156 624 156 624 168 630 c 0,32,33
 172 632 172 632 176 635 c 1,34,-1
 176 692 l 1,35,-1
 207 692 l 1,36,-1
 207 629 l 1,37,38
 237 661 237 661 285 661 c 1,39,40
 285 637 285 637 271 616 c 1,41,42
 299 607 299 607 308 591 c 1,43,44
 271 578 271 578 220 566 c 1,45,46
 230 550 230 550 253 540 c 128,-1,47
 276 530 276 530 288 523 c 128,-1,48
 300 516 300 516 308 504 c 1,49,50
 308 500 308 500 303 495 c 128,-1,51
 298 490 298 490 296 490 c 256,52,53
 294 490 294 490 279.5 495 c 128,-1,54
 265 500 265 500 260 502.5 c 128,-1,55
 255 505 255 505 246.5 508 c 128,-1,56
 238 511 238 511 229 515 c 0,57,58
 208 524 208 524 201 529 c 1,59,-1
 201 440 l 1,60,-1
 176 440 l 1,61,-1
 176 529 l 1,0,1
EndSplineSet
EndChar

StartChar: at
Encoding: 64 64 74
Width: 704
Flags: W
HStem: 35.5 50.5<255.154 499.817> 212 25<335.864 373.749> 376 39<386 409.419> 514 50<349.61 495.715>
VStem: 46 112<177.329 338.82> 272 38<255.379 318.994> 412 50<272.056 370.582> 538 114<284.465 472.811>
LayerCount: 2
Fore
SplineSet
484 249 m 1,0,1
 538 267 538 267 538 388 c 2,2,-1
 538 402 l 1,3,-1
 537 432 l 1,4,-1
 537 438 l 1,5,6
 533 469 533 469 496 492 c 0,7,8
 461 514 461 514 428.5 514 c 128,-1,9
 396 514 396 514 363 499 c 128,-1,10
 330 484 330 484 300 462 c 0,11,12
 261 433 261 433 197 362 c 0,13,14
 170 331 170 331 164 300.5 c 128,-1,15
 158 270 158 270 158 248 c 2,16,-1
 158 219 l 1,17,-1
 160 174 l 1,18,19
 212 109 212 109 320 91 c 0,20,21
 350 86 350 86 386 86 c 0,22,23
 469 86 469 86 537 124 c 0,24,25
 543 128 543 128 556.5 136.5 c 0,26,27
 570 146 570 146 584 154 c 0,28,29
 618 176 618 176 619 175 c 0,30,31
 637 175 637 175 637 162 c 0,32,33
 638 145 638 145 610 120 c 0,34,35
 585 97 585 97 546.5 77.5 c 128,-1,36
 508 58 508 58 478 50 c 0,37,38
 426 36 426 36 368.5 35.5 c 128,-1,39
 311 35 311 35 279.5 38 c 128,-1,40
 248 41 248 41 217 49 c 0,41,42
 112 76 112 76 64 184 c 0,43,44
 46 226 46 226 46 267.5 c 128,-1,45
 46 309 46 309 61 343.5 c 128,-1,46
 76 378 76 378 99.5 418 c 128,-1,47
 123 458 123 458 159.5 484 c 128,-1,48
 196 510 196 510 239 525 c 128,-1,49
 282 540 282 540 329 548 c 128,-1,50
 376 556 376 556 424 564 c 1,51,-1
 442 564 l 2,52,53
 472 564 472 564 522.5 548 c 128,-1,54
 573 532 573 532 589.5 524.5 c 128,-1,55
 606 517 606 517 618.5 497 c 0,56,57
 630 476 630 476 638 452 c 0,58,59
 652 408 652 408 652 369 c 128,-1,60
 652 330 652 330 637.5 299 c 0,61,62
 624 268 624 268 600 243 c 0,63,64
 546 186 546 186 486 186 c 1,65,66
 481 186 481 186 461.5 193.5 c 128,-1,67
 442 201 442 201 432 206.5 c 128,-1,68
 422 212 422 212 417.5 218 c 128,-1,69
 413 224 413 224 412 224 c 2,70,-1
 373 212 l 1,71,72
 314 212 314 212 284 246 c 0,73,74
 272 260 272 260 272 281 c 2,75,-1
 272 285 l 2,76,77
 272 289 272 289 287 319 c 0,78,79
 302 348 302 348 317 368 c 0,80,81
 353 414 353 414 393 415 c 0,82,83
 429 416 429 416 448 376 c 0,84,85
 462 347 462 347 462 319 c 128,-1,86
 462 291 462 291 456.5 280 c 128,-1,87
 451 269 451 269 451 257 c 1,88,-1
 484 249 l 1,0,1
310 280 m 0,89,90
 310 270 310 270 349 237 c 1,91,92
 376 238 376 238 397 286 c 0,93,94
 412 321 412 321 412 338 c 128,-1,95
 412 355 412 355 409.5 365.5 c 128,-1,96
 407 376 407 376 392 376 c 1,97,-1
 386 375 l 1,98,99
 310 311 310 311 310 280 c 0,89,90
EndSplineSet
EndChar

StartChar: b
Encoding: 98 98 76
Width: 569
Flags: W
HStem: -37 21G<101.25 125.75> -11 44<266.669 356.535> 369 50<275.97 378.804>
VStem: 89 134<72.4968 322.469 361 556.062> 404 152<109.054 300.421>
LayerCount: 2
Fore
SplineSet
73 566 m 1,0,1
 67 563 67 563 42 563 c 128,-1,2
 17 563 17 563 7 568 c 128,-1,3
 -3 573 -3 573 -3 584.5 c 128,-1,4
 -3 596 -3 596 0.5 601.5 c 128,-1,5
 4 607 4 607 9.5 610 c 128,-1,6
 15 613 15 613 20.5 614 c 128,-1,7
 26 615 26 615 31.5 616.5 c 0,8,9
 38 618 38 618 54 624 c 2,10,-1
 88 635 l 2,11,12
 145 654 145 654 161 662 c 0,13,14
 176 670 176 670 190 676 c 0,15,16
 224 692 224 692 240.5 692.5 c 128,-1,17
 257 693 257 693 262.5 685 c 128,-1,18
 268 677 268 677 268 663.5 c 128,-1,19
 268 650 268 650 262 642.5 c 128,-1,20
 256 635 256 635 254.5 623 c 128,-1,21
 253 611 253 611 248.5 581.5 c 128,-1,22
 244 552 244 552 239 514 c 0,23,24
 224 402 224 402 223 361 c 1,25,-1
 246 384 l 2,26,27
 269 407 269 407 295 413 c 128,-1,28
 321 419 321 419 359.5 419 c 128,-1,29
 398 419 398 419 436 401.5 c 128,-1,30
 474 384 474 384 500 354 c 0,31,32
 556 290 556 290 556 190 c 0,33,34
 556 115 556 115 494 61 c 0,35,36
 429 5 429 5 329 -11 c 1,37,38
 303 -11 303 -11 286 -5 c 128,-1,39
 269 1 269 1 247 14 c 1,40,41
 244 18 244 18 242.5 19.5 c 128,-1,42
 241 21 241 21 235 21 c 1,43,44
 221 14 221 14 206 4 c 0,45,46
 192 -6 192 -6 176 -15 c 0,47,48
 138 -37 138 -37 113.5 -37 c 128,-1,49
 89 -37 89 -37 84 -28.5 c 128,-1,50
 79 -20 79 -20 79 10.5 c 128,-1,51
 79 41 79 41 84 82 c 128,-1,52
 89 123 89 123 89 162 c 128,-1,53
 89 201 89 201 88 253.5 c 128,-1,54
 87 306 87 306 85 362 c 0,55,56
 80 488 80 488 73 566 c 1,0,1
370 358 m 0,57,58
 358 369 358 369 343 369 c 128,-1,59
 328 369 328 369 307 362 c 0,60,61
 286 354 286 354 268 342 c 0,62,63
 224 312 224 312 223 274 c 2,64,-1
 223 127 l 2,65,66
 223 94 223 94 252 64 c 0,67,68
 293 37 293 37 318 33 c 1,69,70
 356 34 356 34 381 100 c 0,71,72
 404 162 404 162 404 237 c 0,73,74
 404 326 404 326 370 358 c 0,57,58
EndSplineSet
EndChar

StartChar: backslash
Encoding: 92 92 77
Width: 371
Flags: W
VStem: 35 297
LayerCount: 2
Fore
SplineSet
314 -18 m 0,0,1
 299 -18 299 -18 256 82 c 0,2,3
 245 108 245 108 237.5 126 c 128,-1,4
 230 144 230 144 212.5 187 c 128,-1,5
 195 230 195 230 172.5 286 c 128,-1,6
 150 342 150 342 125.5 403 c 128,-1,7
 101 464 101 464 81 517 c 0,8,9
 35 639 35 639 35 649 c 128,-1,10
 35 659 35 659 42 664 c 128,-1,11
 49 669 49 669 57 669 c 128,-1,12
 65 669 65 669 78.5 650 c 0,13,14
 92 630 92 630 106 604 c 0,15,16
 121 576 121 576 154 499 c 1,17,18
 193 399 193 399 199 374 c 0,19,20
 204 349 204 349 208 337 c 0,21,22
 215 312 215 312 224 291 c 2,23,-1
 242 246 l 2,24,25
 271 174 271 174 284.5 138 c 128,-1,26
 298 102 298 102 308 74 c 0,27,28
 332 12 332 12 332 -3 c 128,-1,29
 332 -18 332 -18 314 -18 c 0,0,1
EndSplineSet
EndChar

StartChar: bar
Encoding: 124 124 78
Width: 247
Flags: W
VStem: 92 52<280.861 631.397> 104 48<18.9668 454.107>
LayerCount: 2
Fore
SplineSet
152 128 m 0,0,1
 152 18 152 18 132.5 18 c 128,-1,2
 113 18 113 18 110 40 c 0,3,4
 104 82 104 82 104 174 c 2,5,-1
 104 279 l 2,6,7
 104 309 104 309 102 325 c 0,8,9
 100 340 100 340 98 360 c 0,10,11
 92 418 92 418 92 499 c 0,12,13
 92 633 92 633 119 633 c 0,14,15
 125 633 125 633 134.5 627 c 128,-1,16
 144 621 144 621 144 614 c 0,17,18
 146 327 146 327 149 239.5 c 128,-1,19
 152 152 152 152 152 128 c 0,0,1
EndSplineSet
EndChar

StartChar: braceleft
Encoding: 123 123 79
Width: 458
Flags: W
HStem: 1 57<329.147 443.936> 321 50.5<29.2214 65.172> 646 64<324.373 400.615>
VStem: 72 199<115.724 277.281> 79 205<196 319.656>
LayerCount: 2
Fore
SplineSet
426 62 m 1,0,1
 446 51 446 51 446 21 c 0,2,3
 446 13 446 13 444 8 c 128,-1,4
 442 3 442 3 432 0 c 1,5,-1
 413 1 l 1,6,7
 378 1 378 1 345 -6 c 128,-1,8
 312 -13 312 -13 272 -13 c 128,-1,9
 232 -13 232 -13 195.5 4 c 0,10,11
 160 21 160 21 132 50 c 0,12,13
 72 113 72 113 72 196 c 1,14,-1
 79 279 l 1,15,-1
 79 304 l 1,16,17
 72 315 72 315 54 321 c 128,-1,18
 36 327 36 327 29 331.5 c 128,-1,19
 22 336 22 336 22 347.5 c 128,-1,20
 22 359 22 359 28.5 364.5 c 128,-1,21
 35 370 35 370 45 371.5 c 128,-1,22
 55 373 55 373 65.5 373.5 c 128,-1,23
 76 374 76 374 82 377 c 128,-1,24
 88 380 88 380 93.5 384 c 0,25,26
 100 388 100 388 104 393 c 0,27,28
 116 407 116 407 116 409 c 2,29,-1
 141 577 l 2,30,31
 146 618 146 618 242 666 c 0,32,33
 280 686 280 686 319.5 698 c 128,-1,34
 359 710 359 710 382 710 c 0,35,36
 433 710 433 710 433 688 c 0,37,38
 433 679 433 679 417.5 673.5 c 128,-1,39
 402 668 402 668 382.5 661.5 c 128,-1,40
 363 655 363 655 345 646 c 128,-1,41
 327 637 327 637 318.5 613 c 128,-1,42
 310 589 310 589 308 559 c 128,-1,43
 306 529 306 529 305.5 499.5 c 128,-1,44
 305 470 305 470 301.5 441 c 128,-1,45
 298 412 298 412 288 393 c 128,-1,46
 278 374 278 374 271 361.5 c 128,-1,47
 264 349 264 349 264 340 c 128,-1,48
 264 331 264 331 274 316 c 128,-1,49
 284 301 284 301 284 278 c 128,-1,50
 284 255 284 255 277.5 230 c 128,-1,51
 271 205 271 205 271 180 c 128,-1,52
 271 155 271 155 282 133 c 0,53,54
 293 110 293 110 311 94 c 0,55,56
 351 58 351 58 399 58 c 0,57,58
 414 58 414 58 426 62 c 1,0,1
EndSplineSet
EndChar

StartChar: braceright
Encoding: 125 125 80
Width: 458
Flags: W
HStem: 1 57<14.0645 127.677> 661.5 48.5<26.2451 121.166>
VStem: 174 205<196 319.209> 187 199<115.724 277.281>
LayerCount: 2
Fore
SplineSet
45 1 m 1,0,-1
 26 0 l 1,1,2
 16 3 16 3 14 8 c 128,-1,3
 12 13 12 13 12 23 c 0,4,5
 12 51 12 51 32 62 c 1,6,7
 44 58 44 58 63.5 58 c 128,-1,8
 83 58 83 58 106 68 c 128,-1,9
 129 78 129 78 147 94 c 0,10,11
 187 131 187 131 187 179 c 0,12,13
 187 205 187 205 180.5 230 c 128,-1,14
 174 255 174 255 174 278 c 128,-1,15
 174 301 174 301 184 316 c 128,-1,16
 194 331 194 331 194 340 c 128,-1,17
 194 349 194 349 187 361.5 c 128,-1,18
 180 374 180 374 170 393 c 128,-1,19
 160 412 160 412 156.5 441 c 128,-1,20
 153 470 153 470 152.5 499.5 c 128,-1,21
 152 529 152 529 150 559 c 128,-1,22
 148 589 148 589 139.5 613 c 128,-1,23
 131 637 131 637 112.5 646 c 128,-1,24
 94 655 94 655 74.5 661.5 c 128,-1,25
 55 668 55 668 40 673.5 c 128,-1,26
 25 679 25 679 25 688 c 0,27,28
 25 710 25 710 76 710 c 0,29,30
 126 710 126 710 216 666 c 0,31,32
 274 637 274 637 294.5 614.5 c 128,-1,33
 315 592 315 592 317 577 c 2,34,-1
 342 409 l 2,35,36
 342 407 342 407 350 397 c 0,37,38
 364 381 364 381 373 377.5 c 128,-1,39
 382 374 382 374 392.5 373.5 c 0,40,41
 403 374 403 374 413 372 c 0,42,43
 436 369 436 369 436 346 c 0,44,45
 436 336 436 336 429 331.5 c 128,-1,46
 422 327 422 327 413 324 c 0,47,48
 386 315 386 315 379 304 c 1,49,-1
 379 279 l 1,50,-1
 386 196 l 1,51,52
 386 113 386 113 326 50 c 128,-1,53
 266 -13 266 -13 184 -13 c 1,54,55
 146 -13 146 -13 113 -6 c 128,-1,56
 80 1 80 1 45 1 c 1,0,-1
EndSplineSet
EndChar

StartChar: bracketleft
Encoding: 91 91 81
Width: 490
Flags: W
HStem: -37 21G<174.5 212.5> 665 20G<109 350>
VStem: 89 165<489.056 638.219>
LayerCount: 2
Fore
SplineSet
91 629 m 2,0,-1
 96 666 l 2,1,2
 96 671 96 671 102 678 c 128,-1,3
 108 685 108 685 110 685 c 2,4,-1
 410 660 l 1,5,6
 412 662 412 662 417.5 668 c 128,-1,7
 423 674 423 674 430 680.5 c 128,-1,8
 437 687 437 687 443 692.5 c 128,-1,9
 449 698 449 698 451 700 c 0,10,11
 453 701 453 701 454 701 c 0,12,13
 454 700 l 0,14,15
 456 700 456 700 458 700 c 256,16,17
 460 700 460 700 462 700 c 128,-1,18
 464 700 464 700 464 699 c 0,19,20
 474 682 474 682 474 664.5 c 128,-1,21
 474 647 474 647 473 634.5 c 128,-1,22
 472 622 472 622 471 614.5 c 0,23,24
 470 606 470 606 468 600 c 0,25,26
 463 584 463 584 450 585.5 c 128,-1,27
 437 587 437 587 431 595.5 c 128,-1,28
 425 604 425 604 419 614 c 1,29,-1
 270 639 l 2,30,31
 259 641 259 641 256.5 631 c 128,-1,32
 254 621 254 621 254 616 c 2,33,-1
 254 603 l 1,34,-1
 290 17 l 1,35,-1
 378 9 l 2,36,37
 388 8 388 8 390 17 c 128,-1,38
 392 26 392 26 392 37 c 0,39,40
 392 68 392 68 408 71 c 1,41,42
 437 47 437 47 462 -36 c 1,43,-1
 463 -51 l 1,44,45
 448 -50 448 -50 431 -42 c 0,46,47
 398 -28 398 -28 376 -27 c 0,48,49
 366 -26 366 -26 356 -26 c 0,50,51
 343 -26 343 -26 329 -27 c 0,52,53
 302 -29 302 -29 276 -32 c 0,54,55
 229 -37 229 -37 196 -37 c 0,56,57
 153 -36 153 -36 131 -28 c 0,58,59
 115 -22 115 -22 112 6 c 1,60,-1
 89 592 l 1,61,-1
 89 598 l 2,62,63
 89 602 89 602 89.5 608 c 128,-1,64
 90 614 90 614 90.5 620 c 128,-1,65
 91 626 91 626 91 629 c 2,0,-1
EndSplineSet
EndChar

StartChar: bracketright
Encoding: 93 93 82
Width: 490
Flags: W
HStem: -26 43<123 200> 665 20G<140 381>
LayerCount: 2
Fore
SplineSet
237 603 m 1,0,-1
 236 616 l 2,1,2
 236 621 236 621 233.5 631 c 128,-1,3
 231 641 231 641 221 639 c 2,4,-1
 71 614 l 1,5,6
 65 604 65 604 59 595.5 c 128,-1,7
 53 587 53 587 43 586 c 128,-1,8
 33 585 33 585 28.5 589.5 c 128,-1,9
 24 594 24 594 22 600.5 c 128,-1,10
 20 607 20 607 19.5 614.5 c 128,-1,11
 19 622 19 622 17.5 634.5 c 128,-1,12
 16 647 16 647 16 664.5 c 128,-1,13
 16 682 16 682 26 699 c 0,14,15
 26 700 26 700 28 700 c 128,-1,16
 30 700 30 700 32 700 c 256,17,18
 34 700 34 700 36 700 c 0,19,20
 36 701 l 0,21,22
 38 702 38 702 40 700 c 128,-1,23
 42 698 42 698 48 692.5 c 128,-1,24
 54 687 54 687 60.5 680.5 c 128,-1,25
 67 674 67 674 72.5 668 c 128,-1,26
 78 662 78 662 80 660 c 1,27,-1
 380 685 l 2,28,29
 382 685 382 685 388 678 c 128,-1,30
 394 671 394 671 395 668 c 128,-1,31
 396 665 396 665 397 650.5 c 128,-1,32
 398 636 398 636 398.5 631 c 128,-1,33
 399 626 399 626 399.5 620 c 128,-1,34
 400 614 400 614 400.5 608 c 128,-1,35
 401 602 401 602 401 598 c 2,36,-1
 401 592 l 1,37,-1
 378 6 l 1,38,39
 375 -22 375 -22 359 -28.5 c 128,-1,40
 343 -35 343 -35 318 -37 c 0,41,42
 306 -38 306 -38 293 -38 c 128,-1,43
 280 -38 280 -38 266 -37 c 0,44,45
 240 -35 240 -35 214 -32 c 0,46,47
 165 -26 165 -26 132 -26 c 0,48,49
 101 -26 101 -26 87 -32 c 0,50,51
 78 -36 78 -36 68 -39 c 0,52,53
 42 -50 42 -50 27 -51 c 1,54,-1
 28 -36 l 1,55,56
 53 47 53 47 82 71 c 1,57,58
 98 68 98 68 98 37 c 0,59,60
 98 26 98 26 99.5 17 c 128,-1,61
 101 8 101 8 112 9 c 2,62,-1
 200 17 l 1,63,-1
 237 603 l 1,0,-1
EndSplineSet
EndChar

StartChar: breve
Encoding: 728 728 83
Width: 478
Flags: W
HStem: 654.5 45.5<121.826 326.573>
LayerCount: 2
Fore
SplineSet
454 812 m 0,0,1
 454 773 454 773 429 743.5 c 128,-1,2
 404 714 404 714 368 694 c 0,3,4
 294 654 294 654 222.5 654.5 c 128,-1,5
 151 655 151 655 103 680.5 c 128,-1,6
 55 706 55 706 19 762 c 0,7,8
 18 763 18 763 18 764 c 2,9,-1
 18 771 l 2,10,11
 18 786 18 786 25 794 c 1,12,13
 61 794 61 794 82 768 c 0,14,15
 91 757 91 757 99.5 744 c 128,-1,16
 108 731 108 731 126 718 c 0,17,18
 150 700 150 700 205.5 700 c 128,-1,19
 261 700 261 700 305 713 c 128,-1,20
 349 726 349 726 379 762 c 0,21,22
 382 766 382 766 386.5 777.5 c 128,-1,23
 391 789 391 789 397 801 c 0,24,25
 412 831 412 831 433 831 c 128,-1,26
 454 831 454 831 454 812 c 0,0,1
EndSplineSet
EndChar

StartChar: brokenbar
Encoding: 166 166 84
Width: 189
Flags: W
VStem: 71 37<78.0728 232.043> 71 25<78 188.716> 83 38<407.232 619.856> 83 25<404 522.759>
LayerCount: 2
Fore
SplineSet
71 257 m 1,0,1
 100 258 100 258 106 210 c 0,2,3
 108 198 108 198 108 189 c 128,-1,4
 108 180 108 180 106.5 161 c 128,-1,5
 105 142 105 142 103 124 c 0,6,7
 98 80 98 80 96 78 c 2,8,-1
 83 65 l 1,9,-1
 71 78 l 1,10,-1
 71 257 l 1,0,1
121 538 m 2,11,12
 121 508 121 508 108 404 c 1,13,-1
 83 404 l 1,14,-1
 83 606 l 2,15,16
 83 613 83 613 90.5 616.5 c 128,-1,17
 98 620 98 620 104.5 620 c 128,-1,18
 111 620 111 620 115 613 c 0,19,20
 118 606 118 606 120 597 c 0,21,22
 121 590 121 590 122 583 c 2,23,-1
 121 538 l 2,11,12
EndSplineSet
EndChar

StartChar: bullet
Encoding: 8226 8226 85
Width: 293
Flags: W
HStem: 165 171<93 209.691>
VStem: 49 190<198.163 295.896>
LayerCount: 2
Fore
SplineSet
49 246 m 0,0,1
 49 266 49 266 60 282.5 c 128,-1,2
 71 299 71 299 88 311 c 0,3,4
 123 336 123 336 162 336 c 128,-1,5
 201 336 201 336 220 311.5 c 128,-1,6
 239 287 239 287 239 250.5 c 128,-1,7
 239 214 239 214 213 189.5 c 128,-1,8
 187 165 187 165 146 165 c 0,9,10
 114 166 114 166 82 188 c 0,11,12
 50 212 50 212 49 246 c 0,0,1
EndSplineSet
EndChar

StartChar: c
Encoding: 99 99 86
Width: 525
Flags: W
HStem: -29 35<264.48 367.399> 281 156<423.676 489.856> 374 47<249.59 362.265>
VStem: 15 186.5<88.8184 296.392>
LayerCount: 2
Fore
SplineSet
320.5 415.5 m 128,-1,1
 346 410 346 410 383 410 c 128,-1,2
 420 410 420 410 454 437 c 1,3,4
 467 437 467 437 478.5 428.5 c 128,-1,5
 490 420 490 420 490 419 c 2,6,-1
 490 305 l 2,7,8
 490 295 490 295 478 288 c 128,-1,9
 466 281 466 281 455.5 281 c 128,-1,10
 445 281 445 281 430.5 295.5 c 128,-1,11
 416 310 416 310 396 328 c 0,12,13
 343 374 343 374 286 374 c 0,14,15
 265 374 265 374 248.5 352 c 128,-1,16
 232 330 232 330 222 305 c 128,-1,17
 212 280 212 280 208 256 c 0,18,19
 202 222 202 222 201.5 182 c 128,-1,20
 201 142 201 142 208.5 112.5 c 0,21,22
 216 84 216 84 228 60 c 0,23,24
 266 14 266 14 295 6 c 1,25,26
 365 6 365 6 428 67 c 0,27,28
 434 74 434 74 437 82.5 c 0,29,30
 440 90 440 90 444 98 c 0,31,32
 453 115 453 115 472 115.5 c 128,-1,33
 491 116 491 116 497 106 c 128,-1,34
 503 96 503 96 503 86 c 1,35,36
 494 68 494 68 473.5 47 c 128,-1,37
 453 26 453 26 431.5 11 c 128,-1,38
 410 -4 410 -4 386 -13 c 0,39,40
 343 -29 343 -29 281.5 -29 c 129,-1,41
 220 -29 220 -29 172.5 -18 c 0,42,43
 125 -6 125 -6 90 20 c 0,44,45
 15 77 15 77 15 204 c 0,46,47
 16 292 16 292 78 352 c 0,48,49
 149 420 149 420 265 421 c 0,50,0
 295 421 295 421 320.5 415.5 c 128,-1,1
EndSplineSet
EndChar

StartChar: caron
Encoding: 711 711 87
Width: 415
Flags: W
HStem: 654 167
LayerCount: 2
Fore
SplineSet
19.5 764 m 128,-1,1
 18 768 18 768 18 780 c 128,-1,2
 18 792 18 792 22.5 794.5 c 128,-1,3
 27 797 27 797 44 797 c 1,4,-1
 198 704 l 1,5,-1
 354 816 l 1,6,7
 359 821 359 821 369.5 821 c 128,-1,8
 380 821 380 821 385.5 815 c 128,-1,9
 391 809 391 809 391 801 c 2,10,-1
 391 797 l 1,11,-1
 360 760 l 1,12,-1
 211 654 l 1,13,-1
 186 654 l 1,14,-1
 31 754 l 2,15,0
 21 760 21 760 19.5 764 c 128,-1,1
EndSplineSet
EndChar

StartChar: cedilla
Encoding: 184 184 89
Width: 192
Flags: W
HStem: -258 37<43.0508 110.944>
VStem: 62 36<-64.9355 -0.49939> 130 38<-202.894 -125.439>
LayerCount: 2
Fore
SplineSet
80 6 m 0,0,1
 88 16 88 16 100 16 c 128,-1,2
 112 16 112 16 112 0 c 128,-1,3
 112 -16 112 -16 105 -29.5 c 128,-1,4
 98 -43 98 -43 98 -53 c 128,-1,5
 98 -63 98 -63 99 -65 c 2,6,-1
 162 -127 l 1,7,8
 168 -135 168 -135 168 -155 c 128,-1,9
 168 -175 168 -175 162.5 -192 c 0,10,11
 156 -210 156 -210 146 -224 c 0,12,13
 121 -258 121 -258 90 -258 c 0,14,15
 44 -258 44 -258 26 -230 c 0,16,17
 20 -220 20 -220 19.5 -208 c 128,-1,18
 19 -196 19 -196 25 -196 c 0,19,20
 34 -196 34 -196 45.5 -204.5 c 128,-1,21
 57 -213 57 -213 63 -217 c 128,-1,22
 69 -221 69 -221 79 -221 c 128,-1,23
 89 -221 89 -221 99 -214 c 0,24,25
 110 -206 110 -206 116 -196 c 0,26,27
 130 -173 130 -173 130 -155.5 c 128,-1,28
 130 -138 130 -138 121 -130.5 c 128,-1,29
 112 -123 112 -123 100 -118 c 128,-1,30
 88 -113 88 -113 77 -108.5 c 128,-1,31
 66 -104 66 -104 62 -96 c 1,32,-1
 62 -71 l 2,33,34
 62 -20 62 -20 80 6 c 0,0,1
EndSplineSet
EndChar

StartChar: cent
Encoding: 162 162 90
Width: 494
Flags: W
HStem: 104 43<228.25 340.138>
VStem: 165 38<1.76501 33.72>
LayerCount: 2
Fore
SplineSet
398 217 m 1,0,-1
 402 218 l 1,1,2
 408 218 408 218 414.5 214 c 128,-1,3
 421 210 421 210 421 196 c 128,-1,4
 421 182 421 182 405.5 167.5 c 128,-1,5
 390 153 390 153 370 137 c 0,6,7
 330 104 330 104 262 104 c 2,8,-1
 245 104 l 2,9,10
 236 104 236 104 228 105 c 1,11,-1
 203 6 l 2,12,13
 203 3 203 3 195.5 -2 c 128,-1,14
 188 -7 188 -7 187 -7 c 0,15,16
 173 -7 173 -7 169 1.5 c 128,-1,17
 165 10 165 10 165 16 c 128,-1,18
 165 22 165 22 167 32.5 c 128,-1,19
 169 43 169 43 172 58 c 0,20,21
 180 98 180 98 185 118 c 1,22,-1
 185 120 l 2,23,24
 185 124 185 124 179 130 c 1,25,26
 112 166 112 166 87 191 c 0,27,28
 35 241 35 241 35 301 c 1,29,-1
 36 316 l 1,30,31
 58 479 58 479 180 560 c 0,32,33
 220 587 220 587 271 602 c 1,34,35
 280 646 280 646 294 673.5 c 128,-1,36
 308 701 308 701 314 707 c 1,37,38
 328 707 328 707 331 697 c 128,-1,39
 334 687 334 687 334 678 c 1,40,-1
 327 616 l 2,41,42
 327 614 327 614 344.5 605.5 c 0,43,44
 362 598 362 598 386 584 c 0,45,46
 450 547 450 547 463 521 c 1,47,-1
 463 516 l 2,48,49
 463 514 463 514 464 512 c 1,50,51
 464 489 464 489 442 489 c 1,52,-1
 432 490 l 1,53,54
 398 529 398 529 381 539 c 0,55,56
 350 559 350 559 305 559 c 0,57,58
 256 559 256 559 253 539 c 1,59,-1
 172 198 l 1,60,-1
 171 189 l 1,61,62
 171 176 171 176 179 173 c 1,63,64
 207 158 207 158 225.5 152.5 c 128,-1,65
 244 147 244 147 276 147 c 0,66,67
 333 147 333 147 396 217 c 1,68,-1
 398 217 l 1,0,-1
EndSplineSet
EndChar

StartChar: circumflex
Encoding: 710 710 91
Width: 409
Flags: W
HStem: 675 112
LayerCount: 2
Fore
SplineSet
217 731 m 1,0,1
 87 675 87 675 47 675 c 0,2,3
 35 675 35 675 26.5 676.5 c 128,-1,4
 18 678 18 678 12 689 c 1,5,6
 17 715 17 715 27 721 c 128,-1,7
 37 727 37 727 46.5 730 c 128,-1,8
 56 733 56 733 69 739 c 1,9,-1
 198 787 l 1,10,-1
 201 787 l 1,11,-1
 206 788 l 1,12,13
 234 785 234 785 248 775 c 1,14,-1
 379 711 l 2,15,16
 381 709 381 709 386 700 c 128,-1,17
 391 691 391 691 391 685 c 0,18,19
 391 673 391 673 366 673 c 1,20,-1
 236 725 l 1,21,22
 232 729 232 729 227.5 730 c 128,-1,23
 223 731 223 731 221 731.5 c 128,-1,24
 219 732 219 732 219 731.5 c 128,-1,25
 219 731 219 731 218 731 c 2,26,-1
 217 731 l 1,0,1
EndSplineSet
EndChar

StartChar: colon
Encoding: 58 58 92
Width: 268
Flags: W
HStem: -23 119<89.6885 185.59> 334 119.5<89.2812 185.59>
VStem: 68 131<-7.0459 74.0507 349.954 432.18>
LayerCount: 2
Fore
SplineSet
74 10 m 128,-1,1
 68 20 68 20 68 33.5 c 128,-1,2
 68 47 68 47 75.5 58.5 c 128,-1,3
 83 70 83 70 95 78 c 0,4,5
 120 96 120 96 146.5 96 c 128,-1,6
 173 96 173 96 186 79 c 128,-1,7
 199 62 199 62 199 36.5 c 128,-1,8
 199 11 199 11 181 -6 c 128,-1,9
 163 -23 163 -23 143.5 -23 c 128,-1,10
 124 -23 124 -23 112 -19 c 128,-1,11
 100 -15 100 -15 90 -7.5 c 128,-1,0
 80 0 80 0 74 10 c 128,-1,1
74 367 m 128,-1,13
 68 377 68 377 68 390.5 c 128,-1,14
 68 404 68 404 75.5 415.5 c 0,15,16
 83 428 83 428 95 436 c 0,17,18
 120 454 120 454 146.5 453.5 c 128,-1,19
 173 453 173 453 186 436 c 128,-1,20
 199 419 199 419 199 393.5 c 128,-1,21
 199 368 199 368 181 351 c 128,-1,22
 163 334 163 334 143.5 334 c 128,-1,23
 124 334 124 334 112 338 c 128,-1,24
 100 342 100 342 90 349.5 c 128,-1,12
 80 357 80 357 74 367 c 128,-1,13
EndSplineSet
EndChar

StartChar: comma
Encoding: 44 44 93
Width: 212
Flags: W
HStem: -136 205<58.6472 85.9531>
VStem: 7 164
LayerCount: 2
Fore
SplineSet
57 -33 m 1,0,-1
 41 15 l 1,1,2
 41 49 41 49 84 65 c 0,3,4
 95 69 95 69 106 69 c 0,5,6
 139 69 139 69 155 48.5 c 128,-1,7
 171 28 171 28 171 -6 c 0,8,9
 171 -32 171 -32 162 -42.5 c 128,-1,10
 153 -53 153 -53 137.5 -69 c 128,-1,11
 122 -85 122 -85 104 -100 c 0,12,13
 61 -136 61 -136 34 -136 c 128,-1,14
 7 -136 7 -136 7 -126 c 128,-1,15
 7 -116 7 -116 15 -109 c 0,16,17
 22 -102 22 -102 32 -94 c 0,18,19
 58 -74 58 -74 58 -45 c 1,20,-1
 57 -33 l 1,0,-1
EndSplineSet
EndChar

StartChar: copyright
Encoding: 169 169 94
Width: 639
Flags: W
HStem: 121 25<242.761 443.036> 562 52<404 442.714>
VStem: 46 49<265.957 417.957> 208 126<263.203 390.257> 561.5 25.5<309.293 422.286>
LayerCount: 2
Fore
SplineSet
300.5 585 m 128,-1,1
 308 587 308 587 309.5 587.5 c 128,-1,2
 311 588 311 588 335.5 601 c 128,-1,3
 360 614 360 614 379 614 c 256,4,5
 395 614 395 614 397 612 c 1,6,7
 478 586 478 586 532 519 c 0,8,9
 588 449 588 449 587 368 c 0,10,11
 587 315 587 315 569 274 c 128,-1,12
 551 233 551 233 523 186 c 0,13,14
 486 126 486 126 382 122 c 0,15,16
 354 121 354 121 323 121 c 128,-1,17
 292 121 292 121 256 126 c 0,18,19
 220 132 220 132 188 144 c 0,20,21
 120 171 120 171 83 236 c 0,22,23
 46 303 46 303 46 337 c 128,-1,24
 46 371 46 371 62 406 c 128,-1,25
 78 441 78 441 104 472 c 0,26,27
 163 544 163 544 240 568 c 0,28,29
 254 572 254 572 257.5 574 c 128,-1,30
 261 576 261 576 268.5 577.5 c 128,-1,31
 276 579 276 579 284.5 581 c 128,-1,0
 293 583 293 583 300.5 585 c 128,-1,1
397 562 m 257,32,-1
 360 550 l 1,33,34
 335 550 335 550 310 550 c 1,35,36
 225 532 225 532 166 482 c 0,37,38
 95 422 95 422 95 346 c 0,39,40
 95 244 95 244 169 192 c 0,41,42
 234 146 234 146 345 146 c 0,43,44
 400 146 400 146 424 152 c 0,45,46
 473 164 473 164 498 198 c 0,47,48
 501 203 501 203 507 212.5 c 128,-1,49
 513 222 513 222 519 232 c 128,-1,50
 525 242 525 242 530 250 c 128,-1,51
 535 258 535 258 536.5 262.5 c 128,-1,52
 538 267 538 267 542 282 c 128,-1,53
 546 297 546 297 550 313 c 2,54,-1
 558 343 l 2,55,56
 562 357 562 357 561.5 360 c 0,57,58
 562 362 562 362 560 370 c 0,59,60
 556 389 556 389 553 403.5 c 128,-1,61
 550 418 550 418 545.5 435.5 c 128,-1,62
 541 453 541 453 528.5 474 c 0,63,64
 516 494 516 494 499 510 c 0,65,66
 469 538 469 538 410 562 c 1,67,-1
 408 562 l 1,68,-1
 404 563 l 257,69,-1
 397 562 l 257,32,-1
436 273 m 1,70,71
 448 267 448 267 448 253.5 c 128,-1,72
 448 240 448 240 433.5 229.5 c 0,73,74
 419 220 419 220 400 212 c 0,75,76
 363 198 363 198 339 197.5 c 128,-1,77
 315 197 315 197 299.5 203.5 c 128,-1,78
 284 210 284 210 271 220 c 0,79,80
 256 232 256 232 221 273 c 1,81,82
 208 291 208 291 208 311 c 2,83,-1
 208 318 l 2,84,85
 208 323 208 323 213 338 c 0,86,87
 218 354 218 354 222 366 c 0,88,89
 230 392 230 392 232.5 397 c 128,-1,90
 235 402 235 402 242 409 c 2,91,-1
 257 424 l 2,92,93
 281 448 281 448 288 450.5 c 128,-1,94
 295 453 295 453 301 455.5 c 128,-1,95
 307 458 307 458 313 459.5 c 128,-1,96
 319 461 319 461 322 461.5 c 128,-1,97
 325 462 325 462 338 464 c 128,-1,98
 351 466 351 466 366 468 c 128,-1,99
 381 470 381 470 394 471.5 c 128,-1,100
 407 473 407 473 410 474 c 2,101,-1
 436 487 l 2,102,103
 442 490 442 490 462 490 c 1,104,105
 462 470 462 470 452 446 c 0,106,107
 434 398 434 398 416 398 c 1,108,109
 405 398 405 398 403 405 c 128,-1,110
 401 412 401 412 401 420 c 1,111,112
 397 420 397 420 389 422 c 0,113,114
 380 424 380 424 372 425 c 0,115,116
 369 425 369 425 367 425 c 0,117,118
 351 425 351 425 347 412 c 1,119,120
 334 331 334 331 334 302.5 c 128,-1,121
 334 274 334 274 336 264 c 128,-1,122
 338 254 338 254 347 236 c 1,123,124
 378 243 378 243 436 273 c 1,70,71
EndSplineSet
EndChar

StartChar: currency
Encoding: 164 164 95
Width: 494
Flags: W
LayerCount: 2
Fore
SplineSet
111 130 m 1,0,-1
 99 124 l 1,1,-1
 96 124 l 2,2,3
 88 124 88 124 80.5 129 c 128,-1,4
 73 134 73 134 73 143 c 2,5,-1
 73 147 l 2,6,7
 73 148 73 148 74 149 c 2,8,-1
 129 217 l 1,9,-1
 129 219 l 2,10,11
 129 220 129 220 130 221 c 1,12,13
 129 221 129 221 118.5 241.5 c 128,-1,14
 108 262 108 262 80 310 c 0,15,16
 79 313 79 313 79 324 c 2,17,-1
 79 338 l 2,18,19
 79 356 79 356 86 375 c 0,20,21
 99 409 99 409 99 428 c 1,22,23
 68 454 68 454 62 462 c 0,24,25
 47 481 47 481 47 505 c 1,26,27
 94 505 94 505 129 459 c 1,28,-1
 136 458 l 1,29,30
 151 458 151 458 163 467 c 128,-1,31
 175 476 175 476 186.5 486.5 c 128,-1,32
 198 497 198 497 210 506 c 128,-1,33
 222 515 222 515 242 515 c 128,-1,34
 262 515 262 515 282.5 505.5 c 128,-1,35
 303 496 303 496 326 496 c 2,36,-1
 334 496 l 1,37,-1
 390 564 l 2,38,39
 391 566 391 566 396 568.5 c 128,-1,40
 401 571 401 571 405.5 571 c 128,-1,41
 410 571 410 571 415.5 565 c 128,-1,42
 421 559 421 559 421 553 c 0,43,44
 421 546 421 546 413 534 c 0,45,46
 393 502 393 502 379 486 c 1,47,-1
 371 478 l 1,48,49
 402 441 402 441 418 409 c 128,-1,50
 434 377 434 377 434 332 c 0,51,52
 434 273 434 273 378 217 c 1,53,-1
 378 204 l 1,54,-1
 421 149 l 1,55,-1
 421 130 l 1,56,-1
 390 130 l 1,57,-1
 334 186 l 1,58,59
 315 186 315 186 298 179.5 c 128,-1,60
 281 173 281 173 260 173 c 128,-1,61
 239 173 239 173 217.5 183 c 128,-1,62
 196 193 196 193 172 193 c 1,63,-1
 169 192 l 1,64,-1
 167 192 l 1,65,-1
 111 130 l 1,0,-1
EndSplineSet
EndChar

StartChar: d
Encoding: 100 100 96
Width: 656
Flags: W
HStem: -39 62<237.487 296.077> 361.5 51.5<238.541 361.586> 559 51.5<318.674 402.438>
VStem: 18 166<93.2776 266.777> 406 122<66.5 255> 414 188<489.5 661.75>
LayerCount: 2
Fore
SplineSet
411.5 429.5 m 128,-1,1
 414 461 414 461 414 518 c 128,-1,2
 414 575 414 575 403 575 c 0,3,4
 385 575 385 575 370.5 567 c 128,-1,5
 356 559 356 559 340 559 c 128,-1,6
 324 559 324 559 318.5 566 c 128,-1,7
 313 573 313 573 313 582 c 128,-1,8
 313 591 313 591 320 600 c 128,-1,9
 327 609 327 609 335 610.5 c 128,-1,10
 343 612 343 612 370 619 c 128,-1,11
 397 626 397 626 428 635 c 128,-1,12
 459 644 459 644 486.5 651.5 c 0,13,14
 514 658 514 658 518 660 c 0,15,16
 534 665 534 665 541.5 671 c 0,17,18
 549 676 549 676 553 678 c 0,19,20
 562 682 562 682 577 682 c 128,-1,21
 592 682 592 682 597 675.5 c 128,-1,22
 602 669 602 669 602 654.5 c 128,-1,23
 602 640 602 640 595 631 c 128,-1,24
 588 622 588 622 584.5 592 c 128,-1,25
 581 562 581 562 574.5 509 c 128,-1,26
 568 456 568 456 561 401 c 0,27,28
 546 280 546 280 542.5 224 c 128,-1,29
 539 168 539 168 537 153 c 128,-1,30
 535 138 535 138 533 124 c 0,31,32
 528 88 528 88 528 66.5 c 128,-1,33
 528 45 528 45 532 28 c 1,34,35
 561 30 561 30 582 44 c 128,-1,36
 603 58 603 58 623 78 c 1,37,38
 647 76 647 76 647 54.5 c 128,-1,39
 647 33 647 33 633 18.5 c 128,-1,40
 619 4 619 4 599 -5 c 0,41,42
 561 -22 561 -22 530.5 -22 c 128,-1,43
 500 -22 500 -22 483.5 -13 c 0,44,45
 468 -4 468 -4 454 10 c 0,46,47
 431 33 431 33 412 72 c 1,48,49
 374 24 374 24 316 -7.5 c 128,-1,50
 258 -39 258 -39 200.5 -39 c 128,-1,51
 143 -39 143 -39 109.5 -21 c 0,52,53
 76 -2 76 -2 56 28 c 0,54,55
 18 86 18 86 18 190 c 0,56,57
 18 235 18 235 45 275.5 c 128,-1,58
 72 316 72 316 109.5 346.5 c 128,-1,59
 147 377 147 377 185.5 395 c 128,-1,60
 224 413 224 413 256 413 c 128,-1,61
 288 413 288 413 313 407.5 c 128,-1,62
 338 402 338 402 353.5 395 c 128,-1,63
 369 388 369 388 378 381 c 128,-1,64
 387 374 387 374 395 371 c 1,65,0
 409 398 409 398 411.5 429.5 c 128,-1,1
193 278 m 128,-1,67
 184 253 184 253 184 226 c 128,-1,68
 184 199 184 199 187.5 164.5 c 0,69,70
 190 130 190 130 200 98 c 0,71,72
 234 35 234 35 269 23 c 1,73,74
 321 22 321 22 355 74 c 0,75,76
 382 114 382 114 396 180 c 0,77,78
 406 226 406 226 406 255 c 128,-1,79
 406 284 406 284 398 300 c 128,-1,80
 390 316 390 316 376 330 c 0,81,82
 343 362 343 362 310.5 361.5 c 128,-1,83
 278 361 278 361 256 350.5 c 128,-1,84
 234 340 234 340 218 321.5 c 128,-1,66
 202 303 202 303 193 278 c 128,-1,67
EndSplineSet
EndChar

StartChar: dagger
Encoding: 8224 8224 97
Width: 363
Flags: W
HStem: 354 50.5<39.5383 141.386> 369 53.5<207.23 319.464>
VStem: 158 46<434.283 632.591> 165 42<19.549 366.956 425.393 458.502>
LayerCount: 2
Fore
SplineSet
143 367 m 1,0,1
 91 355 91 355 84 354 c 1,2,3
 39 354 39 354 39 381 c 0,4,5
 39 399 39 399 58.5 404.5 c 128,-1,6
 78 410 78 410 102 412.5 c 128,-1,7
 126 415 126 415 145.5 418.5 c 128,-1,8
 165 422 165 422 165 434 c 0,9,10
 165 443 165 443 158 459 c 1,11,-1
 156 566 l 257,12,13
 156 633 156 633 179 633 c 0,14,15
 185 633 185 633 194.5 627 c 128,-1,16
 204 621 204 621 204 614 c 2,17,-1
 204 459 l 2,18,19
 204 429 204 429 234 424 c 0,20,21
 247 422 247 422 262 422.5 c 128,-1,22
 277 423 277 423 290 422 c 0,23,24
 320 420 320 420 320 394.5 c 128,-1,25
 320 369 320 369 307 369 c 2,26,-1
 207 369 l 1,27,-1
 207 25 l 2,28,29
 207 18 207 18 196 18 c 128,-1,30
 185 18 185 18 179.5 19.5 c 128,-1,31
 174 21 174 21 171 31 c 1,32,33
 170 49 170 49 168 122 c 128,-1,34
 166 195 166 195 165 230 c 128,-1,35
 164 265 164 265 164 279 c 2,36,-1
 166 322 l 1,37,38
 166 367 166 367 143 367 c 1,0,1
EndSplineSet
EndChar

StartChar: daggerdbl
Encoding: 8225 8225 98
Width: 416
Flags: W
HStem: 174 62<288 379> 174 55<55.2836 159.736 237.541 344> 174 48<83.0779 190.323> 415 50<35.7085 177> 424 48<236 373.245> 424 48<226.074 343.03>
VStem: 176 56<604.429 645.463> 183 42<471.906 592> 196 30<236.875 408.867> 203 34<6.04297 51.501 52 174>
LayerCount: 2
Fore
SplineSet
237 160 m 1,0,-1
 238 114 l 1,1,-1
 238 99 l 2,2,3
 238 94 238 94 237 82 c 128,-1,4
 236 70 236 70 236 56 c 0,5,6
 235 24 235 24 233 17 c 0,7,8
 231 6 231 6 221 6 c 0,9,10
 208 6 208 6 201 24 c 0,11,12
 196 36 196 36 196 52 c 2,13,-1
 203 160 l 2,14,15
 203 174 203 174 196 174 c 2,16,-1
 71 174 l 2,17,18
 46 174 46 174 46 199 c 0,19,20
 46 212 46 212 55 220.5 c 128,-1,21
 64 229 64 229 82.5 229 c 128,-1,22
 101 229 101 229 118.5 225.5 c 128,-1,23
 136 222 136 222 160.5 222 c 128,-1,24
 185 222 185 222 190.5 230 c 128,-1,25
 196 238 196 238 196 254 c 2,26,-1
 196 270 l 2,27,28
 196 331 196 331 191.5 368 c 128,-1,29
 187 405 187 405 183 409 c 2,30,-1
 177 415 l 1,31,-1
 46 415 l 1,32,33
 41 423 41 423 39 428.5 c 128,-1,34
 37 434 37 434 35 438.5 c 128,-1,35
 33 443 33 443 33 444 c 256,36,37
 33 445 33 445 39 455 c 128,-1,38
 45 465 45 465 46 465 c 2,39,-1
 171 465 l 2,40,41
 183 465 183 465 183 477 c 2,42,-1
 176 592 l 1,43,44
 176 642 176 642 194 645 c 0,45,46
 200 646 200 646 206 646 c 0,47,48
 232 646 232 646 232 624 c 1,49,-1
 225 487 l 2,50,51
 225 471 225 471 236 471 c 2,52,-1
 248 472 l 2,53,54
 260 472 260 472 276 472 c 0,55,56
 313 473 313 473 344 478 c 1,57,58
 352 478 352 478 363.5 471 c 128,-1,59
 375 464 375 464 375 453.5 c 128,-1,60
 375 443 375 443 364 437 c 128,-1,61
 353 431 353 431 336.5 428 c 128,-1,62
 320 425 320 425 300.5 424 c 0,63,64
 280 423 280 423 264 422 c 0,65,66
 226 420 226 420 226 415 c 2,67,-1
 226 362 l 2,68,69
 226 316 226 316 228 290 c 128,-1,70
 230 264 230 264 232 236 c 1,71,72
 257 229 257 229 288 229 c 1,73,-1
 344 236 l 1,74,75
 358 236 358 236 370 226 c 128,-1,76
 382 216 382 216 382 200 c 0,77,78
 382 174 382 174 334 174 c 2,79,-1
 280 175 l 1,80,-1
 237 176 l 1,81,-1
 237 160 l 1,0,-1
EndSplineSet
EndChar

StartChar: degree
Encoding: 176 176 99
Width: 264
Flags: W
HStem: 502 182<101.192 181.066>
VStem: 38 187<560.422 652.459>
LayerCount: 2
Fore
SplineSet
89 682 m 1,0,-1
 123 684 l 1,1,2
 161 684 161 684 184 669 c 0,3,4
 225 641 225 641 225 603 c 0,5,6
 224 568 224 568 194 536 c 0,7,8
 163 502 163 502 130 502 c 1,9,10
 107 502 107 502 101 509 c 2,11,-1
 46 577 l 1,12,13
 38 585 38 585 38 607 c 128,-1,14
 38 629 38 629 52.5 651 c 128,-1,15
 67 673 67 673 89 682 c 1,0,-1
EndSplineSet
EndChar

StartChar: dieresis
Encoding: 168 168 100
Width: 582
Flags: W
HStem: 703 95<138.259 221.685 340.344 418.53>
VStem: 126 106<712.352 783.649> 328 106<716.924 783.649>
LayerCount: 2
Fore
SplineSet
131 729 m 128,-1,1
 126 737 126 737 126 747.5 c 128,-1,2
 126 758 126 758 132 768 c 128,-1,3
 138 778 138 778 148 784 c 0,4,5
 169 798 169 798 190.5 798 c 128,-1,6
 212 798 212 798 222 784.5 c 128,-1,7
 232 771 232 771 232 750.5 c 128,-1,8
 232 730 232 730 217.5 716.5 c 128,-1,9
 203 703 203 703 187 703 c 128,-1,10
 171 703 171 703 161.5 706 c 128,-1,11
 152 709 152 709 144 715 c 128,-1,0
 136 721 136 721 131 729 c 128,-1,1
346 715 m 128,-1,13
 328 727 328 727 328 742.5 c 128,-1,14
 328 758 328 758 334 768 c 128,-1,15
 340 778 340 778 350 784 c 0,16,17
 370 798 370 798 391.5 798 c 128,-1,18
 413 798 413 798 423.5 784.5 c 128,-1,19
 434 771 434 771 434 750.5 c 128,-1,20
 434 730 434 730 419 716.5 c 128,-1,21
 404 703 404 703 384 703 c 128,-1,12
 364 703 364 703 346 715 c 128,-1,13
EndSplineSet
EndChar

StartChar: divide
Encoding: 247 247 101
Width: 507
Flags: W
HStem: 105 65<213.926 264.954> 305 28<60.46 159.223> 457 55<212.054 269.469>
LayerCount: 2
Fore
SplineSet
257 170 m 0,0,1
 261 170 261 170 270.5 165 c 128,-1,2
 280 160 280 160 283 156 c 1,3,-1
 283 151 l 2,4,5
 283 122 283 122 265.5 113.5 c 128,-1,6
 248 105 248 105 235 105 c 2,7,8
 210 105 l 2,9,10
 198 105 198 105 195 106 c 1,11,12
 200 132 200 132 213.5 151 c 128,-1,13
 227 170 227 170 257 170 c 0,0,1
94 307 m 1,14,-1
 54 305 l 1,15,16
 54 325 54 325 69 333 c 1,17,18
 101 338 101 338 151.5 345.5 c 128,-1,19
 202 353 202 353 238.5 358.5 c 128,-1,20
 275 364 275 364 308.5 369 c 128,-1,21
 342 374 342 374 368.5 377.5 c 128,-1,22
 395 381 395 381 408 383 c 1,23,-1
 457 386 l 1,24,25
 457 383 457 383 453 372 c 128,-1,26
 449 361 449 361 446.5 358.5 c 128,-1,27
 444 356 444 356 437 352 c 128,-1,28
 430 348 430 348 422 344 c 0,29,30
 400 333 400 333 396 332.5 c 128,-1,31
 392 332 392 332 376 332 c 2,32,-1
 340 332 l 1,33,-1
 283 333 l 1,34,35
 227 326 227 326 94 307 c 1,14,-1
195 471 m 1,36,37
 213 496 213 496 234.5 504 c 128,-1,38
 256 512 256 512 287 512 c 1,39,40
 287 484 287 484 270 470.5 c 128,-1,41
 253 457 253 457 235.5 457 c 128,-1,42
 218 457 218 457 207.5 458 c 128,-1,43
 197 459 197 459 195 471 c 1,36,37
EndSplineSet
EndChar

StartChar: dollar
Encoding: 36 36 102
Width: 478
Flags: W
HStem: 454 21G<365 372.5> 536 37<315 354.374>
VStem: 48 173<366.062 476.66> 169 63<-40.5928 42.6479> 179.5 52<-51.9025 40.7441> 262 174<103 222.266>
LayerCount: 2
Fore
SplineSet
436 587 m 1,0,-1
 436 574 l 1,1,-1
 426 553 l 2,2,3
 408 518 408 518 396 495.5 c 128,-1,4
 384 473 384 473 382 469 c 0,5,6
 377 458 377 458 368 454 c 1,7,8
 362 454 362 454 352 465.5 c 128,-1,9
 342 477 342 477 342 480 c 256,10,11
 342 495 342 495 347.5 507 c 128,-1,12
 353 519 353 519 355 521 c 1,13,14
 335 533 335 533 312.5 534.5 c 128,-1,15
 290 536 290 536 275 536 c 0,16,17
 237 536 237 536 235 534 c 2,18,-1
 221 508 l 1,19,-1
 221 347 l 1,20,21
 234 344 234 344 250 337 c 0,22,23
 284 323 284 323 288.5 320.5 c 128,-1,24
 293 318 293 318 302 314 c 128,-1,25
 311 310 311 310 319.5 305.5 c 128,-1,26
 328 301 328 301 334.5 298 c 128,-1,27
 341 295 341 295 343.5 293 c 128,-1,28
 346 291 346 291 357 280.5 c 128,-1,29
 368 270 368 270 380.5 257 c 128,-1,30
 393 244 393 244 405 232 c 0,31,32
 416 220 416 220 424 212 c 0,33,34
 436 199 436 199 436 163.5 c 128,-1,35
 436 128 436 128 418.5 105 c 128,-1,36
 401 82 401 82 373.5 70.5 c 128,-1,37
 346 59 346 59 312.5 54.5 c 128,-1,38
 279 50 279 50 248 41 c 0,39,40
 233 36 233 36 232 21 c 0,41,42
 232 15 232 15 232 9 c 0,43,44
 232 0 232 0 232 -11 c 0,45,46
 234 -28 234 -28 231.5 -41 c 128,-1,47
 229 -54 229 -54 209 -54 c 0,48,49
 201 -54 201 -54 193 -52 c 0,50,51
 183 -49 183 -49 179.5 -30.5 c 128,-1,52
 176 -12 176 -12 174 1 c 0,53,54
 169 33 169 33 169 41 c 1,55,56
 129 68 129 68 81 68 c 2,57,-1
 75 68 l 1,58,-1
 35 54 l 1,59,60
 34 56 34 56 34 64 c 2,61,-1
 34 74 l 2,62,63
 34 113 34 113 68 164 c 0,64,65
 78 178 78 178 88 187 c 0,66,67
 90 189 90 189 85.5 191 c 128,-1,68
 81 193 81 193 83 193 c 1,69,70
 83 174 83 174 91.5 149.5 c 128,-1,71
 100 125 100 125 102 122 c 128,-1,72
 104 119 104 119 110.5 114.5 c 128,-1,73
 117 110 117 110 125 106 c 0,74,75
 145 96 145 96 153 94.5 c 128,-1,76
 161 93 161 93 176 94 c 128,-1,77
 191 95 191 95 208.5 97 c 128,-1,78
 226 99 226 99 241 101 c 128,-1,79
 256 103 256 103 262 103 c 1,80,-1
 262 294 l 2,81,82
 262 305 262 305 188 314 c 0,83,84
 150 319 150 319 141.5 321 c 128,-1,85
 133 323 133 323 117.5 331.5 c 128,-1,86
 102 340 102 340 86 352 c 0,87,88
 48 381 48 381 48 403 c 128,-1,89
 48 425 48 425 57 449 c 0,90,91
 66 472 66 472 80 494 c 0,92,93
 109 536 109 536 155 561 c 1,94,-1
 195 574 l 2,95,96
 201 576 201 576 211 581 c 128,-1,97
 221 586 221 586 221.5 587.5 c 128,-1,98
 222 589 222 589 224.5 599 c 128,-1,99
 227 609 227 609 229 620 c 128,-1,100
 231 631 231 631 233 641 c 0,101,102
 235 650 235 650 236 656 c 0,103,104
 240 677 240 677 248 694 c 1,105,106
 252 697 252 697 258 699 c 128,-1,107
 264 701 264 701 269.5 703 c 128,-1,108
 275 705 275 705 282 705 c 1,109,-1
 282 587 l 2,110,111
 282 585 282 585 294.5 580 c 128,-1,112
 307 575 307 575 315 574 c 2,113,-1
 331 573 l 1,114,115
 350 573 350 573 365.5 573 c 128,-1,116
 381 573 381 573 382 573.5 c 128,-1,117
 383 574 383 574 387 578.5 c 128,-1,118
 391 583 391 583 395.5 587.5 c 128,-1,119
 400 592 400 592 403.5 596 c 128,-1,120
 407 600 407 600 409 600.5 c 128,-1,121
 411 601 411 601 421 596 c 128,-1,122
 431 591 431 591 436 587 c 1,0,-1
EndSplineSet
EndChar

StartChar: dotlessi
Encoding: 305 305 103
Width: 412
Flags: W
HStem: -22 50<50.2197 129.087> -22 48<344 394.391> 428 20G<258 286>
VStem: 132 168<70.3711 301.273>
LayerCount: 2
Fore
SplineSet
212 -8 m 257,0,1
 159 -8 159 -8 75 -22 c 1,2,3
 50 -22 50 -22 50 4 c 0,4,5
 50 23 50 23 60.5 28 c 128,-1,6
 71 33 71 33 85 33.5 c 128,-1,7
 99 34 99 34 112.5 35 c 128,-1,8
 126 36 126 36 131 46 c 1,9,-1
 131 56 l 1,10,-1
 132 87 l 1,11,-1
 132 97 l 2,12,13
 132 217 132 217 112 304 c 1,14,15
 100 322 100 322 83 325 c 128,-1,16
 66 328 66 328 50.5 328.5 c 128,-1,17
 35 329 35 329 23.5 332.5 c 128,-1,18
 12 336 12 336 12 350 c 128,-1,19
 12 364 12 364 26.5 372 c 128,-1,20
 41 380 41 380 60.5 386 c 128,-1,21
 80 392 80 392 98.5 396.5 c 128,-1,22
 117 401 117 401 140.5 409.5 c 128,-1,23
 164 418 164 418 204 433 c 128,-1,24
 244 448 244 448 272 448 c 128,-1,25
 300 448 300 448 303.5 442.5 c 128,-1,26
 307 437 307 437 307 417 c 128,-1,27
 307 397 307 397 301 385 c 1,28,-1
 300 212 l 2,29,30
 300 155 300 155 303 138 c 0,31,32
 307 117 307 117 325 60 c 0,33,34
 329 46 329 46 340.5 38.5 c 128,-1,35
 352 31 352 31 364 26 c 128,-1,36
 376 21 376 21 385.5 16 c 128,-1,37
 395 11 395 11 395 -1 c 0,38,39
 395 -22 395 -22 356 -22 c 1,40,-1
 344 -21 l 1,41,42
 302 -8 302 -8 212 -8 c 257,0,1
EndSplineSet
EndChar

StartChar: e
Encoding: 101 101 104
Width: 544
Flags: W
HStem: -28.5 49.5<249.986 375.6> 129 50<231 299.578> 404 50<273.903 351.743>
VStem: 12 206<183.689 280.635> 367 125<263.591 388.492>
LayerCount: 2
Fore
SplineSet
231 129 m 1,0,-1
 230 116 l 1,1,2
 230 72 230 72 252 39 c 0,3,4
 260 28 260 28 266 24.5 c 128,-1,5
 272 21 272 21 282 21 c 2,6,-1
 296 21 l 2,7,8
 366 21 366 21 426 54 c 0,9,10
 437 60 437 60 448.5 72.5 c 128,-1,11
 460 85 460 85 471.5 97.5 c 128,-1,12
 483 110 483 110 493 119.5 c 128,-1,13
 503 129 503 129 511 129 c 128,-1,14
 519 129 519 129 523 120 c 128,-1,15
 527 111 527 111 527 106 c 0,16,17
 526 96 526 96 502 69 c 0,18,19
 476 41 476 41 445 23 c 0,20,21
 414 6 414 6 378 -6 c 0,22,23
 309 -28 309 -28 240 -28.5 c 128,-1,24
 171 -29 171 -29 123 5 c 128,-1,25
 75 39 75 39 37 91 c 0,26,27
 18 117 18 117 15 146.5 c 128,-1,28
 12 176 12 176 12 213.5 c 128,-1,29
 12 251 12 251 43 295 c 128,-1,30
 74 339 74 339 119 374.5 c 128,-1,31
 164 410 164 410 215.5 432 c 128,-1,32
 267 454 267 454 301 454 c 128,-1,33
 335 454 335 454 367 448.5 c 0,34,35
 398 444 398 444 426 430 c 0,36,37
 492 398 492 398 492 334 c 0,38,39
 492 250 492 250 402 190 c 0,40,41
 326 138 326 138 231 129 c 1,0,-1
218 203 m 0,42,43
 218 193 218 193 228 186 c 128,-1,44
 238 179 238 179 256 179 c 256,45,46
 290 178 290 178 330 238 c 0,47,48
 368 294 368 294 367 338 c 0,49,50
 367 362 367 362 356 377 c 0,51,52
 336 404 336 404 313.5 404 c 128,-1,53
 291 404 291 404 273.5 382.5 c 0,54,55
 256 360 256 360 244 330 c 0,56,57
 218 264 218 264 218 203 c 0,42,43
EndSplineSet
EndChar

StartChar: eight
Encoding: 56 56 109
Width: 599
Flags: W
HStem: 122.5 55.5<4.95215 55> 311 48.5<336.379 438.358> 645 37<295 435.815>
VStem: 192 123<371 423.656> 513 40<425.37 572.797>
LayerCount: 2
Fore
SplineSet
545 192 m 1,0,-1
 532 99 l 1,1,2
 525 71 525 71 509.5 45.5 c 128,-1,3
 494 20 494 20 489 18 c 2,4,-1
 359 -44 l 1,5,-1
 272 -56 l 1,6,7
 260 -51 260 -51 241 -49.5 c 128,-1,8
 222 -48 222 -48 205 -43 c 128,-1,9
 188 -38 188 -38 161 -21 c 128,-1,10
 134 -4 134 -4 110 18 c 0,11,12
 54 71 54 71 55 117 c 1,13,14
 38 118 38 118 21 122.5 c 128,-1,15
 4 127 4 127 4 148 c 0,16,17
 4 178 4 178 43 178 c 2,18,-1
 62 178 l 1,19,20
 62 231 62 231 104 288 c 0,21,22
 140 336 140 336 191 371 c 1,23,-1
 192 375 l 2,24,25
 192 377 192 377 187 384 c 128,-1,26
 182 391 182 391 179 396 c 1,27,-1
 142 514 l 1,28,29
 129 520 129 520 129 532 c 128,-1,30
 129 544 129 544 130.5 546.5 c 128,-1,31
 132 549 132 549 135 551.5 c 128,-1,32
 138 554 138 554 143 557.5 c 128,-1,33
 148 561 148 561 162.5 580.5 c 128,-1,34
 177 600 177 600 192 621 c 128,-1,35
 207 642 207 642 224 656 c 0,36,37
 257 682 257 682 333 682 c 0,38,39
 402 682 402 682 452 657 c 1,40,41
 455 651 455 651 458 651 c 1,42,43
 509 619 509 619 523 602 c 0,44,45
 553 567 553 567 553 511 c 0,46,47
 553 392 553 392 471 340 c 1,48,49
 465 340 465 340 458 337.5 c 128,-1,50
 451 335 451 335 451 331.5 c 128,-1,51
 451 328 451 328 460.5 321 c 128,-1,52
 470 314 470 314 482 305 c 0,53,54
 513 282 513 282 520 266 c 0,55,56
 521 264 521 264 524 254.5 c 128,-1,57
 527 245 527 245 531 233 c 128,-1,58
 535 221 535 221 539 209.5 c 128,-1,59
 543 198 543 198 545 192 c 1,0,-1
254 99 m 0,60,61
 254 -13 254 -13 293 -13 c 0,62,63
 382 -13 382 -13 442 36 c 128,-1,64
 502 85 502 85 502 164 c 0,65,66
 502 226 502 226 463 268 c 0,67,68
 423 312 423 312 360 311 c 0,69,70
 310 311 310 311 278 224 c 0,71,72
 254 158 254 158 254 99 c 0,60,61
315 459 m 2,73,-1
 315 422 l 2,74,75
 314 382 314 382 336 368 c 0,76,77
 348 360 348 360 376 359.5 c 128,-1,78
 404 359 404 359 429.5 370 c 0,79,80
 456 380 456 380 474 400 c 0,81,82
 514 442 514 442 513 499 c 256,83,84
 514 559 514 559 470 601 c 0,85,86
 425 645 425 645 365 645 c 0,87,88
 341 645 341 645 326 568 c 0,89,90
 315 511 315 511 315 459 c 2,73,-1
EndSplineSet
EndChar

StartChar: ellipsis
Encoding: 8230 8230 110
Width: 802
Flags: W
HStem: -23 119<61.8269 152.95 354.622 450.59 647.688 743.59>
VStem: 40 131<-5.46667 74.0507> 333 131<-7.02881 74.0507> 626 131<-7.0459 74.0507>
CounterMasks: 1 70
LayerCount: 2
Fore
SplineSet
46 10 m 0,0,1
 40 20 40 20 40 33.5 c 128,-1,2
 40 47 40 47 47.5 58.5 c 128,-1,3
 55 70 55 70 67 78 c 0,4,5
 106 96 106 96 117 96 c 0,6,7
 118 96 118 96 119 96 c 1,8,9
 146 96 146 96 158.5 79 c 128,-1,10
 171 62 171 62 171 36.5 c 128,-1,11
 171 11 171 11 153.5 -6 c 128,-1,12
 136 -23 136 -23 107 -23 c 0,13,14
 67 -23 67 -23 46 10 c 0,0,1
339.5 10 m 128,-1,16
 333 20 333 20 333 33.5 c 128,-1,17
 333 47 333 47 340.5 58.5 c 128,-1,18
 348 70 348 70 360 78 c 0,19,20
 385 95 385 95 411.5 95.5 c 128,-1,21
 438 96 438 96 451 79 c 128,-1,22
 464 62 464 62 464 36.5 c 128,-1,23
 464 11 464 11 446 -6 c 128,-1,24
 428 -23 428 -23 408.5 -23 c 128,-1,25
 389 -23 389 -23 377 -19 c 128,-1,26
 365 -15 365 -15 355.5 -7.5 c 128,-1,15
 346 0 346 0 339.5 10 c 128,-1,16
632 10 m 128,-1,28
 626 20 626 20 626 33.5 c 128,-1,29
 626 47 626 47 633.5 58.5 c 128,-1,30
 641 70 641 70 653 78 c 0,31,32
 692 96 692 96 703 96 c 0,33,34
 704 96 l 1,35,36
 731 96 731 96 744 79 c 128,-1,37
 757 62 757 62 757 36.5 c 128,-1,38
 757 11 757 11 739 -6 c 128,-1,39
 721 -23 721 -23 701.5 -23 c 128,-1,40
 682 -23 682 -23 670 -19 c 128,-1,41
 658 -15 658 -15 648 -7.5 c 128,-1,27
 638 0 638 0 632 10 c 128,-1,28
EndSplineSet
EndChar

StartChar: emdash
Encoding: 8212 8212 111
Width: 680
Flags: W
HStem: 224 52<69.2441 542.218> 232 44<377.117 608.88>
LayerCount: 2
Fore
SplineSet
584 232 m 1,0,1
 464 224 464 224 326 224 c 2,2,-1
 128 224 l 2,3,4
 68 224 68 224 68 247 c 0,5,6
 68 264 68 264 94 276 c 1,7,-1
 360 270 l 1,8,9
 575 276 l 2,10,11
 589 276 589 276 599 273 c 128,-1,12
 609 270 609 270 609 257 c 0,13,14
 609 232 609 232 584 232 c 1,0,1
EndSplineSet
EndChar

StartChar: endash
Encoding: 8211 8211 112
Width: 608
Flags: W
HStem: 224 52<69.4041 353.389> 232 44<304.127 536.886>
LayerCount: 2
Fore
SplineSet
139 224 m 0,0,1
 68 224 68 224 68 247 c 0,2,3
 68 264 68 264 94 276 c 1,4,-1
 288 270 l 1,5,-1
 504 276 l 2,6,7
 518 276 518 276 527.5 273 c 128,-1,8
 537 270 537 270 537 257 c 0,9,10
 537 232 537 232 512 232 c 1,11,12
 393 224 393 224 139 224 c 0,0,1
EndSplineSet
EndChar

StartChar: equal
Encoding: 61 61 113
Width: 456
Flags: W
HStem: 168 28<68 88> 183 38<172.667 371> 183 25<313.876 370.232> 370 40<93 268.4> 385 25<275.5 382>
VStem: 68 315
LayerCount: 2
Fore
SplineSet
131 171 m 257,0,-1
 68 168 l 1,1,-1
 68 196 l 1,2,-1
 88 200 l 2,3,4
 167 214 167 214 244 221 c 1,5,6
 272 221 272 221 301.5 221 c 128,-1,7
 331 221 331 221 370 208 c 0,8,9
 371 208 371 208 371 206 c 128,-1,10
 371 204 371 204 371 198 c 0,11,12
 371 190 371 190 345 183 c 1,13,14
 288 183 288 183 231 183 c 257,15,-1
 131 171 l 257,0,-1
154 371 m 1,16,-1
 108 370 l 1,17,-1
 93 370 l 1,18,-1
 93 410 l 1,19,-1
 370 410 l 2,20,21
 383 410 383 410 383 391 c 1,22,-1
 382 387 l 1,23,-1
 382 385 l 1,24,-1
 169 371 l 1,25,-1
 154 371 l 1,16,-1
EndSplineSet
EndChar

StartChar: eth
Encoding: 240 240 114
Width: 556
Flags: W
HStem: -31 58<255.266 338.418> 372 49<265.279 339>
VStem: 26 202<97.3873 282.352> 371 153<78.8085 335.634>
LayerCount: 2
Fore
SplineSet
210 472 m 0,0,1
 188 472 188 472 188 494 c 0,2,3
 188 514 188 514 224 530 c 0,4,5
 239 536 239 536 254.5 542 c 128,-1,6
 270 548 270 548 280 552 c 1,7,8
 272 569 272 569 261 586.5 c 128,-1,9
 250 604 250 604 237 624 c 0,10,11
 223 646 223 646 223 661 c 0,12,13
 223 683 223 683 245 683 c 0,14,15
 321 683 321 683 387 604 c 1,16,17
 434 633 434 633 444 633 c 0,18,19
 466 633 466 633 467 610 c 1,20,21
 467 597 467 597 456 593 c 1,22,-1
 414 568 l 1,23,24
 489 449 489 449 517 284 c 0,25,26
 524 243 524 243 524 213 c 128,-1,27
 524 183 524 183 521.5 146.5 c 128,-1,28
 519 110 519 110 502.5 79 c 128,-1,29
 486 48 486 48 464.5 25.5 c 0,30,31
 442 2 442 2 416 -10 c 0,32,33
 370 -31 370 -31 295.5 -31 c 128,-1,34
 221 -31 221 -31 165 -6 c 128,-1,35
 109 19 109 19 58 80 c 1,36,37
 37 112 37 112 31.5 148 c 128,-1,38
 26 184 26 184 26 206 c 0,39,40
 26 242 26 242 52 292 c 0,41,42
 69 324 69 324 82.5 335 c 128,-1,43
 96 346 96 346 126 368 c 0,44,45
 240 421 240 421 272 421 c 0,46,47
 274 421 274 421 276 421 c 1,48,49
 308 421 308 421 340 414 c 1,50,51
 313 487 313 487 302 510 c 1,52,-1
 251 486 l 2,53,54
 220 472 220 472 210 472 c 0,0,1
228 198 m 2,55,56
 228 190 228 190 228.5 176.5 c 128,-1,57
 229 163 229 163 231.5 136.5 c 128,-1,58
 234 110 234 110 240 86 c 0,59,60
 256 28 256 28 287 27 c 0,61,62
 324 27 324 27 338 46 c 128,-1,63
 352 65 352 65 355.5 90 c 128,-1,64
 359 115 359 115 361.5 129.5 c 128,-1,65
 364 144 364 144 366 158 c 0,66,67
 371 193 371 193 371 215.5 c 128,-1,68
 371 238 371 238 368 263 c 128,-1,69
 365 288 365 288 358 312 c 0,70,71
 340 372 340 372 318 372 c 0,72,73
 247 372 247 372 232 270 c 0,74,75
 228 242 228 242 228 224 c 2,76,-1
 228 198 l 2,55,56
EndSplineSet
EndChar

StartChar: exclam
Encoding: 33 33 115
Width: 346
Flags: W
HStem: -7 194<102.231 234.435> 668 20G<136 205>
VStem: 61 200.5<30.8301 147.938>
LayerCount: 2
Fore
SplineSet
71 47 m 128,-1,1
 61 64 61 64 61 88 c 128,-1,2
 61 112 61 112 71.5 131.5 c 128,-1,3
 82 151 82 151 99 163 c 0,4,5
 133 187 133 187 187 187 c 0,6,7
 232 186 232 186 250 138 c 0,8,9
 262 108 262 108 261.5 77 c 128,-1,10
 261 46 261 46 253.5 32.5 c 128,-1,11
 246 19 246 19 234 10 c 0,12,13
 210 -7 210 -7 181 -7 c 128,-1,14
 152 -7 152 -7 132.5 -0.5 c 128,-1,15
 113 6 113 6 97 18 c 128,-1,0
 81 30 81 30 71 47 c 128,-1,1
79 443 m 1,16,-1
 99 651 l 1,17,18
 110 688 110 688 162 688 c 0,19,20
 248 688 248 688 280 640 c 0,21,22
 292 622 292 622 291 596 c 1,23,-1
 229 297 l 1,24,25
 224 278 224 278 210.5 259.5 c 128,-1,26
 197 241 197 241 170.5 241 c 128,-1,27
 144 241 144 241 125 264.5 c 128,-1,28
 106 288 106 288 96 320 c 0,29,30
 80 372 80 372 79 443 c 1,16,-1
EndSplineSet
EndChar

StartChar: exclamdown
Encoding: 161 161 116
Width: 346
Flags: W
HStem: 420 20G<158.25 184.75> 495 193<103.354 235.281>
VStem: 62 200<533.601 649.24>
LayerCount: 2
Fore
SplineSet
81 222 m 1,0,-1
 80 238 l 1,1,2
 80 360 80 360 126 416 c 0,3,4
 145 440 145 440 171.5 440 c 128,-1,5
 198 440 198 440 211.5 421.5 c 128,-1,6
 225 403 225 403 229 384 c 2,7,-1
 292 86 l 1,8,9
 292 36 292 36 250 12 c 0,10,11
 216 -7 216 -7 163 -7 c 0,12,13
 144 -7 144 -7 125 1.5 c 128,-1,14
 106 10 106 10 102 25.5 c 128,-1,15
 98 41 98 41 95.5 68.5 c 128,-1,16
 93 96 93 96 90 126 c 0,17,18
 86 168 86 168 81 222 c 1,0,-1
72 550 m 0,19,20
 62 569 62 569 62 593 c 128,-1,21
 62 617 62 617 72 634 c 128,-1,22
 82 651 82 651 98 663 c 0,23,24
 130 688 130 688 171 688 c 0,25,26
 232 688 232 688 254 648 c 0,27,28
 262 634 262 634 262 618.5 c 128,-1,29
 262 603 262 603 260 582.5 c 128,-1,30
 258 562 258 562 250 542 c 0,31,32
 232 495 232 495 187 495 c 0,33,34
 101 495 101 495 72 550 c 0,19,20
EndSplineSet
EndChar

StartChar: f
Encoding: 102 102 117
Width: 531
Flags: W
HStem: -5 47<339.095 382.781> 0 54<37.7979 113.655> 308 41<32.2988 81.5527> 310 50<295 358.869> 636 56<273.832 354.465>
VStem: 82 181<364.933 579.562>
LayerCount: 2
Fore
SplineSet
390 19 m 0,0,1
 390 -5 390 -5 350 -5 c 0,2,3
 348 -5 348 -5 326 -4 c 128,-1,4
 304 -3 304 -3 265 -2.5 c 128,-1,5
 226 -2 226 -2 171 -1 c 128,-1,6
 116 0 116 0 50 0 c 0,7,8
 42 0 42 0 35 5 c 128,-1,9
 28 10 28 10 28 24 c 128,-1,10
 28 38 28 38 37.5 45 c 128,-1,11
 47 52 47 52 60.5 54 c 128,-1,12
 74 56 74 56 88.5 57 c 128,-1,13
 103 58 103 58 114 66 c 1,14,-1
 115 87 l 1,15,16
 115 124 115 124 106 171 c 0,17,18
 89 259 89 259 89 303 c 1,19,20
 69 305 69 305 50.5 308 c 128,-1,21
 32 311 32 311 32 325 c 0,22,23
 32 345 32 345 66 349 c 0,24,25
 74 350 74 350 82 353 c 1,26,27
 82 485 82 485 90.5 528 c 128,-1,28
 99 571 99 571 108.5 591 c 128,-1,29
 118 611 118 611 132 628 c 1,30,31
 171 667 171 667 199 678 c 0,32,33
 237 692 237 692 278 692 c 128,-1,34
 319 692 319 692 350.5 678 c 128,-1,35
 382 664 382 664 411 653 c 1,36,37
 425 653 425 653 433 660 c 0,38,39
 448 673 448 673 459.5 673 c 128,-1,40
 471 673 471 673 486 667 c 1,41,42
 499 510 l 1,43,44
 499 496 499 496 496 483.5 c 128,-1,45
 493 471 493 471 480 471 c 0,46,47
 459 471 459 471 399 535 c 0,48,49
 387 548 387 548 379.5 565 c 128,-1,50
 372 582 372 582 364 598 c 128,-1,51
 356 614 356 614 345.5 625 c 128,-1,52
 335 636 335 636 321 636 c 128,-1,53
 307 636 307 636 293.5 634.5 c 128,-1,54
 280 633 280 633 275.5 620 c 128,-1,55
 271 607 271 607 268.5 597.5 c 128,-1,56
 266 588 266 588 264.5 578.5 c 128,-1,57
 263 569 263 569 263 557 c 2,58,-1
 263 527 l 2,59,60
 263 360 263 360 295 360 c 0,61,62
 311 360 311 360 327 362 c 0,63,64
 355 366 355 366 359 367 c 0,65,66
 383 367 383 367 383 347 c 256,67,68
 384 322 384 322 314 312 c 0,69,70
 300 310 300 310 295 310 c 1,71,72
 321 241 321 241 339 53 c 1,73,74
 342 45 342 45 350 44 c 128,-1,75
 358 43 358 43 367 42 c 128,-1,76
 376 41 376 41 383 37 c 128,-1,77
 390 33 390 33 390 19 c 0,0,1
EndSplineSet
EndChar

StartChar: five
Encoding: 53 53 118
Width: 621
Flags: W
HStem: -30 48<259 305.779> 323 42<243.851 290.422> 582 49<314 365.188>
VStem: 306 213<92.333 270.267> 548 50<492.218 614>
LayerCount: 2
Fore
SplineSet
598 567 m 2,0,1
 598 489 598 489 564 489 c 0,2,3
 560 489 560 489 554 489.5 c 128,-1,4
 548 490 548 490 548 496 c 2,5,-1
 548 614 l 1,6,-1
 314 582 l 1,7,-1
 243 365 l 1,8,-1
 350 354 l 1,9,-1
 474 291 l 2,10,11
 519 269 519 269 519 185 c 0,12,13
 518 127 518 127 496 90 c 0,14,15
 488 76 488 76 474 68 c 2,16,-1
 331 -19 l 1,17,18
 306 -26 306 -26 291 -28 c 128,-1,19
 276 -30 276 -30 260 -30 c 0,20,21
 259 -30 259 -30 259 -31 c 0,22,23
 243 -32 243 -32 202 -20 c 0,24,25
 159 -8 159 -8 117 12.5 c 128,-1,26
 75 33 75 33 44.5 61.5 c 128,-1,27
 14 90 14 90 14 119.5 c 128,-1,28
 14 149 14 149 37 149 c 0,29,30
 62 149 62 149 65 130 c 1,31,-1
 146 49 l 1,32,33
 173 20 173 20 245 18 c 0,34,35
 263 18 263 18 281 17.5 c 128,-1,36
 299 17 299 17 306 25 c 1,37,-1
 308 96 l 1,38,39
 308 191 308 191 288 322 c 1,40,-1
 260 323 l 1,41,42
 230 324 230 324 197 314 c 0,43,44
 135 296 135 296 112.5 296 c 128,-1,45
 90 296 90 296 86.5 300 c 128,-1,46
 83 304 83 304 83 315 c 128,-1,47
 83 326 83 326 83 337 c 128,-1,48
 83 348 83 348 89 354 c 1,49,-1
 127 583 l 1,50,51
 126 586 126 586 126 592.5 c 128,-1,52
 126 599 126 599 129 609.5 c 128,-1,53
 132 620 132 620 138 630 c 0,54,55
 151 652 151 652 166 652 c 1,56,-1
 177 651 l 1,57,-1
 245 632 l 1,58,59
 261 631 261 631 271 631 c 0,60,61
 315 631 315 631 350 631 c 128,-1,62
 385 631 385 631 412 633 c 0,63,64
 496 638 496 638 524 666 c 128,-1,65
 552 694 552 694 566.5 694.5 c 128,-1,66
 581 695 581 695 587.5 682.5 c 128,-1,67
 594 670 594 670 596 654 c 0,68,69
 598 640 598 640 599 626 c 0,70,71
 598 622 598 622 598 620 c 0,72,73
 598 604 598 604 598 594 c 2,74,-1
 598 567 l 2,0,1
EndSplineSet
EndChar

StartChar: florin
Encoding: 402 402 119
Width: 715
Flags: W
HStem: -7 75<98 205> 32 68<1.58911 70.9761> 282.5 46.5<171.829 247.717> 291 40<161.003 247.717 419 495.997> 387 45<179.136 277.987 474.5 545.406> 633 55<571.047 608>
LayerCount: 2
Fore
SplineSet
490 331 m 2,0,1
 496 331 496 331 496 311 c 128,-1,2
 496 291 496 291 484 291 c 2,3,-1
 396 291 l 1,4,-1
 316 87 l 2,5,6
 300 45 300 45 263.5 19 c 128,-1,7
 227 -7 227 -7 183 -7 c 0,8,9
 164 -7 164 -7 146 4.5 c 128,-1,10
 128 16 128 16 117.5 19 c 128,-1,11
 107 22 107 22 86 24.5 c 0,12,13
 64 27 64 27 44 32 c 0,14,15
 -8 45 -8 45 -7 78 c 0,16,17
 -7 100 -7 100 12 100 c 0,18,19
 30 100 30 100 50 89 c 0,20,21
 88 68 88 68 108 68 c 256,22,23
 142 68 142 68 155 93 c 2,24,-1
 236 236 l 1,25,-1
 248 279 l 1,26,27
 239 282 239 282 224.5 281.5 c 128,-1,28
 210 281 210 281 196 282.5 c 128,-1,29
 182 284 182 284 171.5 288.5 c 128,-1,30
 161 293 161 293 161 311 c 128,-1,31
 161 329 161 329 173 329 c 2,32,-1
 254 329 l 2,33,34
 272 328 272 328 277 372 c 0,35,36
 278 382 278 382 278 387 c 1,37,-1
 192 387 l 2,38,39
 179 387 179 387 179 409 c 0,40,41
 180 430 180 430 256 432 c 0,42,43
 276 432 276 432 291 434 c 1,44,-1
 297 440 l 1,45,46
 325 540 325 540 397 610 c 0,47,48
 477 688 477 688 577 688 c 1,49,-1
 620 682 l 1,50,51
 645 667 645 667 673.5 648 c 128,-1,52
 702 629 702 629 710.5 623 c 128,-1,53
 719 617 719 617 722.5 613.5 c 128,-1,54
 726 610 726 610 726 597.5 c 128,-1,55
 726 585 726 585 720 583 c 128,-1,56
 714 581 714 581 707 581 c 2,57,-1
 698 581 l 2,58,59
 692 581 692 581 688 583 c 2,60,-1
 613 632 l 1,61,-1
 611 632 l 1,62,-1
 608 633 l 1,63,64
 588 632 588 632 548 588 c 0,65,66
 496 528 496 528 462 460 c 0,67,68
 454 442 454 442 453 434 c 2,69,-1
 453 428 l 1,70,71
 472 430 472 430 488 432.5 c 128,-1,72
 504 435 504 435 522 435 c 0,73,74
 546 435 546 435 546 412 c 0,75,76
 546 406 546 406 536.5 399 c 128,-1,77
 527 392 527 392 521 390 c 1,78,-1
 428 379 l 1,79,80
 415 376 415 376 415 359 c 1,81,-1
 419 331 l 1,82,-1
 490 331 l 2,0,1
EndSplineSet
EndChar

StartChar: flower
Encoding: 9880 9880 120
Width: 710
Flags: W
HStem: 28 56<37.3136 163.579>
LayerCount: 2
Fore
SplineSet
292 -82 m 1,0,-1
 296 -125 l 1,1,2
 269 -125 269 -125 256 -111 c 128,-1,3
 243 -97 243 -97 235 -77.5 c 128,-1,4
 227 -58 227 -58 218.5 -38 c 128,-1,5
 210 -18 210 -18 197.5 -10.5 c 128,-1,6
 185 -3 185 -3 173.5 3 c 128,-1,7
 162 9 162 9 150 15 c 0,8,9
 122 29 122 29 114 31 c 128,-1,10
 106 33 106 33 91 30.5 c 128,-1,11
 76 28 76 28 61.5 28 c 128,-1,12
 47 28 47 28 37 33 c 128,-1,13
 27 38 27 38 27 53 c 128,-1,14
 27 68 27 68 31.5 74 c 128,-1,15
 36 80 36 80 43.5 82 c 0,16,17
 50 84 50 84 60 84 c 2,18,-1
 80 84 l 2,19,20
 110 84 110 84 116.5 81.5 c 128,-1,21
 123 79 123 79 139 72.5 c 128,-1,22
 155 66 155 66 173 58 c 0,23,24
 219 37 219 37 229 31 c 1,25,-1
 242 107 l 1,26,-1
 241 123 l 1,27,28
 232 123 232 123 220.5 121.5 c 128,-1,29
 209 120 209 120 197 120 c 0,30,31
 195 120 195 120 192 119 c 0,32,33
 160 119 160 119 150 139 c 0,34,35
 142 154 142 154 136.5 165.5 c 128,-1,36
 131 177 131 177 127.5 185.5 c 128,-1,37
 124 194 124 194 121 201 c 128,-1,38
 118 208 118 208 116.5 214.5 c 128,-1,39
 115 221 115 221 115 228 c 2,40,-1
 115 246 l 2,41,42
 115 276 115 276 129 312 c 0,43,44
 148 360 148 360 173 376 c 0,45,46
 202 393 202 393 204 396 c 0,47,48
 213 416 213 416 214 438.5 c 128,-1,49
 215 461 215 461 217.5 472.5 c 128,-1,50
 220 484 220 484 226.5 493 c 128,-1,51
 233 502 233 502 241 510.5 c 128,-1,52
 249 519 249 519 257 527 c 0,53,54
 277 547 277 547 279 547 c 258,55,-1
 316 550 l 1,56,57
 346 550 346 550 360.5 541 c 128,-1,58
 375 532 375 532 384.5 518.5 c 128,-1,59
 394 505 394 505 403 489 c 128,-1,60
 412 473 412 473 430 459 c 1,61,62
 459 487 459 487 486.5 499 c 128,-1,63
 514 511 514 511 543.5 511 c 128,-1,64
 573 511 573 511 592 502.5 c 128,-1,65
 611 494 611 494 626 479 c 0,66,67
 658 447 658 447 658 404 c 0,68,69
 658 387 658 387 656.5 368 c 128,-1,70
 655 349 655 349 646 336.5 c 128,-1,71
 637 324 637 324 627.5 313 c 128,-1,72
 618 302 618 302 607 292 c 0,73,74
 582 271 582 271 556 271 c 1,75,76
 558 267 558 267 564 256 c 2,77,-1
 576 233 l 2,78,79
 582 221 582 221 587 210 c 128,-1,80
 592 199 592 199 594 195 c 1,81,-1
 595 177 l 1,82,83
 595 128 595 128 556 92 c 0,84,85
 490 55 490 55 472 56 c 0,86,87
 470 56 470 56 469 56 c 1,88,89
 360 56 360 56 304 132 c 1,90,91
 275 68 275 68 267 19 c 1,92,-1
 279 19 l 1,93,-1
 342 31 l 1,94,-1
 348 31 l 2,95,96
 386 31 386 31 400 12 c 0,97,98
 406 5 406 5 405 -6 c 1,99,100
 401 -7 401 -7 390 -8.5 c 128,-1,101
 379 -10 379 -10 367 -12 c 0,102,103
 328 -18 328 -18 317 -23.5 c 128,-1,104
 306 -29 306 -29 298 -35 c 0,105,106
 279 -49 279 -49 279 -63 c 2,107,-1
 279 -70 l 1,108,-1
 292 -82 l 1,0,-1
EndSplineSet
EndChar

StartChar: four
Encoding: 52 52 121
Width: 619
Flags: W
HStem: -13 53<93.4375 278> 0 40<479.875 588> 211 55<463 529.333> 229 43<67 266.594> 236 36<241.406 267.558>
VStem: 252 183.5<355.406 478> 284 192<49 210.844> 285 178<49 210.844> 551 39<266 327.811>
LayerCount: 2
Fore
SplineSet
582 40 m 2,0,1
 588 40 588 40 588 24 c 2,2,-1
 588 13 l 2,3,4
 588 2 588 2 582 0 c 1,5,6
 368 -13 368 -13 121 -13 c 0,7,8
 107 -13 107 -13 93 -10 c 128,-1,9
 79 -7 79 -7 79 11.5 c 128,-1,10
 79 30 79 30 92 33.5 c 128,-1,11
 105 37 105 37 115 37 c 128,-1,12
 125 37 125 37 150.5 38 c 128,-1,13
 176 39 176 39 204.5 40 c 0,14,15
 234 41 234 41 256 42 c 2,16,-1
 278 43 l 1,17,-1
 284 49 l 1,18,-1
 285 118 l 1,19,20
 285 236 285 236 267 236 c 0,21,22
 254 236 254 236 241 229 c 1,23,-1
 30 229 l 2,24,25
 23 229 23 229 10.5 235.5 c 128,-1,26
 -2 242 -2 242 -2 251 c 2,27,-1
 -2 253 l 2,28,29
 -2 254 -2 254 -1 254 c 2,30,-1
 389 707 l 1,31,-1
 396 708 l 1,32,33
 418 708 418 708 428 672 c 0,34,35
 436 646 436 646 435.5 611 c 128,-1,36
 435 576 435 576 433 564 c 1,37,-1
 464 297 l 1,38,39
 463 296 463 296 463 292 c 2,40,-1
 463 285 l 2,41,42
 463 266 463 266 471 266 c 2,43,-1
 545 266 l 2,44,45
 546 266 546 266 548.5 273 c 128,-1,46
 551 280 551 280 551 288 c 128,-1,47
 551 296 551 296 547.5 309 c 128,-1,48
 544 322 544 322 544 328 c 0,49,50
 544 340 544 340 560 341 c 0,51,52
 590 341 590 341 590 271 c 1,53,-1
 588 236 l 1,54,-1
 576 223 l 1,55,-1
 464 211 l 1,56,57
 463 206 463 206 463 202 c 2,58,-1
 463 187 l 2,59,60
 463 149 463 149 469.5 113 c 128,-1,61
 476 77 476 77 476 40 c 1,62,-1
 582 40 l 2,0,1
67 272 m 1,63,-1
 268 272 l 1,64,65
 268 324 268 324 260 375 c 128,-1,66
 252 426 252 426 252 478 c 1,67,-1
 241 478 l 1,68,-1
 67 272 l 1,63,-1
EndSplineSet
EndChar

StartChar: g
Encoding: 103 103 122
Width: 569
Flags: W
HStem: -274 242<97.0203 176.591> 17 59<184.5 301.06> 335 75<192 302.477> 417 20G<424 446>
VStem: 34 190<92.294 280.983> 36 158<-213.25 -84.125> 369 160<118.527 305.117>
LayerCount: 2
Fore
SplineSet
521 365 m 1,0,1
 529 280 529 280 529 222.5 c 128,-1,2
 529 165 529 165 525.5 116.5 c 128,-1,3
 522 68 522 68 511 22 c 0,4,5
 481 -102 481 -102 377 -200 c 0,6,7
 299 -274 299 -274 173 -274 c 0,8,9
 114 -274 114 -274 74 -234 c 0,10,11
 36 -196 36 -196 36 -130 c 0,12,13
 36 -80 36 -80 48 -66 c 0,14,15
 68 -42 68 -42 115 -32 c 1,16,-1
 140 -31 l 2,17,18
 164 -31 164 -31 177 -29 c 1,19,20
 202 -42 202 -42 202 -74 c 1,21,-1
 194 -155 l 2,22,23
 194 -160 194 -160 200 -183 c 0,24,25
 212 -224 212 -224 217 -226 c 1,26,27
 263 -217 263 -217 295 -180.5 c 128,-1,28
 327 -144 327 -144 346 -96 c 0,29,30
 382 -4 382 -4 382 102 c 1,31,32
 357 62 357 62 299 38 c 0,33,34
 249 17 249 17 202 17 c 0,35,36
 167 17 167 17 135 29 c 0,37,38
 70 52 70 52 46 112 c 0,39,40
 34 142 34 142 34 180.5 c 128,-1,41
 34 219 34 219 47.5 259.5 c 128,-1,42
 61 300 61 300 87 334 c 0,43,44
 146 410 146 410 238 410 c 0,45,46
 260 410 260 410 297 391 c 0,47,48
 359 359 359 359 379 336 c 1,49,50
 375 348 375 348 375 373 c 2,51,-1
 375 401 l 2,52,53
 375 426 375 426 394 431.5 c 128,-1,54
 413 437 413 437 435 437 c 128,-1,55
 457 437 457 437 477.5 436.5 c 128,-1,56
 498 436 498 436 516 434 c 0,57,58
 557 428 557 428 557 408 c 0,59,60
 557 398 557 398 546.5 389 c 128,-1,61
 536 380 536 380 530 375.5 c 128,-1,62
 524 371 524 371 521 365 c 1,0,1
269.5 76 m 128,-1,64
 286 76 286 76 303.5 81.5 c 0,65,66
 322 87 322 87 336 103 c 0,67,68
 370 140 370 140 369 224 c 0,69,70
 369 281 369 281 345 308 c 128,-1,71
 321 335 321 335 281 335 c 0,72,73
 252 335 252 335 236 286 c 0,74,75
 224 250 224 250 224 190.5 c 128,-1,76
 224 131 224 131 238.5 103.5 c 128,-1,63
 253 76 253 76 269.5 76 c 128,-1,64
EndSplineSet
EndChar

StartChar: germandbls
Encoding: 223 223 123
Width: 624
Flags: W
HStem: -119 68.5<52.9852 121.015> -99 49.5<92.2236 136.996> 284 48<20.7219 106> 643 36<340.48 455.337>
VStem: 112 167<338 514.08> 137 161<-45.2936 228.109> 397 49<366.551 415.999> 486 48<490.289 616.182> 540 44.5<100.156 250.253>
LayerCount: 2
Fore
SplineSet
352 -63.5 m 128,-1,1
 362 -68 362 -68 362 -83.5 c 128,-1,2
 362 -99 362 -99 354 -99 c 2,3,-1
 150 -99 l 2,4,5
 136 -99 136 -99 126 -106 c 0,6,7
 99 -119 99 -119 92 -119 c 0,8,9
 78 -119 78 -119 67 -114.5 c 128,-1,10
 56 -110 56 -110 38 -99 c 1,11,12
 37 -96 37 -96 37 -92 c 2,13,-1
 37 -87 l 2,14,15
 37 -63 37 -63 52.5 -57 c 128,-1,16
 68 -51 68 -51 87 -50.5 c 128,-1,17
 106 -50 106 -50 121.5 -49.5 c 128,-1,18
 137 -49 137 -49 137 -38 c 0,19,20
 137 16 137 16 130 76 c 128,-1,21
 123 136 123 136 120.5 171 c 128,-1,22
 118 206 118 206 116 222 c 128,-1,23
 114 238 114 238 110 252 c 0,24,25
 100 284 100 284 79 284 c 0,26,27
 43 284 43 284 20 264 c 1,28,29
 12 285 12 285 12 297 c 0,30,31
 12 332 12 332 26 332 c 2,32,-1
 106 332 l 1,33,-1
 112 338 l 1,34,-1
 112 375 l 2,35,36
 112 572 112 572 243 649 c 1,37,-1
 260 658 l 2,38,39
 275 666 275 666 295 672.5 c 128,-1,40
 315 679 315 679 317 679 c 2,41,-1
 429 679 l 2,42,43
 449 679 449 679 491 644 c 0,44,45
 534 609 534 609 534 593 c 2,46,-1
 534 531 l 2,47,48
 534 524 534 524 515 487.5 c 128,-1,49
 496 451 496 451 491.5 444.5 c 128,-1,50
 487 438 487 438 479.5 429.5 c 0,51,52
 472 420 472 420 464 412 c 0,53,54
 446 391 446 391 446 387 c 0,55,56
 446 380 446 380 459.5 372 c 128,-1,57
 473 364 473 364 496 343.5 c 0,58,59
 518 324 518 324 538 298 c 0,60,61
 584 237 584 237 584.5 187 c 128,-1,62
 585 137 585 137 578 109 c 0,63,64
 564 50 564 50 528 37 c 2,65,-1
 367 -19 l 2,66,67
 366 -20 366 -20 365 -20 c 2,68,-1
 363 -20 l 2,69,70
 352 -20 352 -20 346.5 -6.5 c 128,-1,71
 341 7 341 7 341 15.5 c 128,-1,72
 341 24 341 24 355.5 29 c 128,-1,73
 370 34 370 34 392.5 39.5 c 128,-1,74
 415 45 415 45 440.5 53 c 0,75,76
 466 60 466 60 488 74 c 0,77,78
 540 105 540 105 540 166 c 0,79,80
 540 221 540 221 506 272 c 128,-1,81
 472 323 472 323 422 345 c 1,82,83
 405 358 405 358 401 365 c 128,-1,84
 397 372 397 372 397 384 c 0,85,86
 397 406 397 406 404 420 c 1,87,88
 418 435 418 435 432.5 450 c 128,-1,89
 447 465 447 465 459 482 c 0,90,91
 486 520 486 520 486 556 c 128,-1,92
 486 592 486 592 463.5 617.5 c 128,-1,93
 441 643 441 643 404 643 c 0,94,95
 368 643 368 643 342 626 c 0,96,97
 332 620 332 620 329 612 c 2,98,-1
 298 537 l 1,99,-1
 298 531 l 1,100,101
 279 393 279 393 279 339.5 c 128,-1,102
 279 286 279 286 280.5 244 c 128,-1,103
 282 202 282 202 284 156 c 0,104,105
 288 52 288 52 298 -19 c 1,106,107
 298 -39 298 -39 308 -45.5 c 128,-1,108
 318 -52 318 -52 330 -55.5 c 128,-1,0
 342 -59 342 -59 352 -63.5 c 128,-1,1
EndSplineSet
EndChar

StartChar: grave
Encoding: 96 96 124
Width: 242
Flags: W
HStem: 682 26<209.067 226.842> 743 26<13.127 31>
VStem: 11 220
LayerCount: 2
Fore
SplineSet
231 705 m 1,0,-1
 232 700 l 1,1,2
 232 688 232 688 227 685 c 128,-1,3
 222 682 222 682 211 682 c 2,4,-1
 204 682 l 2,5,6
 202 682 202 682 200 683 c 2,7,-1
 12 743 l 2,8,9
 11 743 11 743 11 744 c 2,10,-1
 11 746 l 2,11,12
 11 757 11 757 19 763 c 0,13,14
 26 769 26 769 31 769 c 0,15,16
 32 768 l 0,17,18
 37 768 37 768 38 768 c 2,19,-1
 43 768 l 1,20,-1
 231 708 l 1,21,-1
 231 705 l 1,0,-1
EndSplineSet
EndChar

StartChar: greater
Encoding: 62 62 125
Width: 438
Flags: W
LayerCount: 2
Fore
SplineSet
80 124 m 2,0,1
 73 124 73 124 73 136 c 128,-1,2
 73 148 73 148 74 149.5 c 128,-1,3
 75 151 75 151 80 155 c 2,4,-1
 329 329 l 1,5,-1
 329 341 l 1,6,-1
 223 409 l 1,7,-1
 217 415 l 1,8,-1
 80 503 l 1,9,10
 61 535 61 535 61 537 c 0,11,12
 63 542 63 542 69 547.5 c 128,-1,13
 75 553 75 553 78 553 c 1,14,-1
 403 354 l 1,15,16
 410 348 410 348 410 337 c 128,-1,17
 410 326 410 326 401 319 c 128,-1,18
 392 312 392 312 382 306 c 0,19,20
 354 290 354 290 354 286 c 1,21,-1
 112 124 l 1,22,-1
 80 124 l 2,0,1
EndSplineSet
EndChar

StartChar: guillemotleft
Encoding: 171 171 126
Width: 442
Flags: W
LayerCount: 2
Fore
SplineSet
180 515 m 2,0,1
 186 522 186 522 201.5 522 c 128,-1,2
 217 522 217 522 217 515 c 2,3,-1
 217 484 l 1,4,-1
 93 341 l 1,5,6
 87 337 87 337 87 323 c 1,7,-1
 155 218 l 1,8,9
 170 207 170 207 170 174 c 1,10,-1
 137 174 l 1,11,-1
 20 336 l 1,12,-1
 180 515 l 2,0,1
359 515 m 1,13,14
 363 522 363 522 379.5 522 c 128,-1,15
 396 522 396 522 396 515 c 2,16,-1
 396 484 l 1,17,-1
 271 341 l 2,18,19
 265 335 265 335 265 323 c 1,20,-1
 334 218 l 1,21,22
 345 210 345 210 346.5 197.5 c 128,-1,23
 348 185 348 185 348 174 c 1,24,-1
 315 174 l 1,25,-1
 198 336 l 1,26,-1
 359 515 l 1,13,14
EndSplineSet
EndChar

StartChar: guillemotright
Encoding: 187 187 127
Width: 442
Flags: W
LayerCount: 2
Fore
SplineSet
46 515 m 2,0,1
 46 522 46 522 58 522 c 0,2,3
 79 522 79 522 83 515 c 1,4,-1
 244 336 l 1,5,-1
 127 174 l 1,6,-1
 94 174 l 1,7,8
 94 185 94 185 95.5 197.5 c 128,-1,9
 97 210 97 210 108 218 c 1,10,-1
 177 323 l 1,11,12
 177 335 177 335 171 341 c 2,13,-1
 46 484 l 1,14,-1
 46 515 l 2,0,1
225 515 m 2,15,16
 225 522 225 522 237 522 c 0,17,18
 256 522 256 522 262 515 c 2,19,-1
 422 336 l 1,20,-1
 305 174 l 1,21,-1
 272 174 l 1,22,23
 272 207 272 207 287 218 c 1,24,-1
 355 323 l 1,25,26
 355 337 355 337 349 341 c 1,27,-1
 225 484 l 1,28,-1
 225 515 l 2,15,16
EndSplineSet
EndChar

StartChar: guilsinglleft
Encoding: 8249 8249 128
Width: 263
Flags: W
VStem: 20 197
LayerCount: 2
Fore
SplineSet
180 515 m 2,0,1
 186 522 186 522 201.5 522 c 128,-1,2
 217 522 217 522 217 515 c 2,3,-1
 217 484 l 1,4,-1
 93 341 l 1,5,6
 87 337 87 337 87 323 c 1,7,-1
 155 218 l 1,8,9
 170 207 170 207 170 174 c 1,10,-1
 137 174 l 1,11,-1
 20 336 l 1,12,-1
 180 515 l 2,0,1
EndSplineSet
EndChar

StartChar: guilsinglright
Encoding: 8250 8250 129
Width: 263
Flags: W
VStem: 46 198
LayerCount: 2
Fore
SplineSet
46 515 m 2,0,1
 46 522 46 522 58 522 c 0,2,3
 79 522 79 522 83 515 c 1,4,-1
 244 336 l 1,5,-1
 127 174 l 1,6,-1
 94 174 l 1,7,8
 94 185 94 185 95.5 197.5 c 128,-1,9
 97 210 97 210 108 218 c 1,10,-1
 177 323 l 1,11,12
 177 335 177 335 171 341 c 2,13,-1
 46 484 l 1,14,-1
 46 515 l 2,0,1
EndSplineSet
EndChar

StartChar: h
Encoding: 104 104 130
Width: 707
Flags: W
HStem: -38 54<12.6328 87.4865> -25 49<262.219 324.4> 410 42<399.5 436.718> 558 44<94.2207 134.996>
VStem: 125 131<56.7188 256.075> 137 137<387.433 558.641> 406 194<77.6509 334.913>
LayerCount: 2
Fore
SplineSet
296 25 m 1,0,1
 319 25 319 25 325 0 c 1,2,3
 325 -18 325 -18 314 -21.5 c 128,-1,4
 303 -25 303 -25 286.5 -25 c 128,-1,5
 270 -25 270 -25 259.5 -24 c 0,6,7
 248 -24 248 -24 238 -22 c 0,8,9
 214 -18 214 -18 180.5 -18 c 128,-1,10
 147 -18 147 -18 132.5 -19.5 c 128,-1,11
 118 -21 118 -21 105 -24 c 128,-1,12
 92 -27 92 -27 79 -30.5 c 128,-1,13
 66 -34 66 -34 50 -38 c 1,14,-1
 44 -38 l 2,15,16
 12 -38 12 -38 12 -9 c 0,17,18
 12 10 12 10 41 16 c 0,19,20
 74 22 74 22 91.5 42 c 128,-1,21
 109 62 109 62 116 80 c 0,22,23
 125 104 125 104 125 162 c 1,24,25
 137 402 137 402 137 559 c 1,26,-1
 116 558 l 2,27,28
 101 558 101 558 94 563 c 128,-1,29
 87 568 87 568 87 584 c 128,-1,30
 87 600 87 600 100 602 c 128,-1,31
 113 604 113 604 135 610 c 0,32,33
 218 631 218 631 270 662 c 1,34,35
 286 682 286 682 295 682 c 128,-1,36
 304 682 304 682 308.5 672.5 c 128,-1,37
 313 663 313 663 313 651 c 128,-1,38
 313 639 313 639 304.5 624 c 128,-1,39
 296 609 296 609 293.5 592 c 128,-1,40
 291 575 291 575 287.5 545.5 c 128,-1,41
 284 516 284 516 281 488 c 0,42,43
 274 422 274 422 274 417.5 c 128,-1,44
 274 413 274 413 274.5 402 c 128,-1,45
 275 391 275 391 275 387 c 1,46,47
 293 405 293 405 322.5 425 c 128,-1,48
 352 445 352 445 368 448.5 c 128,-1,49
 384 452 384 452 415 452 c 0,50,51
 485 452 485 452 537 400 c 0,52,53
 595 342 595 342 599 223 c 0,54,55
 600 191 600 191 600 161 c 2,56,-1
 600 148 l 1,57,58
 607 78 607 78 619 69 c 1,59,-1
 640 70 l 1,60,61
 671 70 671 70 679.5 64.5 c 128,-1,62
 688 59 688 59 688 37 c 1,63,64
 676 13 676 13 592 -3 c 0,65,66
 571 -7 571 -7 556 -7 c 0,67,68
 505 -7 505 -7 474.5 14 c 128,-1,69
 444 35 444 35 426 82 c 0,70,71
 424 87 424 87 420.5 95.5 c 128,-1,72
 417 104 417 104 414 112.5 c 128,-1,73
 411 121 411 121 408.5 128 c 128,-1,74
 406 135 406 135 406 137 c 2,75,-1
 406 319 l 2,76,77
 406 342 406 342 394 356.5 c 128,-1,78
 382 371 382 371 363.5 371 c 128,-1,79
 345 371 345 371 330.5 357 c 128,-1,80
 316 343 316 343 304 321 c 0,81,82
 274 269 274 269 266 195 c 0,83,84
 264 176 264 176 262 157 c 0,85,86
 256 115 256 115 256 106 c 2,87,-1
 262 31 l 1,88,89
 269 24 269 24 279 24 c 2,90,-1
 296 25 l 1,0,1
437 407 m 256,91,92
 437 410 437 410 435 410 c 0,93,94
 431 410 431 410 431 408 c 0,95,96
 431 404 431 404 435 404 c 0,97,98
 437 404 437 404 437 407 c 256,91,92
EndSplineSet
EndChar

StartChar: heart
Encoding: 9829 9829 131
Width: 722
Flags: W
HStem: 428 20G<465 507>
VStem: 45 644<183.419 374.955>
LayerCount: 2
Fore
SplineSet
566 447 m 2,0,-1
 600 446 l 1,1,2
 641 430 641 430 666 382 c 0,3,4
 689 337 689 337 689 292 c 0,5,6
 688 231 688 231 668 185 c 0,7,8
 660 168 660 168 650 157 c 2,9,-1
 376 -117 l 1,10,-1
 147 31 l 2,11,12
 146 32 146 32 141.5 37 c 128,-1,13
 137 42 137 42 135 44 c 0,14,15
 96 98 96 98 70.5 153 c 128,-1,16
 45 208 45 208 45 276 c 2,17,-1
 45 290 l 1,18,-1
 46 325 l 1,19,-1
 46 333 l 2,20,21
 46 336 46 336 50 343 c 2,22,-1
 57 358 l 2,23,24
 69 381 69 381 80.5 393.5 c 128,-1,25
 92 406 92 406 102 416 c 0,26,27
 131 445 131 445 138.5 448 c 128,-1,28
 146 451 146 451 152 453 c 128,-1,29
 158 455 158 455 163.5 457 c 128,-1,30
 169 459 169 459 172 459 c 2,31,-1
 222 461 l 2,32,33
 236 461 236 461 252 461 c 2,34,-1
 286 459 l 1,35,-1
 348 396 l 1,36,-1
 360 395 l 1,37,38
 374 395 374 395 387 406 c 2,39,-1
 409 424 l 2,40,41
 439 448 439 448 491 448 c 0,42,43
 495 448 495 448 500 448 c 0,44,45
 514 448 514 448 524 447 c 0,46,47
 546 447 546 447 566 447 c 2,0,-1
EndSplineSet
EndChar

StartChar: heart1
Encoding: 9825 9825 132
Width: 881
Flags: W
HStem: -160 116<60.861 86 89 120.346> 421 50.5<776.611 830.749> 427 20G<508 557>
LayerCount: 2
Fore
SplineSet
86 -44 m 1,0,-1
 89 -43 l 1,1,2
 100 -43 100 -43 121 -56 c 1,3,4
 146 -31 146 -31 171 -6 c 1,5,-1
 173 0 l 257,6,7
 171 7 171 7 163 17 c 128,-1,8
 155 27 155 27 146.5 38 c 128,-1,9
 138 49 138 49 130 58 c 0,10,11
 104 89 104 89 100 118 c 128,-1,12
 96 147 96 147 96 178 c 128,-1,13
 96 209 96 209 102 245.5 c 128,-1,14
 108 282 108 282 124 313 c 0,15,16
 161 385 161 385 234 385 c 0,17,18
 258 386 258 386 282 376 c 0,19,20
 325 358 325 358 347 358 c 1,21,-1
 360 359 l 1,22,23
 395 405 395 405 437 426 c 128,-1,24
 479 447 479 447 537 447 c 0,25,26
 577 446 577 446 624 420 c 0,27,28
 644 408 644 408 649 409 c 256,29,30
 655 409 655 409 670 425.5 c 128,-1,31
 685 442 685 442 686.5 445.5 c 128,-1,32
 688 449 688 449 692 460.5 c 128,-1,33
 696 472 696 472 700 484.5 c 128,-1,34
 704 497 704 497 708 508 c 0,35,36
 712 524 712 524 718 530 c 2,37,-1
 730 542 l 2,38,39
 744 556 744 556 750 560 c 1,40,41
 762 548 762 548 762.5 546.5 c 128,-1,42
 763 545 763 545 764.5 535.5 c 128,-1,43
 766 526 766 526 768 515 c 128,-1,44
 770 504 770 504 771.5 495 c 128,-1,45
 773 486 773 486 776.5 481 c 128,-1,46
 780 476 780 476 791 474.5 c 128,-1,47
 802 473 802 473 812.5 471.5 c 128,-1,48
 823 470 823 470 831 466 c 128,-1,49
 839 462 839 462 839 448 c 0,50,51
 839 418 839 418 805 418 c 1,52,-1
 750 421 l 2,53,54
 736 421 736 421 722 407 c 0,55,56
 707 392 707 392 697 382 c 128,-1,57
 687 372 687 372 687 370.5 c 128,-1,58
 687 369 687 369 691 363.5 c 0,59,60
 696 358 696 358 700 352 c 0,61,62
 712 335 712 335 712 333 c 1,63,64
 726 305 726 305 726 285 c 2,65,-1
 726 252 l 2,66,67
 726 174 726 174 700 145 c 0,68,69
 694 139 694 139 678 122.5 c 128,-1,70
 662 106 662 106 644 88 c 0,71,72
 616 60 616 60 587 31 c 1,73,74
 582 29 582 29 572 22 c 2,75,-1
 556 11 l 2,76,77
 546 4 546 4 528 -11.5 c 128,-1,78
 510 -27 510 -27 494 -40.5 c 128,-1,79
 478 -54 478 -54 465 -66 c 128,-1,80
 452 -78 452 -78 448 -81 c 0,81,82
 441 -88 441 -88 436.5 -97 c 128,-1,83
 432 -106 432 -106 427 -114 c 0,84,85
 415 -133 415 -133 397 -133 c 2,86,-1
 390 -133 l 2,87,88
 386 -133 386 -133 379.5 -126 c 0,89,90
 372 -118 372 -118 366 -112 c 2,91,-1
 354 -100 l 2,92,93
 332 -78 332 -78 240 -38 c 0,94,95
 224 -31 224 -31 221 -31 c 2,96,-1
 209 -31 l 1,97,-1
 146 -94 l 1,98,99
 150 -99 150 -99 150 -113 c 128,-1,100
 150 -127 150 -127 146 -132 c 1,101,102
 139 -134 139 -134 132.5 -136.5 c 128,-1,103
 126 -139 126 -139 119.5 -141 c 128,-1,104
 113 -143 113 -143 103.5 -146 c 128,-1,105
 94 -149 94 -149 83.5 -152 c 0,106,107
 73 -154 73 -154 63 -156 c 0,108,109
 40 -160 40 -160 17 -160 c 1,110,111
 17 -114 17 -114 33 -94 c 0,112,113
 36 -91 36 -91 43 -83.5 c 128,-1,114
 50 -76 50 -76 58.5 -68 c 128,-1,115
 67 -60 67 -60 74 -53 c 128,-1,116
 81 -46 81 -46 84 -44 c 1,117,-1
 86 -44 l 1,0,-1
EndSplineSet
EndChar

StartChar: hyphen
Encoding: 45 45 133
Width: 537
Flags: W
HStem: 224 52<69.2441 455.687> 232 44<231.188 465.88>
LayerCount: 2
Fore
SplineSet
441 232 m 1,0,1
 321 224 321 224 255 224 c 2,2,-1
 128 224 l 2,3,4
 68 224 68 224 68 247 c 0,5,6
 68 264 68 264 94 276 c 1,7,-1
 288 270 l 1,8,-1
 432 276 l 2,9,10
 446 276 446 276 456 273 c 128,-1,11
 466 270 466 270 466 257 c 0,12,13
 466 232 466 232 441 232 c 1,0,1
EndSplineSet
EndChar

StartChar: i
Encoding: 105 105 134
Width: 412
Flags: W
HStem: -22 50<50.2197 129.087> 428 20G<258 286> 484 201<134.711 206.875>
VStem: 81 181<538.312 630.453> 132 168<71.6792 301.273>
LayerCount: 2
Fore
SplineSet
212 -8 m 257,0,1
 159 -8 159 -8 75 -22 c 1,2,3
 50 -22 50 -22 50 4 c 0,4,5
 50 23 50 23 60.5 28 c 128,-1,6
 71 33 71 33 85 33.5 c 128,-1,7
 99 34 99 34 112.5 35 c 128,-1,8
 126 36 126 36 131 46 c 1,9,-1
 131 56 l 1,10,-1
 132 87 l 1,11,-1
 132 97 l 2,12,13
 132 217 132 217 112 304 c 1,14,15
 100 322 100 322 83 325 c 128,-1,16
 66 328 66 328 50.5 328.5 c 128,-1,17
 35 329 35 329 23.5 332.5 c 128,-1,18
 12 336 12 336 12 350 c 128,-1,19
 12 364 12 364 26.5 372 c 128,-1,20
 41 380 41 380 60.5 386 c 128,-1,21
 80 392 80 392 98.5 396.5 c 128,-1,22
 117 401 117 401 140 409.5 c 128,-1,23
 163 418 163 418 203.5 433 c 128,-1,24
 244 448 244 448 272 448 c 128,-1,25
 300 448 300 448 303.5 442.5 c 128,-1,26
 307 437 307 437 307 417 c 128,-1,27
 307 397 307 397 301 385 c 1,28,-1
 300 212 l 2,29,30
 300 157 300 157 303 141 c 0,31,32
 307 120 307 120 315.5 90 c 128,-1,33
 324 60 324 60 336 49.5 c 128,-1,34
 348 39 348 39 361 30.5 c 128,-1,35
 374 22 374 22 384.5 15.5 c 128,-1,36
 395 9 395 9 395 4 c 0,37,38
 395 -13 395 -13 383 -17.5 c 128,-1,39
 371 -22 371 -22 356 -22 c 1,40,-1
 344 -21 l 1,41,42
 302 -8 302 -8 212 -8 c 257,0,1
148 484 m 0,43,44
 81 484 81 484 81 562.5 c 128,-1,45
 81 641 81 641 169 685 c 1,46,47
 211 685 211 685 236.5 661.5 c 128,-1,48
 262 638 262 638 262 597 c 128,-1,49
 262 556 262 556 224 520 c 128,-1,50
 186 484 186 484 148 484 c 0,43,44
EndSplineSet
EndChar

StartChar: j
Encoding: 106 106 139
Width: 456
Flags: W
HStem: -262 69<152.962 232.432> 376 163<258.536 342.937>
VStem: 11 126<-180.262 -43.0078 -42.5642 -24> 218 164<404.624 500.518> 276 155<-64.2133 224.99>
LayerCount: 2
Fore
SplineSet
187 321 m 1,0,-1
 215 320 l 2,1,2
 233 320 233 320 236.5 323 c 128,-1,3
 240 326 240 326 246 328.5 c 128,-1,4
 252 331 252 331 270 334 c 0,5,6
 310 341 310 341 412 346 c 0,7,8
 414 346 414 346 422.5 340 c 128,-1,9
 431 334 431 334 431 327 c 2,10,-1
 431 257 l 2,11,12
 431 65 431 65 422 -6.5 c 128,-1,13
 413 -78 413 -78 400.5 -115 c 128,-1,14
 388 -152 388 -152 373 -174 c 128,-1,15
 358 -196 358 -196 343.5 -211 c 0,16,17
 330 -226 330 -226 310 -237 c 0,18,19
 266 -262 266 -262 207 -262 c 0,20,21
 158 -262 158 -262 102 -241 c 0,22,23
 88 -236 88 -236 87 -236 c 1,24,25
 59 -208 59 -208 38 -187 c 128,-1,26
 17 -166 17 -166 14 -145.5 c 128,-1,27
 11 -125 11 -125 11 -105 c 2,28,-1
 12 -24 l 1,29,-1
 31 -4 l 1,30,31
 128 -4 128 -4 136 -22 c 0,32,33
 140 -29 140 -29 144 -43 c 1,34,35
 137 -43 137 -43 137 -75 c 2,36,-1
 137 -111 l 2,37,38
 137 -137 137 -137 146.5 -160 c 128,-1,39
 156 -183 156 -183 175 -193 c 1,40,41
 215 -193 215 -193 233 -173 c 0,42,43
 252 -152 252 -152 258 -108 c 0,44,45
 276 19 276 19 276 111 c 0,46,47
 276 168 276 168 267.5 193.5 c 128,-1,48
 259 219 259 219 248.5 234.5 c 128,-1,49
 238 250 238 250 225.5 256 c 128,-1,50
 213 262 213 262 203 266.5 c 128,-1,51
 193 271 193 271 186.5 278.5 c 128,-1,52
 180 286 180 286 180 302 c 128,-1,53
 180 318 180 318 187 321 c 1,0,-1
218 440 m 1,54,-1
 219 464 l 1,55,56
 223 485 223 485 244 505 c 0,57,58
 281 539 281 539 306 539 c 0,59,60
 316 539 316 539 339 521 c 0,61,62
 382 487 382 487 382 470 c 0,63,64
 382 428 382 428 358 402 c 128,-1,65
 334 376 334 376 294.5 376 c 128,-1,66
 255 376 255 376 236.5 388 c 128,-1,67
 218 400 218 400 218 440 c 1,54,-1
EndSplineSet
EndChar

StartChar: k
Encoding: 107 107 140
Width: 637
Flags: W
HStem: -15 38<233.619 307.868> 391 62<482 541.271> 403.5 49.5<377.706 419.562> 546.5 45.5<12.2507 56> 666 20G<239 254>
VStem: 95 148<266 529.688> 95 130<50.3594 197.501>
LayerCount: 2
Fore
SplineSet
626 12 m 0,0,1
 626 -11 626 -11 534 -11 c 0,2,3
 485 -11 485 -11 471.5 -8 c 128,-1,4
 458 -5 458 -5 440 0 c 128,-1,5
 422 5 422 5 405.5 23.5 c 128,-1,6
 389 42 389 42 376.5 65.5 c 128,-1,7
 364 89 364 89 353.5 115 c 0,8,9
 343 140 343 140 331 162 c 0,10,11
 303 211 303 211 265 212 c 0,12,13
 248 212 248 212 244 210 c 1,14,-1
 231 198 l 1,15,16
 229 182 229 182 228 172 c 128,-1,17
 227 162 227 162 226 153 c 128,-1,18
 225 144 225 144 225 140 c 128,-1,19
 225 136 225 136 226 122.5 c 0,20,21
 228 109 228 109 228 94 c 0,22,23
 229 59 229 59 231 47 c 0,24,25
 234 37 234 37 246.5 35 c 128,-1,26
 259 33 259 33 272.5 31 c 128,-1,27
 286 29 286 29 297 23 c 128,-1,28
 308 17 308 17 308 1 c 256,29,30
 308 -15 308 -15 295 -15 c 0,31,32
 287 -15 287 -15 269 -16 c 128,-1,33
 251 -17 251 -17 228 -18 c 128,-1,34
 205 -19 205 -19 179.5 -20.5 c 128,-1,35
 154 -22 154 -22 130.5 -23.5 c 128,-1,36
 107 -25 107 -25 89 -26 c 128,-1,37
 71 -27 71 -27 62 -28 c 1,38,39
 30 -28 30 -28 30 -3 c 0,40,41
 30 10 30 10 38 17.5 c 128,-1,42
 46 25 46 25 55.5 32.5 c 128,-1,43
 65 40 65 40 73 50 c 128,-1,44
 81 60 81 60 81 79 c 1,45,46
 95 180 95 180 95 223 c 2,47,-1
 95 301 l 258,48,49
 95 419 95 419 81 511 c 0,50,51
 76 538 76 538 52 542 c 0,52,53
 42 544 42 544 31 546.5 c 128,-1,54
 20 549 20 549 12 560 c 1,55,-1
 11 564 l 1,56,57
 11 578 11 578 24 585 c 128,-1,58
 37 592 37 592 50 592 c 1,59,-1
 56 591 l 1,60,61
 71 597 71 597 109 614.5 c 128,-1,62
 147 632 147 632 166.5 641 c 128,-1,63
 186 650 186 650 192 652.5 c 128,-1,64
 198 655 198 655 204 660.5 c 128,-1,65
 210 666 210 666 216 672 c 0,66,67
 233 686 233 686 245 686 c 0,68,69
 263 686 263 686 263 659 c 128,-1,70
 263 632 263 632 256 617 c 1,71,72
 249 536 249 536 246 430 c 128,-1,73
 243 324 243 324 243 320 c 2,74,-1
 243 308 l 1,75,-1
 244 276 l 1,76,-1
 244 266 l 1,77,78
 346 325 346 325 420 397 c 1,79,80
 406 399 406 399 391.5 403.5 c 128,-1,81
 377 408 377 408 377 426 c 0,82,83
 377 453 377 453 436 453 c 0,84,85
 547 453 547 453 547 417 c 0,86,87
 547 391 547 391 482 391 c 1,88,-1
 356 292 l 1,89,90
 408 264 408 264 468 178 c 0,91,92
 492 144 492 144 512.5 113 c 128,-1,93
 533 82 533 82 545.5 70 c 128,-1,94
 558 58 558 58 570.5 53.5 c 128,-1,95
 583 49 583 49 595.5 43.5 c 128,-1,96
 608 38 608 38 617 31 c 128,-1,97
 626 24 626 24 626 12 c 0,0,1
EndSplineSet
EndChar

StartChar: l
Encoding: 108 108 141
Width: 350
Flags: W
HStem: -16 51<10.4426 74> 583 58<50.0781 90> 679 20G<225 243.5>
VStem: 93 131<57.1299 475.023> 100 140<296 585.531>
LayerCount: 2
Fore
SplineSet
74 -15 m 1,0,-1
 59 -16 l 1,1,2
 24 -16 24 -16 10 0 c 0,3,4
 4 6 4 6 4.5 14.5 c 128,-1,5
 5 23 5 23 11 29 c 128,-1,6
 17 35 17 35 24 35 c 2,7,-1
 105 35 l 2,8,9
 107 35 107 35 109.5 42 c 128,-1,10
 112 49 112 49 112 52.5 c 128,-1,11
 112 56 112 56 111 64 c 128,-1,12
 110 72 110 72 109 82 c 0,13,14
 106 110 106 110 99.5 158 c 128,-1,15
 93 206 93 206 93 296 c 1,16,-1
 100 554 l 2,17,18
 100 571 100 571 94 586 c 1,19,20
 79 583 79 583 72 583 c 0,21,22
 43 583 43 583 43 607 c 0,23,24
 44 623 44 623 90 641 c 0,25,26
 100 645 100 645 120 653 c 0,27,28
 140 662 140 662 171 676 c 0,29,30
 213 695 213 695 237 699 c 1,31,32
 250 699 250 699 256 685 c 128,-1,33
 262 671 262 671 262 660 c 128,-1,34
 262 649 262 649 259 632 c 128,-1,35
 256 615 256 615 252.5 598.5 c 128,-1,36
 249 582 249 582 246 568.5 c 128,-1,37
 243 555 243 555 243 523 c 128,-1,38
 243 491 243 491 240 442 c 0,39,40
 238 393 238 393 234 347 c 0,41,42
 224 222 224 222 224 178 c 0,43,44
 224 116 224 116 231 85 c 1,45,46
 233 61 233 61 240 57 c 0,47,48
 249 51 249 51 272 51 c 2,49,-1
 278 51 l 2,50,51
 295 51 295 51 308.5 49 c 128,-1,52
 322 47 322 47 322 35 c 0,53,54
 322 7 322 7 302 4 c 1,55,56
 195 1 195 1 74 -15 c 1,0,-1
EndSplineSet
EndChar

StartChar: leaf
Encoding: 127807 127807 142
Width: 752
Flags: W
HStem: -104 28<205.912 337>
VStem: 86 37<50 148.282>
LayerCount: 2
Fore
SplineSet
337 -104 m 1,0,-1
 249 -101 l 258,1,2
 244 -101 244 -101 233 -99 c 128,-1,3
 222 -97 222 -97 210 -95 c 0,4,5
 183 -91 183 -91 177.5 -89.5 c 128,-1,6
 172 -88 172 -88 167.5 -83 c 128,-1,7
 163 -78 163 -78 161 -75.5 c 128,-1,8
 159 -73 159 -73 153.5 -66 c 128,-1,9
 148 -59 148 -59 142 -50.5 c 128,-1,10
 136 -42 136 -42 130.5 -35 c 128,-1,11
 125 -28 125 -28 123 -25 c 1,12,-1
 117 -25 l 2,13,14
 96 -24 96 -24 74 -50 c 0,15,16
 66 -60 66 -60 58.5 -68 c 128,-1,17
 51 -76 51 -76 41 -76 c 0,18,19
 21 -76 21 -76 21 -51 c 1,20,-1
 22 -38 l 1,21,22
 40 -32 40 -32 75 10 c 0,23,24
 83 20 83 20 85 24 c 128,-1,25
 87 28 87 28 87 41 c 2,26,-1
 86 97 l 1,27,-1
 86 113 l 1,28,29
 91 183 91 183 123 226 c 1,30,31
 144 247 144 247 158 261 c 128,-1,32
 172 275 172 275 173 276.5 c 128,-1,33
 174 278 174 278 177 287 c 0,34,35
 185 309 185 309 190.5 326.5 c 128,-1,36
 196 344 196 344 197.5 349 c 128,-1,37
 199 354 199 354 200.5 361.5 c 128,-1,38
 202 369 202 369 204.5 377 c 128,-1,39
 207 385 207 385 208.5 392.5 c 128,-1,40
 210 400 210 400 211 403 c 128,-1,41
 212 406 212 406 218 417 c 2,42,-1
 229 440 l 2,43,44
 276 536 276 536 342 578 c 0,45,46
 362 590 362 590 381.5 590.5 c 128,-1,47
 401 591 401 591 412.5 580.5 c 128,-1,48
 424 570 424 570 428 554 c 0,49,50
 434 535 434 535 434 490 c 1,51,-1
 450 490 l 1,52,53
 472 508 472 508 520 529.5 c 128,-1,54
 568 551 568 551 576 553 c 1,55,-1
 638 557 l 1,56,-1
 702 553 l 1,57,58
 713 550 713 550 713.5 540.5 c 128,-1,59
 714 531 714 531 714 512 c 128,-1,60
 714 493 714 493 701.5 463.5 c 0,61,62
 690 434 690 434 670 408 c 0,63,64
 629 353 629 353 576 327 c 0,65,66
 574 326 574 326 568.5 324.5 c 128,-1,67
 563 323 563 323 556.5 320.5 c 128,-1,68
 550 318 550 318 544 316 c 0,69,70
 536 314 536 314 537 312 c 2,71,-1
 537 309 l 2,72,73
 537 290 537 290 562.5 260 c 128,-1,74
 588 230 588 230 588 213 c 0,75,76
 588 211 588 211 583 206.5 c 128,-1,77
 578 202 578 202 576 201.5 c 128,-1,78
 574 201 574 201 564 201 c 2,79,-1
 524 202 l 2,80,81
 513 202 513 202 496.5 195 c 128,-1,82
 480 188 480 188 463 182 c 0,83,84
 420 165 420 165 412 163 c 1,85,-1
 378 161 l 1,86,-1
 366 161 l 2,87,88
 336 161 336 161 319 169.5 c 128,-1,89
 302 178 302 178 288.5 188.5 c 128,-1,90
 275 199 275 199 259.5 207.5 c 128,-1,91
 244 216 244 216 228 216 c 0,92,93
 189 216 189 216 186 213 c 1,94,95
 170 208 170 208 158 184 c 0,96,97
 139 147 139 147 137 134 c 128,-1,98
 135 121 135 121 133 110.5 c 128,-1,99
 131 100 131 100 129 88 c 128,-1,100
 127 76 127 76 125 65 c 128,-1,101
 123 54 123 54 123 50 c 1,102,-1
 136 49 l 257,103,-1
 148 50 l 1,104,105
 182 57 182 57 214 67 c 128,-1,106
 246 77 246 77 281 77 c 1,107,108
 282 49 282 49 250 37 c 0,109,110
 236 32 236 32 220.5 29 c 0,111,112
 206 26 206 26 192 22 c 0,113,114
 160 14 160 14 160 -5.5 c 128,-1,115
 160 -25 160 -25 176.5 -42.5 c 128,-1,116
 193 -60 193 -60 205.5 -62 c 128,-1,117
 218 -64 218 -64 235.5 -66 c 128,-1,118
 253 -68 253 -68 273.5 -70 c 128,-1,119
 294 -72 294 -72 312 -74 c 128,-1,120
 330 -76 330 -76 337 -76 c 1,121,-1
 337 -104 l 1,0,-1
EndSplineSet
EndChar

StartChar: less
Encoding: 60 60 143
Width: 438
Flags: W
LayerCount: 2
Fore
SplineSet
364 149.5 m 128,-1,1
 365 148 365 148 365 136 c 128,-1,2
 365 124 365 124 358 124 c 2,3,-1
 327 124 l 1,4,-1
 85 286 l 1,5,6
 86 290 86 290 66 301 c 0,7,8
 30 322 30 322 29 332 c 0,9,10
 29 348 29 348 36 354 c 1,11,-1
 358 552 l 1,12,-1
 361 553 l 2,13,14
 364 554 364 554 370 548 c 0,15,16
 378 541 378 541 377 537 c 0,17,18
 377 534 377 534 375 530 c 0,19,20
 372 524 372 524 368 519 c 0,21,22
 359 503 359 503 358 503 c 2,23,-1
 221 415 l 1,24,-1
 215 409 l 1,25,-1
 110 341 l 1,26,-1
 110 329 l 1,27,-1
 358 155 l 2,28,0
 363 151 363 151 364 149.5 c 128,-1,1
EndSplineSet
EndChar

StartChar: lily
Encoding: 9884 9884 144
Width: 643
Flags: W
HStem: 125 38<493.814 556.453> 150 38<75.9008 101> 213 65<486.064 535.25> 315 50<84.5455 174.142> 353 38<451.945 524.906> 673 20G<332.75 342.25>
VStem: 32 41<188 303.708> 82 39<246.606 264.341> 101 59<188.389 212.936> 185.5 52<125.251 304.06> 273 49<87 295.068> 322 39<598.197 690.376> 372 37<105.842 298.736> 434 51<177.953 225.608> 574 38<180.549 321.188>
LayerCount: 2
Fore
SplineSet
33 176 m 1,0,-1
 32 204 l 1,1,-1
 32 232 l 1,2,3
 31 277 l 2,4,5
 31 295 31 295 47 315 c 128,-1,6
 63 335 63 335 81.5 350 c 128,-1,7
 100 365 100 365 127.5 365 c 128,-1,8
 155 365 155 365 175.5 353.5 c 128,-1,9
 196 342 196 342 210 323 c 0,10,11
 238 284 238 284 237.5 233 c 128,-1,12
 237 182 237 182 221 137.5 c 128,-1,13
 205 93 205 93 159 62 c 0,14,15
 156 60 156 60 144.5 57.5 c 128,-1,16
 133 55 133 55 130 55 c 1,17,18
 130 71 130 71 132.5 74 c 128,-1,19
 135 77 135 77 140.5 84.5 c 128,-1,20
 146 92 146 92 152 100 c 0,21,22
 169 122 169 122 171 126 c 0,23,24
 185 149 185 149 185.5 172 c 128,-1,25
 186 195 186 195 186 217 c 128,-1,26
 186 239 186 239 185 256 c 128,-1,27
 184 273 184 273 178 286 c 0,28,29
 166 315 166 315 126 315 c 0,30,31
 73 315 73 315 73 241 c 0,32,33
 74 232 74 232 74 224 c 0,34,35
 76 202 76 202 75 188 c 1,36,-1
 101 188 l 1,37,38
 101 191 101 191 105.5 201 c 128,-1,39
 110 211 110 211 109 213 c 0,40,41
 107 215 107 215 96 219.5 c 128,-1,42
 85 224 85 224 83 226 c 1,43,-1
 82 238 l 1,44,45
 82 265 82 265 109 265 c 0,46,47
 121 265 121 265 121 263 c 1,48,49
 132 256 132 256 144.5 242 c 128,-1,50
 157 228 157 228 158.5 226.5 c 0,51,52
 160 224 160 224 160 218 c 2,53,-1
 160 209 l 2,54,55
 160 177 160 177 143.5 163.5 c 128,-1,56
 127 150 127 150 88.5 150 c 128,-1,57
 50 150 50 150 33 176 c 1,0,-1
310 62 m 1,58,59
 282 72 282 72 272 87 c 1,60,-1
 273 180 l 1,61,-1
 273 310 l 1,62,-1
 272 402 l 1,63,-1
 260 478 l 1,64,-1
 260 484 l 2,65,66
 260 515 260 515 273 541 c 128,-1,67
 286 567 286 567 294.5 582.5 c 128,-1,68
 303 598 303 598 307 608 c 128,-1,69
 311 618 311 618 312.5 627 c 128,-1,70
 314 636 314 636 316 646.5 c 128,-1,71
 318 657 318 657 320 666.5 c 128,-1,72
 322 676 322 676 322 679 c 1,73,74
 328 693 328 693 337.5 693 c 128,-1,75
 347 693 347 693 347 691 c 1,76,77
 361 671 361 671 361 657 c 0,78,79
 361 650 361 650 359 630 c 0,80,81
 358 620 358 620 359.5 610 c 128,-1,82
 361 600 361 600 364.5 585 c 128,-1,83
 368 570 368 570 372.5 553 c 128,-1,84
 377 536 377 536 380.5 521 c 128,-1,85
 384 506 384 506 385 503 c 2,86,-1
 386 490 l 257,87,-1
 385 478 l 1,88,89
 383 469 383 469 375.5 436 c 128,-1,90
 368 403 368 403 359.5 364.5 c 128,-1,91
 351 326 351 326 343.5 293 c 128,-1,92
 336 260 336 260 334.5 251 c 128,-1,93
 333 242 333 242 331 219 c 128,-1,94
 329 196 329 196 327 170 c 0,95,96
 322 104 322 104 322 87 c 1,97,-1
 310 62 l 1,58,59
448 75 m 1,98,99
 442 62 442 62 429.5 62 c 128,-1,100
 417 62 417 62 407.5 68 c 128,-1,101
 398 74 398 74 391 84 c 0,102,103
 379 100 379 100 372 126 c 1,104,-1
 370 201 l 1,105,-1
 371 245 l 1,106,-1
 372 277 l 2,107,108
 373 279 373 279 377.5 289 c 128,-1,109
 382 299 382 299 388 311 c 0,110,111
 401 337 401 337 411 352 c 0,112,113
 427 378 427 378 453.5 384.5 c 128,-1,114
 480 391 480 391 508 391 c 128,-1,115
 536 391 536 391 536 389 c 1,116,117
 537 389 537 389 552 375 c 128,-1,118
 567 361 567 361 574.5 352.5 c 128,-1,119
 582 344 582 344 586 340 c 128,-1,120
 590 336 590 336 594 330 c 128,-1,121
 598 324 598 324 602 318 c 2,122,-1
 609 308 l 2,123,124
 612 304 612 304 612 302 c 2,125,-1
 612 254 l 1,126,-1
 613 210 l 2,127,128
 614 192 614 192 600 176 c 0,129,130
 586 158 586 158 566.5 141.5 c 128,-1,131
 547 125 547 125 524 125 c 0,132,133
 480 125 480 125 457 152.5 c 128,-1,134
 434 180 434 180 434 221 c 0,135,136
 434 246 434 246 456 262 c 0,137,138
 477 278 477 278 496.5 278 c 128,-1,139
 516 278 516 278 527 266.5 c 0,140,141
 538 256 538 256 538 246 c 0,142,143
 538 228 538 228 536 225.5 c 128,-1,144
 534 223 534 223 524.5 218 c 128,-1,145
 515 213 515 213 511 213 c 256,146,147
 507 213 507 213 497.5 218 c 128,-1,148
 488 223 488 223 486 226 c 1,149,150
 485 224 485 224 485 217 c 2,151,-1
 485 207 l 2,152,153
 485 192 485 192 494.5 177.5 c 128,-1,154
 504 163 504 163 523 163 c 0,155,156
 525 163 525 163 535 168 c 128,-1,157
 545 173 545 173 549.5 176 c 128,-1,158
 554 179 554 179 563.5 189 c 128,-1,159
 573 199 573 199 574 201 c 2,160,-1
 575 236 l 2,161,162
 575 255 575 255 574 276 c 128,-1,163
 573 297 573 297 562 314 c 0,164,165
 559 317 559 317 553.5 323 c 128,-1,166
 548 329 548 329 542 335 c 0,167,168
 527 350 527 350 525 351.5 c 0,169,170
 522 353 522 353 516 353 c 2,171,-1
 506 353 l 2,172,173
 450 353 450 353 426 297 c 0,174,175
 408 257 408 257 409 194 c 2,176,-1
 409 179 l 1,177,-1
 411 138 l 258,178,179
 411 126 411 126 421.5 113 c 128,-1,180
 432 100 432 100 436 94 c 0,181,182
 446 79 446 79 448 75 c 1,98,99
EndSplineSet
EndChar

StartChar: logicalnot
Encoding: 172 172 145
Width: 506
Flags: W
HStem: 293 63<11.4688 293.078>
VStem: 405 86<117.188 309.165> 418.5 71.5<117.188 309.165>
LayerCount: 2
Fore
SplineSet
403 237 m 2,0,-1
 405 311 l 1,1,-1
 384 311 l 1,2,-1
 318 312 l 1,3,4
 289 312 l 2,5,6
 232 312 232 312 175.5 302.5 c 128,-1,7
 119 293 119 293 63.5 293 c 128,-1,8
 8 293 8 293 8 319 c 0,9,10
 8 356 8 356 71 356 c 1,11,12
 375 385 375 385 453 395 c 1,13,14
 488 395 488 395 491 294 c 0,15,16
 492 264 492 264 492 229 c 2,17,-1
 491 168 l 1,18,-1
 490 112 l 1,19,-1
 484 106 l 1,20,-1
 466 104 l 1,21,22
 433 104 433 104 424 117 c 0,23,24
 420 123 420 123 418.5 131.5 c 128,-1,25
 417 140 417 140 415 150 c 1,26,27
 415 183 415 183 409 202 c 128,-1,28
 403 221 403 221 403 237 c 2,0,-1
EndSplineSet
EndChar

StartChar: m
Encoding: 109 109 146
Width: 856
Flags: W
HStem: -8 45.5<24.6066 96.9663 228.188 276.296> 4.5 48.5<784.016 826.293> 335 82<323.823 366.805> 335 34<11.2458 59>
VStem: 92 136<54 195.667> 95 142<130.667 277.423 278.219 294.024> 390 130<159.69 307.868> 627 149<52.626 276.031> 646 130<54.1729 321.466>
LayerCount: 2
Fore
SplineSet
230 -8 m 1,0,-1
 80 -10 l 1,1,2
 48 -8 48 -8 36 -5.5 c 128,-1,3
 24 -3 24 -3 24.5 13.5 c 128,-1,4
 25 30 25 30 36 33.5 c 128,-1,5
 47 37 47 37 60.5 37.5 c 128,-1,6
 74 38 74 38 85 40 c 128,-1,7
 96 42 96 42 97 54 c 1,8,-1
 92 99 l 2,9,10
 92 105 92 105 93 129.5 c 128,-1,11
 94 154 94 154 95 184 c 0,12,13
 98 260 98 260 101 278 c 1,14,15
 99 285 99 285 96.5 294.5 c 128,-1,16
 94 304 94 304 92 312 c 0,17,18
 86 332 86 332 79 332 c 2,19,-1
 22 335 l 2,20,21
 17 335 17 335 13.5 345 c 128,-1,22
 10 355 10 355 10 358 c 0,23,24
 10 368 10 368 17 369 c 2,25,-1
 131 388 l 2,26,27
 146 391 146 391 163 400 c 0,28,29
 195 417 195 417 209.5 417 c 128,-1,30
 224 417 224 417 230 412 c 128,-1,31
 236 407 236 407 239 399 c 0,32,33
 243 388 243 388 243 364 c 1,34,35
 266 372 266 372 289.5 381.5 c 0,36,37
 314 392 314 392 336 400 c 0,38,39
 388 420 388 420 407 419.5 c 128,-1,40
 426 419 426 419 438.5 410.5 c 128,-1,41
 451 402 451 402 463.5 390.5 c 128,-1,42
 476 379 476 379 486.5 368 c 128,-1,43
 497 357 497 357 504 351 c 1,44,45
 589 419 589 419 652 419 c 0,46,47
 729 418 729 418 766 378 c 0,48,49
 782 360 782 360 782 332 c 2,50,-1
 776 153 l 1,51,-1
 776 99 l 2,52,53
 776 58 776 58 796 53 c 0,54,55
 820 47 820 47 826.5 42 c 128,-1,56
 833 37 833 37 833 22.5 c 128,-1,57
 833 8 833 8 816.5 4.5 c 128,-1,58
 800 1 800 1 783.5 1 c 128,-1,59
 767 1 767 1 759.5 0 c 128,-1,60
 752 -1 752 -1 746 -2 c 128,-1,61
 740 -3 740 -3 734 -4 c 128,-1,62
 728 -5 728 -5 719 -5 c 0,63,64
 627 -5 627 -5 627 27 c 0,65,66
 627 89 627 89 636.5 152 c 128,-1,67
 646 215 646 215 646 278 c 0,68,69
 646 305 646 305 638.5 322 c 128,-1,70
 631 339 631 339 605 341 c 1,71,72
 579 339 579 339 559 323 c 0,73,74
 520 293 520 293 520 271 c 1,75,76
 528 248 528 248 528.5 214.5 c 128,-1,77
 529 181 529 181 529 159 c 128,-1,78
 529 137 529 137 527 112.5 c 0,79,80
 524 88 524 88 520 64 c 0,81,82
 509 3 509 3 486 1 c 0,83,84
 481 0 481 0 464.5 -1 c 128,-1,85
 448 -2 448 -2 440.5 -2.5 c 128,-1,86
 433 -3 433 -3 425.5 -2.5 c 128,-1,87
 418 -2 418 -2 408 -0.5 c 128,-1,88
 398 1 398 1 391 5 c 0,89,90
 376 14 376 14 376 37 c 0,91,92
 376 89 376 89 383 136 c 128,-1,93
 390 183 390 183 390 231 c 128,-1,94
 390 279 390 279 371.5 307 c 128,-1,95
 353 335 353 335 330 335 c 256,96,97
 290 335 290 335 262 299 c 0,98,99
 238 267 238 267 237 239 c 1,100,-1
 228 44 l 1,101,102
 234 39 234 39 243 38 c 128,-1,103
 252 37 252 37 261 35.5 c 128,-1,104
 270 34 270 34 276.5 30 c 128,-1,105
 283 26 283 26 283 13.5 c 128,-1,106
 283 1 283 1 269 -8 c 1,107,-1
 230 -8 l 1,0,-1
EndSplineSet
EndChar

StartChar: mu
Encoding: 181 181 147
Width: 728
Flags: W
HStem: -196 636<132.944 283> -196 31<44 120> -34 37<622.064 692.252> 15 26<363.5 403.229> 212 28<597.032 635.945>
VStem: 120 163<-108 43> 132 164<110.336 365> 472 125<123 212.088 240 386.229>
LayerCount: 2
Fore
SplineSet
623 -34 m 1,0,-1
 610 -33 l 2,1,2
 601 -32 601 -32 587 -30 c 0,3,4
 572 -28 572 -28 558 -26 c 0,5,6
 522 -21 522 -21 521 -20.5 c 128,-1,7
 520 -20 520 -20 516 -16 c 2,8,-1
 505 -5 l 2,9,10
 490 10 490 10 486 15 c 128,-1,11
 482 20 482 20 477.5 30.5 c 128,-1,12
 473 41 473 41 471 43 c 1,13,-1
 466 43 l 2,14,15
 451 44 451 44 433 34 c 0,16,17
 391 15 391 15 387 15 c 1,18,19
 361 15 361 15 358 18 c 1,20,21
 348 20 348 20 323.5 42 c 128,-1,22
 299 64 299 64 296 68 c 1,23,-1
 283 43 l 1,24,-1
 283 -108 l 1,25,-1
 321 -146 l 1,26,-1
 283 -196 l 1,27,-1
 44 -196 l 1,28,-1
 44 -165 l 1,29,-1
 120 -165 l 1,30,-1
 120 -121 l 2,31,32
 120 -110 120 -110 121 -73.5 c 128,-1,33
 122 -37 122 -37 123 11.5 c 128,-1,34
 124 60 124 60 125.5 115.5 c 0,35,36
 127 172 127 172 128 220 c 0,37,38
 130 334 130 334 132 352 c 1,39,-1
 132 365 l 1,40,41
 122 375 122 375 114.5 382.5 c 128,-1,42
 107 390 107 390 101.5 395 c 128,-1,43
 96 400 96 400 94 402 c 1,44,45
 104 419 104 419 145 427 c 1,46,47
 249 440 249 440 296 440 c 0,48,49
 298 440 298 440 303 435 c 128,-1,50
 308 430 308 430 308 427 c 256,51,52
 308 424 308 424 303 414 c 128,-1,53
 298 404 298 404 296 402 c 1,54,-1
 294 294 l 1,55,-1
 295 243 l 1,56,-1
 296 206 l 2,57,58
 296 204 296 204 297.5 196 c 0,59,60
 298 188 298 188 300 178 c 0,61,62
 304 152 304 152 310 133 c 0,63,64
 328 69 328 69 371 43 c 1,65,66
 371 41 371 41 383.5 41 c 128,-1,67
 396 41 396 41 396 43 c 1,68,69
 463 88 463 88 470 186 c 0,70,71
 472 214 472 214 472 239 c 128,-1,72
 472 264 472 264 471.5 280.5 c 0,73,74
 471 298 471 298 470 314 c 0,75,76
 469 331 469 331 459 388 c 0,77,78
 458 390 458 390 452 400.5 c 128,-1,79
 446 411 446 411 446 413 c 256,80,81
 446 416 446 416 454 423 c 0,82,83
 475 438 475 438 484 438 c 2,84,-1
 622 438 l 1,85,-1
 635 425 l 1,86,87
 625 410 625 410 597 400 c 1,88,-1
 597 240 l 1,89,90
 603 240 603 240 609.5 241.5 c 0,91,92
 616 242 616 242 622 242 c 0,93,94
 636 241 636 241 636 224 c 0,95,96
 636 216 636 216 630 214.5 c 0,97,98
 624 212 624 212 616 212 c 0,99,100
 596 211 596 211 597 201 c 2,101,-1
 597 194 l 1,102,103
 598 183 598 183 600 163 c 128,-1,104
 602 143 602 143 604 123 c 128,-1,105
 606 103 606 103 607.5 87 c 128,-1,106
 609 71 609 71 610 66 c 128,-1,107
 611 61 611 61 612.5 50.5 c 128,-1,108
 614 40 614 40 616 30 c 128,-1,109
 618 20 618 20 620 12.5 c 128,-1,110
 622 5 622 5 622 4 c 0,111,112
 624 3 624 3 634 3 c 2,113,-1
 685 4 l 2,114,115
 687 4 687 4 692 -0.5 c 128,-1,116
 697 -5 697 -5 697 -8 c 0,117,118
 688 -34 688 -34 623 -34 c 1,0,-1
EndSplineSet
EndChar

StartChar: multiply
Encoding: 215 215 148
Width: 455
Flags: W
VStem: 363 23<117.812 143.307>
LayerCount: 2
Fore
SplineSet
237 245 m 1,0,-1
 233 245 l 2,1,2
 232 245 232 245 228 245.5 c 128,-1,3
 224 246 224 246 221.5 243 c 128,-1,4
 219 240 219 240 213 233 c 128,-1,5
 207 226 207 226 189 204 c 0,6,7
 172 182 172 182 150 156 c 0,8,9
 92 87 92 87 84.5 78.5 c 128,-1,10
 77 70 77 70 71.5 67.5 c 128,-1,11
 66 65 66 65 49 65 c 1,12,-1
 49 94 l 1,13,-1
 205 289 l 1,14,-1
 62 484 l 2,15,16
 60 486 60 486 64.5 491 c 128,-1,17
 69 496 69 496 73.5 496 c 128,-1,18
 78 496 78 496 87.5 491 c 128,-1,19
 97 486 97 486 99 484 c 2,20,-1
 225 321 l 1,21,-1
 376 484 l 1,22,-1
 392 484 l 1,23,24
 392 454 392 454 376 434 c 1,25,26
 339 385 339 385 263 296 c 1,27,-1
 262 289 l 1,28,29
 262 271 262 271 276 256 c 128,-1,30
 290 241 290 241 298.5 233.5 c 128,-1,31
 307 226 307 226 311.5 221.5 c 128,-1,32
 316 217 316 217 323 208 c 128,-1,33
 330 199 330 199 338 189 c 0,34,35
 354 169 354 169 363 157 c 1,36,37
 358 144 358 144 344 144 c 2,38,-1
 341 144 l 2,39,40
 340 144 340 144 338 145 c 2,41,-1
 237 245 l 1,0,-1
363 132 m 0,42,43
 363 137 363 137 372 142 c 128,-1,44
 381 147 381 147 386 147 c 1,45,46
 386 135 386 135 392 126 c 0,47,48
 404 110 404 110 405 91 c 1,49,50
 391 91 391 91 377 103.5 c 128,-1,51
 363 116 363 116 363 132 c 0,42,43
EndSplineSet
EndChar

StartChar: n
Encoding: 110 110 149
Width: 662
Flags: W
HStem: -20 55<26.1885 84.5239> -12 29<250.247 306.288> -5 41<555.778 609.812> 3 31<50 172.5> 354 32<262 319> 382 43<15.3571 103.48> 432 20G<203.5 234 403 419>
VStem: 91.5 135.5<58.5065 151.3> 371 164<77.2998 274.498>
LayerCount: 2
Fore
SplineSet
46 -20 m 1,0,1
 18 -16 18 -16 18 15 c 1,2,3
 20 29 20 29 26 32 c 128,-1,4
 32 35 32 35 42 35 c 1,5,-1
 50 34 l 1,6,7
 78 34 78 34 86 58 c 0,8,9
 92 74 92 74 91.5 116.5 c 128,-1,10
 91 159 91 159 98 211.5 c 128,-1,11
 105 264 105 264 105 307.5 c 128,-1,12
 105 351 105 351 102 384 c 1,13,-1
 56 382 l 1,14,-1
 46 382 l 1,15,16
 37 384 37 384 26 388 c 128,-1,17
 15 392 15 392 15 400 c 128,-1,18
 15 408 15 408 21.5 415 c 128,-1,19
 28 422 28 422 30 426 c 1,20,21
 36 425 36 425 41 425 c 128,-1,22
 46 425 46 425 63 425 c 128,-1,23
 80 425 80 425 92 426 c 128,-1,24
 104 427 104 427 110.5 427.5 c 128,-1,25
 117 428 117 428 123.5 429 c 128,-1,26
 130 430 130 430 150 430 c 256,27,28
 179 430 179 430 228 452 c 1,29,30
 240 450 240 450 248.5 444.5 c 128,-1,31
 257 439 257 439 261 437 c 1,32,-1
 256 388 l 1,33,34
 258 386 258 386 262 386 c 0,35,36
 270 386 270 386 292 402 c 1,37,38
 339 423 339 423 367 433.5 c 128,-1,39
 395 444 395 444 411 444 c 128,-1,40
 427 444 427 444 442.5 439 c 128,-1,41
 458 434 458 434 474 424 c 0,42,43
 511 402 511 402 525 370 c 0,44,45
 548 313 548 313 548 275 c 0,46,47
 548 259 548 259 544 233 c 0,48,49
 536 184 536 184 535 160 c 0,50,51
 535 123 535 123 540 107 c 0,52,53
 544 91 544 91 548 79 c 0,54,55
 557 48 557 48 563 46 c 1,56,57
 568 41 568 41 576 39.5 c 128,-1,58
 584 38 584 38 592 36 c 0,59,60
 610 31 610 31 610 17 c 256,61,62
 610 3 610 3 562 -5 c 0,63,64
 534 -10 534 -10 512 -10 c 0,65,66
 467 -10 467 -10 442 8 c 0,67,68
 371 60 371 60 371 220 c 0,69,70
 371 354 371 354 319 354 c 0,71,72
 292 354 292 354 270 328 c 0,73,74
 249 303 249 303 247 280 c 2,75,-1
 227 82 l 1,76,77
 227 47 227 47 247 33.5 c 128,-1,78
 267 20 267 20 300 17 c 0,79,80
 307 16 307 16 307 7 c 0,81,82
 307 -12 307 -12 271 -12 c 0,83,84
 258 -12 258 -12 240 -7 c 0,85,86
 204 3 204 3 172.5 3 c 128,-1,87
 141 3 141 3 46 -20 c 1,0,1
EndSplineSet
EndChar

StartChar: nine
Encoding: 57 57 150
Width: 595
Flags: W
HStem: 251 46<215.65 281> 602 77<236.406 289.657>
VStem: 25 167<372 500.688> 326 228<319.289 504.164>
LayerCount: 2
Fore
SplineSet
206 5 m 2,0,1
 175 5 175 5 175 27 c 128,-1,2
 175 49 175 49 194 62 c 1,3,-1
 281 242 l 1,4,-1
 281 251 l 1,5,6
 174 251 174 251 136.5 265 c 128,-1,7
 99 279 99 279 73.5 303.5 c 128,-1,8
 48 328 48 328 27 372 c 1,9,10
 25 411 l 1,11,-1
 25 421 l 2,12,13
 25 516 25 516 76 580 c 0,14,15
 110 623 110 623 120 626 c 2,16,-1
 269 676 l 2,17,18
 275 679 275 679 309 679 c 128,-1,19
 343 679 343 679 382 668.5 c 128,-1,20
 421 658 421 658 448 632 c 0,21,22
 554 530 554 530 554 373 c 0,23,24
 554 322 554 322 517 229 c 0,25,26
 511 214 511 214 504 206 c 0,27,28
 493 193 493 193 492 179 c 1,29,30
 435 101 435 101 380 61 c 0,31,32
 362 48 362 48 349 44 c 2,33,-1
 212 6 l 2,34,35
 211 5 211 5 210 5 c 2,36,-1
 206 5 l 2,0,1
194 421 m 2,37,38
 192 413 192 413 192 402.5 c 128,-1,39
 192 392 192 392 196.5 372.5 c 0,40,41
 201 352 201 352 207 336 c 0,42,43
 221 296 221 296 231 297 c 2,44,-1
 294 297 l 2,45,46
 295 297 295 297 299.5 307 c 128,-1,47
 304 317 304 317 308 330.5 c 128,-1,48
 312 344 312 344 316 359 c 128,-1,49
 320 374 320 374 322 388 c 0,50,51
 326 408 326 408 326 446 c 128,-1,52
 326 484 326 484 323 505 c 128,-1,53
 320 526 320 526 314 542 c 0,54,55
 303 570 303 570 269 602 c 1,56,57
 240 602 240 602 231 571 c 1,58,-1
 194 421 l 2,37,38
EndSplineSet
EndChar

StartChar: numbersign
Encoding: 35 35 152
Width: 562
Flags: W
HStem: 118 5<99.0006 103.969> 166 50<100.191 145.653 156.314 175> 179 38<413.083 511.339> 322 47<383 516.78> 322 37<263 332.618>
VStem: 27.5 66.5<146 199.5> 99 5<118.001 122.978> 158 49<-44.822 163.562> 208 21<228.744 281.543> 269 43<-36.5942 0> 282 30<561.468 601.723>
LayerCount: 2
Fore
SplineSet
306 185 m 1,0,-1
 301 186 l 1,1,2
 297 185 297 185 287 183.5 c 128,-1,3
 277 182 277 182 266 179.5 c 128,-1,4
 255 177 255 177 245.5 175.5 c 128,-1,5
 236 174 236 174 229 171.5 c 128,-1,6
 222 169 222 169 216 148 c 128,-1,7
 210 127 210 127 206 102 c 0,8,9
 200 63 200 63 200.5 32 c 128,-1,10
 201 1 201 1 204 -4.5 c 128,-1,11
 207 -10 207 -10 207 -18.5 c 128,-1,12
 207 -27 207 -27 199 -36 c 128,-1,13
 191 -45 191 -45 183 -45 c 0,14,15
 158 -45 158 -45 158 -20 c 0,16,17
 158 26 158 26 166.5 72.5 c 128,-1,18
 175 119 175 119 175 165 c 1,19,-1
 152 166 l 1,20,-1
 126 167 l 2,21,22
 106 167 106 167 100 163.5 c 128,-1,23
 94 160 94 160 94 146 c 256,24,25
 94 132 94 132 96 129 c 1,26,27
 87 135 87 135 84.5 145.5 c 128,-1,28
 82 156 82 156 71 161 c 0,29,30
 63 164 63 164 55.5 166.5 c 128,-1,31
 48 169 48 169 42 173 c 0,32,33
 28 182 28 182 27.5 199.5 c 128,-1,34
 27 217 27 217 37 217 c 2,35,-1
 112 210 l 1,36,37
 135 210 135 210 146 217 c 1,38,-1
 108 285 l 1,39,40
 104 284 104 284 96 284 c 0,41,42
 64 284 64 284 64 307 c 0,43,44
 64 338 64 338 120 340 c 0,45,46
 132 340 132 340 140 341.5 c 0,47,48
 148 342 148 342 162 344 c 0,49,50
 190 347 190 347 220 353 c 1,51,-1
 282 588 l 2,52,53
 285 602 285 602 301 602 c 0,54,55
 313 602 313 602 313 579 c 1,56,-1
 312 570 l 1,57,-1
 263 371 l 1,58,-1
 263 361 l 1,59,-1
 299 359 l 1,60,61
 344 359 344 359 350 384 c 2,62,-1
 400 576 l 2,63,64
 402 584 402 584 410.5 596 c 128,-1,65
 419 608 419 608 427.5 608 c 128,-1,66
 436 608 436 608 440 601 c 128,-1,67
 444 594 444 594 444 587 c 2,68,-1
 443 576 l 1,69,-1
 383 369 l 1,70,-1
 499 369 l 2,71,72
 510 369 510 369 517 361 c 128,-1,73
 524 353 524 353 524 337.5 c 128,-1,74
 524 322 524 322 512 322 c 2,75,-1
 375 322 l 1,76,-1
 356 229 l 1,77,-1
 493 217 l 2,78,79
 497 216 497 216 504.5 211.5 c 128,-1,80
 512 207 512 207 512 203 c 128,-1,81
 512 199 512 199 509 189 c 128,-1,82
 506 179 506 179 505 179 c 2,83,-1
 346 179 l 1,84,-1
 312 18 l 1,85,-1
 312 11 l 2,86,87
 312 -2 312 -2 319.5 -13 c 128,-1,88
 327 -24 327 -24 327 -37 c 1,89,90
 316 -37 316 -37 307 -41 c 128,-1,91
 298 -45 298 -45 287 -45 c 0,92,93
 269 -45 269 -45 269 -16 c 1,94,-1
 270 0 l 1,95,-1
 306 173 l 1,96,-1
 306 185 l 1,0,-1
104 121 m 2,97,98
 104 118 104 118 101.5 118 c 128,-1,99
 99 118 99 118 99 120.5 c 128,-1,100
 99 123 99 123 101 123 c 128,-1,101
 103 123 103 123 104 122 c 1,102,-1
 104 121 l 2,97,98
124 296 m 1,103,104
 124 281 124 281 140 259 c 0,105,106
 170 216 170 216 183 216 c 0,107,108
 202 216 202 216 207 274 c 0,109,110
 208 286 208 286 208 292 c 0,111,112
 208 304 208 304 192.5 304 c 128,-1,113
 177 304 177 304 159.5 300 c 128,-1,114
 142 296 142 296 124 296 c 1,103,104
229 221 m 1,115,116
 283 221 283 221 312 229 c 1,117,118
 323 228 323 228 331 290 c 0,119,120
 333 306 333 306 333 317 c 1,121,122
 300 317 300 317 251 310 c 1,123,124
 229 264 229 264 229 221 c 1,115,116
EndSplineSet
EndChar

StartChar: o
Encoding: 111 111 153
Width: 556
Flags: W
HStem: -43 63<239.063 322.893> 377 49<260.109 334.512>
VStem: 18 192<88.8613 287.341> 365 172<74.2163 266.117>
LayerCount: 2
Fore
SplineSet
44 82 m 0,0,1
 24 111 24 111 21 143 c 128,-1,2
 18 175 18 175 18 217 c 128,-1,3
 18 259 18 259 47 298.5 c 128,-1,4
 76 338 76 338 121 366 c 0,5,6
 215 426 215 426 323 426 c 0,7,8
 416 426 416 426 480 333 c 0,9,10
 508 293 508 293 522.5 245.5 c 128,-1,11
 537 198 537 198 537 149 c 128,-1,12
 537 100 537 100 507 54 c 0,13,14
 467 -8 467 -8 393 -26 c 0,15,16
 369 -32 369 -32 331.5 -37.5 c 128,-1,17
 294 -43 294 -43 287 -43 c 0,18,19
 213 -43 213 -43 152 -16 c 128,-1,20
 91 11 91 11 44 82 c 0,0,1
210 183 m 0,21,22
 210 160 210 160 212.5 133 c 128,-1,23
 215 106 215 106 222 81 c 0,24,25
 239 20 239 20 271 20 c 0,26,27
 306 20 306 20 325 44 c 128,-1,28
 344 68 344 68 353 102 c 0,29,30
 365 148 365 148 365 246 c 0,31,32
 365 288 365 288 355 319 c 0,33,34
 331 371 331 371 319 377 c 1,35,36
 256 378 256 378 230 306 c 0,37,38
 210 254 210 254 210 183 c 0,21,22
EndSplineSet
EndChar

StartChar: oe
Encoding: 339 339 157
Width: 770
Flags: W
HStem: -23 43<556.254 677.308> 359 64<263.277 326.209>
VStem: 21 168<89.585 252.871> 345 197<102.078 151.778 205.188 298.143> 368 174<218 337.607>
LayerCount: 2
Fore
SplineSet
606 -23 m 2,0,-1
 581 -23 l 2,1,2
 561 -22 561 -22 546 -18 c 2,3,-1
 521 -11 l 2,4,5
 511 -8 511 -8 499 -5 c 0,6,7
 463 4 463 4 452.5 12 c 128,-1,8
 442 20 442 20 432 27 c 0,9,10
 410 43 410 43 404 52 c 1,11,12
 385 50 385 50 374.5 38 c 128,-1,13
 364 26 364 26 341.5 11.5 c 128,-1,14
 319 -3 319 -3 291 -16.5 c 128,-1,15
 263 -30 263 -30 237 -30 c 0,16,17
 196 -30 196 -30 171 -21 c 1,18,19
 31 16 31 16 21 145 c 1,20,21
 24 226 24 226 34 239 c 1,22,23
 95 352 95 352 187 400 c 0,24,25
 220 418 220 418 258 423 c 1,26,27
 308 424 308 424 364 372 c 0,28,29
 378 358 378 358 390 346 c 1,30,31
 401 346 401 346 417.5 358.5 c 128,-1,32
 434 371 434 371 453.5 385.5 c 128,-1,33
 473 400 473 400 494 412.5 c 128,-1,34
 515 425 515 425 535.5 425 c 128,-1,35
 556 425 556 425 574.5 417.5 c 128,-1,36
 593 410 593 410 616 402.5 c 128,-1,37
 639 395 639 395 661 371 c 128,-1,38
 683 347 683 347 700 319.5 c 128,-1,39
 717 292 717 292 729 264.5 c 128,-1,40
 741 237 741 237 749 220 c 1,41,42
 740 182 740 182 707 179 c 1,43,44
 689 179 689 179 644 170.5 c 128,-1,45
 599 162 599 162 581 159 c 1,46,47
 573 156 573 156 565 155.5 c 0,48,49
 556 155 556 155 550 152 c 0,50,51
 536 145 536 145 536 124 c 1,52,-1
 538 98 l 1,53,54
 544 73 544 73 547.5 57.5 c 0,55,56
 552 42 552 42 556 34 c 0,57,58
 564 20 564 20 589.5 20 c 128,-1,59
 615 20 615 20 633 23.5 c 128,-1,60
 651 27 651 27 663 33 c 128,-1,61
 675 39 675 39 685 46 c 128,-1,62
 695 53 695 53 711 61 c 1,63,-1
 713 61 l 1,64,-1
 717 62 l 1,65,66
 728 62 728 62 736.5 55.5 c 128,-1,67
 745 49 745 49 745 35.5 c 128,-1,68
 745 22 745 22 726.5 11 c 128,-1,69
 708 0 708 0 686 -7 c 0,70,71
 638 -22 638 -22 625 -22.5 c 128,-1,72
 612 -23 612 -23 606 -23 c 2,0,-1
188 172 m 1,73,-1
 189 168 l 1,74,-1
 189 162 l 1,75,76
 202 104 202 104 213 84 c 0,77,78
 237 44 237 44 280 30 c 1,79,80
 299 32 299 32 324 48 c 0,81,82
 370 77 370 77 370 97 c 1,83,84
 369 97 369 97 363.5 110 c 128,-1,85
 358 123 358 123 354 129 c 1,86,87
 345 155 345 155 345 177 c 128,-1,88
 345 199 345 199 346 211.5 c 128,-1,89
 347 224 347 224 349 235 c 0,90,91
 353 257 353 257 358.5 271.5 c 128,-1,92
 364 286 364 286 364.5 290.5 c 128,-1,93
 365 295 365 295 368 300 c 1,94,95
 368 315 368 315 354 331 c 0,96,97
 327 359 327 359 310 359 c 0,98,99
 284 359 284 359 254 329 c 1,100,101
 220 298 220 298 206 258 c 0,102,103
 198 234 198 234 188 174 c 1,104,-1
 188 172 l 1,73,-1
606 369 m 1,105,106
 542 362 542 362 542 233 c 2,107,-1
 542 218 l 2,108,109
 542 211 542 211 543 205 c 1,110,-1
 619 211 l 1,111,112
 628 213 628 213 628 240.5 c 128,-1,113
 628 268 628 268 625 283 c 128,-1,114
 622 298 622 298 618 312 c 0,115,116
 607 349 607 349 606 369 c 1,105,106
665 311 m 0,117,118
 664 313 664 313 662 313 c 0,119,-1
 660 313 l 0,120,121
 656 312 656 312 657 307 c 1,122,123
 659 302 659 302 662.5 302 c 128,-1,124
 666 302 666 302 666 305 c 128,-1,125
 666 308 666 308 665 311 c 0,117,118
EndSplineSet
EndChar

StartChar: ogonek
Encoding: 731 731 158
Width: 198
Flags: W
HStem: -13 37<63.8125 135.422>
VStem: 18 44<25.2756 87> 76 43<149.095 205.293>
LayerCount: 2
Fore
SplineSet
180 43 m 1,0,1
 134 -13 134 -13 82 -13 c 1,2,3
 54 -13 54 -13 34 14 c 0,4,5
 18 37 18 37 18 69 c 1,6,-1
 19 87 l 1,7,-1
 74 149 l 1,8,9
 75 152 75 152 76 162 c 0,10,11
 76 172 76 172 80 184 c 0,12,13
 89 212 89 212 105 212 c 0,14,15
 116 212 116 212 117.5 205.5 c 128,-1,16
 119 199 119 199 119 177.5 c 128,-1,17
 119 156 119 156 110 137 c 128,-1,18
 101 118 101 118 90.5 105.5 c 128,-1,19
 80 93 80 93 71 83 c 128,-1,20
 62 73 62 73 62 56 c 0,21,22
 62 24 62 24 91 24 c 2,23,-1
 96 24 l 2,24,25
 98 24 98 24 99 25 c 2,26,-1
 162 55 l 1,27,-1
 164 55 l 1,28,-1
 168 56 l 1,29,30
 180 56 180 56 180 43 c 1,0,1
EndSplineSet
EndChar

StartChar: one
Encoding: 49 49 160
Width: 526
Flags: W
HStem: -13 44<36.0029 159.93 434.692 510.389> -10 54<381 443.308> 492 45<22.4486 170.126> 676 20G<353.098 406>
VStem: 160 221<41.7656 385.883> 175 230<347.468 499.56>
LayerCount: 2
Fore
SplineSet
48 -13 m 1,0,1
 36 -5 36 -5 36 9 c 256,2,3
 36 25 36 25 48 31 c 1,4,5
 89 31 89 31 123.5 36.5 c 128,-1,6
 158 42 158 42 160 43 c 1,7,8
 160 75 160 75 161.5 113 c 0,9,10
 162 151 162 151 164 190 c 0,11,12
 167 263 167 263 167 299 c 0,13,14
 167 315 167 315 167 324 c 0,15,16
 166 336 166 336 166 347 c 0,17,18
 166 362 166 362 168 374 c 0,19,20
 170 396 170 396 172 418 c 0,21,22
 175 443 175 443 175 463 c 0,23,24
 175 486 175 486 171 500 c 1,25,26
 143 500 143 500 120 496 c 128,-1,27
 97 492 97 492 59.5 492 c 128,-1,28
 22 492 22 492 22 519 c 0,29,30
 22 526 22 526 28.5 531 c 128,-1,31
 35 536 35 536 41 537 c 1,32,-1
 51 537 l 2,33,34
 119 537 119 537 144 545 c 128,-1,35
 169 553 169 553 183 558.5 c 128,-1,36
 197 564 197 564 208 568 c 128,-1,37
 219 572 219 572 221 574 c 2,38,-1
 379 696 l 1,39,-1
 406 696 l 1,40,41
 406 682 406 682 409 665 c 0,42,43
 410 659 410 659 410 653 c 0,44,45
 410 643 410 643 407 634 c 1,46,-1
 405 472 l 1,47,48
 405 390 405 390 396 274.5 c 0,49,50
 386 159 386 159 384 123 c 0,51,52
 381 77 381 77 381 58 c 0,53,54
 381 44 381 44 383 44 c 2,55,-1
 495 31 l 2,56,57
 507 29 507 29 510.5 22.5 c 128,-1,58
 514 16 514 16 514 8.5 c 128,-1,59
 514 1 514 1 513.5 -6 c 128,-1,60
 513 -13 513 -13 505 -13 c 2,61,-1
 452 -10 l 1,62,-1
 120 -13 l 1,63,-1
 48 -13 l 1,0,1
EndSplineSet
EndChar

